<svg width="528" height="350" viewBox="0 0 528 350" fill="none" xmlns="http://www.w3.org/2000/svg">
<g filter="url(#filter0_d_776_1976)">
<path d="M21.1917 130.476C22.461 129.71 23.8271 129.117 25.2536 128.714L26.0867 124.703L32.8689 124.578L33.8715 128.566C35.3086 128.918 36.6921 129.461 37.9851 130.181L41.413 127.969L46.2933 132.687L44.1702 136.189C44.9358 137.456 45.5284 138.819 45.9321 140.244L49.9424 141.084L50.0678 147.866L46.0795 148.839C45.7287 150.279 45.1857 151.665 44.465 152.96L46.6766 156.388L41.9807 161.232L38.479 159.109C37.2106 159.871 35.8474 160.464 34.4244 160.87L33.584 164.881L26.8017 164.999L25.8286 161.018C24.3885 160.664 23.0024 160.119 21.7077 159.396L18.2723 161.622L13.3921 156.912L15.5152 153.41C14.7524 152.139 14.1601 150.773 13.7533 149.348L9.74295 148.515L9.625 141.733L13.6059 140.752C13.9612 139.316 14.504 137.933 15.2203 136.639L13.0087 133.211L17.7194 128.33L21.2211 130.454L21.1917 130.476ZM24.8113 139.506C23.8159 140.543 23.1498 141.851 22.8969 143.266C22.6441 144.681 22.8159 146.139 23.3906 147.456C23.9653 148.773 24.9172 149.891 26.1263 150.667C27.3354 151.444 28.7474 151.846 30.1843 151.821C31.6213 151.796 33.0187 151.347 34.2004 150.529C35.3822 149.711 36.2952 148.562 36.8244 147.225C37.3537 145.889 37.4754 144.426 37.1742 143.021C36.873 141.616 36.1624 140.331 35.1321 139.329C34.4443 138.661 33.631 138.134 32.7391 137.781C31.8471 137.428 30.8941 137.254 29.9349 137.271C28.9757 137.287 28.0292 137.493 27.1499 137.877C26.2705 138.261 25.4758 138.814 24.8113 139.506Z" fill="#8F90B6"/>
<path d="M31.1809 32.3019C32.4503 31.5361 33.8164 30.9435 35.2429 30.54L36.0833 26.5222L42.8655 26.4043L43.8386 30.3999C45.275 30.7578 46.658 31.3031 47.9522 32.0218L51.3802 29.7733L56.2604 34.4914L54.1373 37.9931C54.903 39.2599 55.4955 40.6235 55.8992 42.0477L59.9169 42.8881L60.0349 49.6703L56.0466 50.6434C55.6946 52.0712 55.1515 53.4449 54.4322 54.7275L56.6438 58.1628L51.9257 63.0431L48.424 60.9126C47.1588 61.6813 45.7947 62.2741 44.3694 62.6745L43.529 66.6922L36.7468 66.8102L35.8105 62.8367C34.3714 62.48 32.9858 61.9347 31.6896 61.2148L28.2616 63.4264L23.3813 58.7157L25.5119 55.2067C24.7439 53.9401 24.1488 52.5765 23.7426 51.1521L19.7322 50.319L19.6143 43.5368L23.5951 42.5563C23.9542 41.1414 24.4995 39.7804 25.217 38.5091L23.0054 35.0811L27.6792 30.1788L31.1809 32.3019ZM34.8006 41.3399C33.8059 42.3773 33.1408 43.6859 32.8889 45.1008C32.6371 46.5157 32.8099 47.9735 33.3856 49.2903C33.9613 50.6071 34.914 51.724 36.1236 52.5C37.3332 53.276 38.7455 53.6764 40.1824 53.6507C41.6193 53.6251 43.0165 53.1745 44.1976 52.3558C45.3787 51.5371 46.291 50.3869 46.8193 49.0504C47.3475 47.7139 47.4682 46.2509 47.166 44.8459C46.8639 43.4409 46.1524 42.1568 45.1214 41.1556C44.4336 40.4864 43.62 39.96 42.7278 39.6068C41.8355 39.2536 40.8821 39.0805 39.9226 39.0977C38.9631 39.1148 38.0164 39.3218 37.1373 39.7066C36.2582 40.0915 35.464 40.6466 34.8006 41.3399Z" fill="#8F90B6"/>
<path d="M179.203 70.3792C180.732 69.453 182.379 68.7365 184.098 68.2486L185.108 63.3979L193.299 63.2578L194.478 68.0643C196.214 68.4908 197.885 69.1478 199.447 70.0179L203.59 67.305L209.487 72.9962L206.922 77.2277C207.845 78.7582 208.561 80.4042 209.053 82.1227L213.896 83.1327L214.043 91.323L209.229 92.5025C208.806 94.2396 208.149 95.9111 207.276 97.4712L209.989 101.614L204.305 107.512L200.073 104.946C198.54 105.87 196.892 106.586 195.171 107.077L194.161 111.92L185.971 112.068L184.791 107.254C183.055 106.828 181.384 106.171 179.823 105.3L175.687 108.013L169.789 102.322L172.355 98.0905C171.427 96.5622 170.711 94.9156 170.224 93.1955L165.373 92.1855L165.233 83.9952L170.04 82.8157C170.472 81.0816 171.129 79.4112 171.994 77.847L169.281 73.7113L174.972 67.8137L179.203 70.3865V70.3792ZM183.568 81.2676C182.36 82.5177 181.551 84.0976 181.242 85.8076C180.933 87.5177 181.137 89.281 181.83 90.8747C182.523 92.4684 183.673 93.8209 185.134 94.7612C186.595 95.7016 188.303 96.1875 190.04 96.1577C191.778 96.1278 193.467 95.5834 194.895 94.5934C196.324 93.6033 197.426 92.212 198.064 90.5955C198.701 88.9789 198.845 87.2095 198.477 85.5112C198.109 83.8128 197.246 82.2617 195.997 81.0538C194.32 79.4351 192.068 78.5484 189.738 78.5885C187.407 78.6286 185.188 79.5922 183.568 81.2676Z" fill="#8F90B6"/>
<path d="M67.6648 17.1308C68.3055 16.7391 68.9978 16.4389 69.7216 16.2388L70.1418 14.182L73.5698 14.123L74.0637 16.1356C74.7897 16.3154 75.4888 16.5905 76.1426 16.9539L77.875 15.8186L80.3151 18.2219L79.2388 19.9985C79.6275 20.6382 79.9276 21.3276 80.1308 22.0479L82.1581 22.4681L82.2171 25.8961L80.2046 26.39C80.0273 27.1169 79.752 27.8163 79.3863 28.4689L80.5215 30.2087L78.1404 32.671L76.3711 31.5947C75.7324 31.9852 75.0427 32.2854 74.3217 32.4867L73.9015 34.5213L70.4661 34.5803L69.9943 32.5678C69.2683 32.388 68.5692 32.1128 67.9154 31.7495L66.183 32.8848L63.7134 30.5036L64.8339 28.727C64.4384 28.0992 64.1262 27.4227 63.9051 26.7144L61.8851 26.2573L61.8262 22.8294L63.8387 22.3354C64.016 21.6086 64.2912 20.9092 64.657 20.2565L63.5217 18.5168L65.9029 16.0545L67.6722 17.1308H67.6648ZM69.493 21.6941C68.9853 22.2179 68.6444 22.8805 68.5135 23.5981C68.3827 24.3158 68.4676 25.0561 68.7577 25.7254C69.0478 26.3947 69.53 26.9629 70.1432 27.358C70.7564 27.7531 71.473 27.9574 72.2024 27.945C72.9317 27.9326 73.641 27.7041 74.2404 27.2884C74.8398 26.8726 75.3024 26.2884 75.5696 25.6096C75.8368 24.9308 75.8965 24.1881 75.7413 23.4753C75.5861 22.7625 75.2229 22.1118 74.6977 21.6056C73.9951 20.9285 73.0527 20.5575 72.0771 20.5741C71.1014 20.5907 70.1722 20.9934 69.493 21.6941Z" fill="#8F90B6"/>
<path fill-rule="evenodd" clip-rule="evenodd" d="M430.278 41.6051C430.278 41.8594 430.203 42.108 430.061 42.3192C429.919 42.5305 429.718 42.6949 429.483 42.7915C429.248 42.8881 428.989 42.9127 428.74 42.862C428.491 42.8113 428.262 42.6876 428.083 42.5068C427.905 42.3259 427.784 42.096 427.736 41.8462C427.688 41.5964 427.715 41.338 427.815 41.1039C427.914 40.8698 428.081 40.6705 428.294 40.5313C428.507 40.3922 428.756 40.3194 429.01 40.3224C429.348 40.3262 429.67 40.4631 429.908 40.7032C430.145 40.9434 430.278 41.2674 430.278 41.6051Z" fill="#787993"/>
<path fill-rule="evenodd" clip-rule="evenodd" d="M463.46 20.3672C463.461 20.6215 463.387 20.8705 463.247 21.0826C463.106 21.2946 462.906 21.4602 462.672 21.5582C462.437 21.6562 462.178 21.6822 461.929 21.633C461.679 21.5837 461.45 21.4614 461.27 21.2815C461.09 21.1017 460.968 20.8725 460.919 20.623C460.87 20.3735 460.896 20.1149 460.994 19.8803C461.092 19.6456 461.257 19.4453 461.469 19.3049C461.681 19.1645 461.93 19.0904 462.185 19.0918C462.523 19.0918 462.847 19.2262 463.086 19.4654C463.326 19.7045 463.46 20.0289 463.46 20.3672Z" fill="#787993"/>
<path d="M423.902 279.574C423.902 279.574 423.902 279.22 423.902 278.534C423.902 277.849 423.902 276.824 423.902 275.49C423.902 272.806 423.902 268.855 423.902 263.768C423.902 253.565 423.902 238.792 423.843 220.48C423.843 183.834 423.843 133.011 423.784 76.2688V76.2246V76.1804C425.443 72.8851 427.234 69.3392 429.025 65.7711V65.8596V41.6057L429.217 41.79L260.937 41.6868L261.018 41.6057C261.018 49.3906 261.018 55.3692 261.018 59.4017C261.018 61.4118 261.018 62.9354 261.018 63.9724C261.018 62.9476 261.018 61.4143 261.018 59.4017C261.018 55.3692 261.018 49.3906 260.973 41.6057V41.5173H261.062L429.342 41.4141H429.527V41.6057C429.527 49.2431 429.527 57.0869 429.527 65.1076V65.8448V65.8891L424.071 76.3278V76.2394C424.071 133.004 424.027 183.804 424.012 220.45C424.012 238.762 423.968 253.536 423.953 263.739C423.953 268.833 423.953 272.777 423.953 275.46C423.953 276.794 423.953 277.819 423.953 278.505C423.953 279.19 423.902 279.574 423.902 279.574Z" fill="#787993"/>
<path d="M456.95 133.8C456.95 133.8 456.95 133.424 456.95 132.694C456.95 131.965 456.913 130.881 456.884 129.465C456.832 126.627 456.759 122.462 456.663 117.117C456.493 106.421 456.25 91.0279 455.926 72.2145C457.798 67.2212 459.764 61.9822 461.823 56.4974V56.5564C461.823 45.55 461.823 33.3641 461.823 20.4853L462.007 20.6696H414.827H336.684H336.58L336.529 20.5737L331.892 10.7616L332.039 10.8501L279.256 10.7837L264.512 10.7395H260.641H259.314C259.314 10.7395 259.764 10.7395 260.641 10.7395H264.512L279.256 10.6953L332.039 10.6289H332.135L332.179 10.7174L336.86 20.3673L336.706 20.2715H414.849H462.184V20.4558C462.184 33.3346 462.184 45.5205 462.184 56.5269L456.287 72.2293V72.1703C456.53 90.991 456.729 106.384 456.869 117.08C456.928 122.425 456.98 126.59 457.009 129.429C457.009 130.844 457.009 131.92 457.009 132.657C456.965 133.424 456.95 133.8 456.95 133.8Z" fill="#787993"/>
<path d="M447.757 142.041C447.757 142.041 447.757 141.628 447.706 140.817C447.654 140.006 447.654 138.805 447.61 137.242C447.536 134.087 447.426 129.457 447.278 123.515C447.005 111.609 446.615 94.4474 446.135 73.3856L453.065 57.1672V57.2262C453.279 48.3798 453.515 38.7962 453.758 28.704L453.935 28.8809H372.29L239.734 28.8293L239.838 28.7924L229.067 39.4744H229.015L193.106 39.2017L183.523 39.0985H193.106L228.957 39.2975H228.868C232.22 35.9359 235.805 32.3433 239.624 28.5197L239.661 28.4754H239.72L372.275 28.4238H453.92H454.097V28.6081C453.847 38.6635 453.596 48.2545 453.36 57.1304C450.935 62.7921 448.605 68.1884 446.401 73.3487V73.2898C446.828 94.3589 447.138 111.528 447.411 123.419C447.521 129.361 447.61 133.991 447.669 137.146C447.669 138.709 447.713 139.91 447.72 140.721C447.728 141.532 447.757 142.041 447.757 142.041Z" fill="#787993"/>
<path fill-rule="evenodd" clip-rule="evenodd" d="M182.425 38.9156C182.425 39.1693 182.35 39.4173 182.209 39.6282C182.068 39.8392 181.867 40.0036 181.633 40.1006C181.399 40.1977 181.141 40.2231 180.892 40.1736C180.643 40.1241 180.414 40.002 180.235 39.8226C180.056 39.6432 179.934 39.4146 179.884 39.1658C179.835 38.917 179.86 38.6591 179.957 38.4247C180.054 38.1903 180.219 37.99 180.429 37.849C180.64 37.7081 180.888 37.6328 181.142 37.6328C181.311 37.6319 181.478 37.6644 181.634 37.7285C181.79 37.7926 181.932 37.887 182.051 38.0064C182.171 38.1257 182.265 38.2675 182.329 38.4235C182.393 38.5796 182.426 38.7468 182.425 38.9156Z" fill="#787993"/>
<path fill-rule="evenodd" clip-rule="evenodd" d="M259.337 10.6284C259.337 10.8821 259.262 11.1301 259.121 11.3411C258.98 11.552 258.779 11.7164 258.545 11.8135C258.311 11.9106 258.053 11.936 257.804 11.8865C257.555 11.837 257.327 11.7148 257.147 11.5355C256.968 11.3561 256.846 11.1275 256.796 10.8787C256.747 10.6299 256.772 10.3719 256.869 10.1376C256.966 9.90316 257.131 9.70283 257.342 9.56188C257.553 9.42093 257.801 9.3457 258.054 9.3457C258.394 9.3457 258.721 9.48085 258.961 9.72141C259.202 9.96196 259.337 10.2882 259.337 10.6284Z" fill="#787993"/>
<path d="M472.24 277.141H445.442C453.286 250.469 455.07 200.472 453.758 167.35H463.614C463.098 200.354 465.479 250.085 472.24 277.141Z" fill="#8F90B6"/>
<path d="M509.077 309.577C506.796 307.039 503.939 305.085 500.746 303.879C497.553 302.673 494.118 302.251 490.728 302.648C491.37 296.75 491.959 290.477 489.63 285.073C487.3 279.669 480.909 275.806 476.043 278.674C477.842 270.498 474.687 261.32 468.362 256.352C465.223 253.923 461.417 252.511 457.454 252.305C453.491 252.1 449.56 253.11 446.187 255.202C439.441 259.499 435.475 268.309 436.537 276.632C433.091 276.413 429.647 277.105 426.553 278.639C423.459 280.172 420.823 282.493 418.91 285.368C416.946 288.402 415.727 291.857 415.353 295.452C414.979 299.048 415.46 302.68 416.758 306.054C406.724 305.515 397.156 318.645 397.355 329.401L514.842 329.261C515.366 325.758 515.122 322.183 514.127 318.784C513.131 315.385 511.408 312.244 509.077 309.577Z" fill="#8F90B6"/>
<path d="M449.939 118.201L472.557 126.001C477.547 131.124 474.193 138.356 469.976 141.135C471.515 141.877 472.779 143.088 473.584 144.595C474.39 146.101 474.696 147.825 474.458 149.517C474.22 151.208 473.451 152.781 472.261 154.006C471.071 155.232 469.522 156.048 467.838 156.336C468.401 157.18 468.779 158.132 468.948 159.131C469.117 160.13 469.074 161.154 468.821 162.135C468.569 163.116 468.112 164.033 467.481 164.826C466.849 165.619 466.058 166.27 465.159 166.736C464.259 167.203 463.271 167.475 462.259 167.534C461.248 167.593 460.235 167.438 459.287 167.079C458.339 166.72 457.478 166.166 456.759 165.451C456.04 164.737 455.48 163.88 455.114 162.934C454.163 160.435 454.613 157.487 453.271 155.179C452.003 153.019 449.504 151.98 447.462 150.52C442.405 146.908 440.09 140.199 440.827 134.029C441.565 127.858 445.229 122.278 449.939 118.201Z" fill="#8F90B6"/>
<path d="M464.3 123.324C465.168 125.556 465.584 127.94 465.524 130.334C465.512 130.674 465.394 131.002 465.186 131.272C464.978 131.541 464.691 131.738 464.365 131.835C464.039 131.932 463.691 131.924 463.369 131.812C463.048 131.7 462.77 131.49 462.575 131.212C462.671 134.139 462.575 137.07 462.287 139.984C462.25 140.395 462.087 140.783 461.821 141.097C461.554 141.411 461.197 141.635 460.799 141.739C460.4 141.842 459.979 141.819 459.594 141.674C459.208 141.529 458.877 141.269 458.645 140.928C454.45 134.811 452.617 127.38 453.485 120.014L464.3 123.324Z" fill="#787993"/>
<path d="M441.867 96.0547L441.741 96.1505C438.224 98.976 435.387 102.555 433.438 106.625C431.49 110.694 430.48 115.148 430.484 119.66V125.388L441.859 117.478L441.867 96.0547Z" fill="#787993"/>
<path d="M474.363 96.0117L474.489 96.1076C477.958 98.8926 480.757 102.421 482.68 106.433C484.602 110.444 485.6 114.836 485.598 119.285V124.939L474.363 117.147V96.0117Z" fill="#787993"/>
<path d="M458.093 39.9395C460.666 39.9395 465.398 46.5742 469.792 57.6986C472.395 64.2406 473.936 71.1569 474.355 78.1853V126H441.882V82.6085C441.859 78.3751 442.239 74.1491 443.017 69.9877C443.816 65.8005 444.947 61.6837 446.401 57.6765C450.522 46.5448 455.55 39.9837 458.093 39.9395Z" fill="#55566D"/>
<path d="M442.206 118.245C442.206 118.296 449.408 118.37 458.292 118.421C467.175 118.473 474.377 118.466 474.377 118.421C474.377 118.377 467.175 118.296 458.292 118.252C449.408 118.208 442.206 118.2 442.206 118.245Z" fill="#787993"/>
<path d="M442.347 119.696C442.347 119.741 449.549 119.822 458.432 119.866C467.316 119.91 474.518 119.918 474.518 119.866C474.518 119.814 467.323 119.741 458.432 119.689C449.542 119.637 442.347 119.652 442.347 119.696Z" fill="#787993"/>
<path d="M442.324 121.223C442.324 121.275 449.527 121.348 458.41 121.4C467.293 121.452 474.496 121.444 474.496 121.4C474.496 121.356 467.293 121.275 458.41 121.23C449.527 121.186 442.324 121.179 442.324 121.223Z" fill="#787993"/>
<path d="M442.28 122.755C442.28 122.8 449.483 122.881 458.359 122.925C467.234 122.969 474.452 122.977 474.452 122.925C474.452 122.873 467.249 122.807 458.366 122.755C449.483 122.704 442.28 122.704 442.28 122.755Z" fill="#787993"/>
<path d="M442.28 124.282C442.28 124.334 449.483 124.407 458.366 124.459C467.249 124.511 474.452 124.503 474.452 124.459C474.452 124.415 467.257 124.334 458.366 124.282C449.475 124.23 442.28 124.238 442.28 124.282Z" fill="#787993"/>
<path d="M458.048 96.084C458.044 96.1577 458.044 96.2315 458.048 96.3051C458.021 96.5204 458.007 96.737 458.004 96.9539C458.004 97.5141 458.004 98.3324 458.004 99.335C458.004 101.348 458.004 104.127 458.004 107.194C458.004 110.26 458.085 113.047 458.129 115.052C458.129 116.047 458.173 116.858 458.188 117.441C458.188 117.706 458.188 117.92 458.188 118.082C458.179 118.158 458.179 118.235 458.188 118.311C458.194 118.234 458.194 118.158 458.188 118.082C458.188 117.92 458.188 117.706 458.188 117.433C458.188 116.851 458.188 116.047 458.188 115.052C458.188 113.025 458.144 110.253 458.122 107.194C458.1 104.134 458.063 101.362 458.041 99.335C458.041 98.3472 458.041 97.5363 458.041 96.9539C458.041 96.6737 458.041 96.4526 458.041 96.3051C458.053 96.232 458.055 96.1577 458.048 96.084Z" fill="#787993"/>
<path d="M441.867 96.0557C441.867 96.0999 449.077 96.1442 457.975 96.1442C466.873 96.1442 474.09 96.1073 474.09 96.0631C474.09 96.0188 466.873 95.9746 457.975 95.9746C449.077 95.9746 441.867 96.0115 441.867 96.0557Z" fill="#787993"/>
<path d="M455.454 111.854C455.454 111.854 455.402 111.78 455.255 111.706C455.045 111.616 454.811 111.6 454.592 111.662C454.419 111.698 454.259 111.78 454.129 111.899C453.999 112.019 453.904 112.171 453.854 112.34C453.788 112.545 453.786 112.766 453.849 112.972C453.912 113.178 454.037 113.359 454.207 113.492C454.377 113.624 454.584 113.7 454.799 113.711C455.015 113.721 455.228 113.665 455.41 113.549C455.561 113.462 455.685 113.336 455.771 113.185C455.857 113.033 455.9 112.861 455.896 112.687C455.896 112.458 455.821 112.235 455.683 112.053C455.587 111.928 455.506 111.891 455.498 111.898C455.491 111.905 455.55 111.964 455.631 112.09C455.734 112.271 455.783 112.478 455.771 112.687C455.769 112.837 455.728 112.984 455.652 113.113C455.575 113.243 455.467 113.35 455.336 113.424C455.18 113.52 454.998 113.566 454.815 113.555C454.632 113.545 454.456 113.478 454.312 113.365C454.167 113.252 454.061 113.098 454.007 112.922C453.953 112.747 453.954 112.559 454.009 112.385C454.049 112.242 454.124 112.112 454.229 112.007C454.334 111.903 454.464 111.827 454.606 111.787C454.805 111.724 455.019 111.724 455.218 111.787C455.373 111.817 455.447 111.861 455.454 111.854Z" fill="#787993"/>
<path d="M455.277 102.645C455.277 102.645 455.225 102.572 455.078 102.505C454.868 102.416 454.635 102.398 454.414 102.454C454.242 102.49 454.082 102.572 453.953 102.692C453.823 102.811 453.728 102.963 453.677 103.132C453.615 103.338 453.615 103.557 453.677 103.763C453.739 103.968 453.859 104.151 454.024 104.289C454.197 104.413 454.403 104.485 454.616 104.495C454.829 104.506 455.04 104.455 455.225 104.348C455.344 104.273 455.446 104.174 455.524 104.057C455.603 103.94 455.657 103.809 455.682 103.67C455.708 103.532 455.705 103.39 455.673 103.253C455.641 103.116 455.582 102.987 455.498 102.874C455.402 102.749 455.321 102.704 455.314 102.712C455.306 102.719 455.373 102.785 455.446 102.911C455.55 103.089 455.599 103.294 455.586 103.501C455.587 103.651 455.546 103.799 455.47 103.929C455.393 104.058 455.283 104.165 455.152 104.238C454.996 104.332 454.815 104.378 454.633 104.367C454.451 104.357 454.276 104.291 454.132 104.179C453.988 104.067 453.882 103.914 453.827 103.74C453.772 103.566 453.771 103.38 453.825 103.206C453.863 103.062 453.939 102.931 454.044 102.825C454.148 102.719 454.278 102.642 454.422 102.601C454.622 102.546 454.833 102.546 455.034 102.601C455.196 102.572 455.27 102.645 455.277 102.645Z" fill="#787993"/>
<path d="M457.222 145.537C457.599 145.783 457.865 146.167 457.962 146.606C458.058 147.045 457.979 147.505 457.74 147.887C457.501 148.268 457.123 148.541 456.685 148.646C456.247 148.751 455.786 148.68 455.4 148.448C455.014 148.217 454.735 147.843 454.622 147.408C454.508 146.972 454.571 146.51 454.795 146.12C455.019 145.729 455.387 145.443 455.821 145.321C456.254 145.2 456.718 145.254 457.112 145.47" fill="#787993"/>
<path d="M450.735 67.5692C449.776 69.0146 449.266 70.7121 449.272 72.447C449.277 74.1819 449.796 75.8763 450.764 77.3161C451.732 78.7558 453.105 79.8762 454.71 80.5355C456.315 81.1949 458.079 81.3636 459.78 81.0204C461.48 80.6772 463.041 79.8374 464.264 78.6073C465.488 77.3772 466.319 75.8119 466.653 74.1094C466.987 72.407 466.808 70.6437 466.14 69.0426C465.472 67.4415 464.344 66.0745 462.899 65.1143C461.939 64.4766 460.863 64.0342 459.732 63.8124C458.602 63.5907 457.438 63.5938 456.309 63.8218C455.179 64.0498 454.105 64.4981 453.149 65.1411C452.193 65.784 451.373 66.6091 450.735 67.5692Z" fill="#8486A6"/>
<path d="M450.735 67.5706C451.196 67.0167 451.688 66.4899 452.21 65.993C453.678 64.6855 455.541 63.9069 457.503 63.7814C458.941 63.6957 460.377 63.972 461.68 64.585C462.984 65.1981 464.112 66.1283 464.963 67.2905C465.974 68.6578 466.554 70.2953 466.629 71.9938C466.714 73.8175 466.215 75.6208 465.205 77.1415C464.195 78.6621 462.726 79.821 461.012 80.4495C460.204 80.7536 459.353 80.9277 458.491 80.9656C457.663 81.0193 456.833 80.9447 456.028 80.7444C454.53 80.3763 453.157 79.6125 452.055 78.5328C451.084 77.6053 450.346 76.4609 449.902 75.1933C449.248 73.3447 449.235 71.3295 449.865 69.4726C450.116 68.8 450.412 68.1449 450.75 67.5117C450.63 67.6564 450.524 67.8119 450.433 67.9761C450.304 68.1629 450.19 68.3602 450.094 68.5659C449.949 68.8408 449.826 69.1268 449.725 69.421C449.143 71.0161 449.033 72.7449 449.407 74.4011C449.78 76.0573 450.623 77.571 451.834 78.7613C452.976 79.8791 454.396 80.6707 455.947 81.054C457.658 81.474 459.455 81.3739 461.108 80.7665C462.913 80.1242 464.462 78.9161 465.525 77.322C466.587 75.728 467.107 73.8333 467.005 71.9201C466.916 70.1524 466.308 68.4501 465.258 67.0251C464.308 65.7483 463.036 64.7461 461.572 64.1206C460.006 63.4676 458.285 63.2789 456.615 63.577C454.944 63.875 453.395 64.6471 452.151 65.8014C451.919 66.0101 451.705 66.2369 451.509 66.4796C451.355 66.6473 451.214 66.8273 451.089 67.0177C450.946 67.1848 450.827 67.3709 450.735 67.5706Z" fill="#787993"/>
<path d="M458.092 39.9395C460.665 39.9395 465.398 46.5742 469.792 57.6986H446.4C450.521 46.5448 455.549 39.9837 458.092 39.9395Z" fill="#787993"/>
<path d="M458.093 39.939L457.636 39.9906C457.206 40.1176 456.8 40.3144 456.434 40.573C455.07 41.6316 453.892 42.9096 452.947 44.3548C450.367 48.0408 447.374 53.9384 444.949 61.679C443.655 65.945 442.723 70.3123 442.162 74.7348C441.872 77.2137 441.719 79.7068 441.705 82.2026C441.705 84.7755 441.705 87.4294 441.705 90.157C441.705 101.068 441.705 113.165 441.705 126.014V126.236H474.584V126.051C474.584 113.194 474.584 101.097 474.54 90.1865C474.54 87.4589 474.54 84.8049 474.54 82.2321C474.54 80.942 474.54 79.674 474.54 78.4282C474.54 77.1823 474.385 75.9512 474.245 74.7422C473.704 70.3166 472.744 65.9524 471.377 61.7085C470.221 58.2491 468.842 54.8681 467.249 51.5868C466.073 49.0943 464.71 46.694 463.172 44.4064C462.241 42.954 461.084 41.6598 459.744 40.573C459.486 40.4256 459.28 40.2707 459.074 40.1823C458.901 40.1042 458.724 40.0377 458.543 39.9832L458.093 39.9316C458.093 39.9316 458.24 39.9316 458.535 40.0201C458.712 40.0779 458.884 40.1469 459.051 40.2265C459.276 40.3475 459.493 40.4829 459.7 40.632C461.015 41.7335 462.15 43.0345 463.062 44.4875C464.563 46.7648 465.894 49.15 467.043 51.6236C468.612 54.908 469.971 58.2887 471.112 61.7454C472.454 65.9749 473.394 70.3215 473.921 74.7274C474.061 75.9217 474.179 77.1455 474.201 78.4134V82.21C474.201 84.7804 474.201 87.4318 474.201 90.1644C474.201 101.082 474.201 113.172 474.201 126.029L474.393 125.837H441.882L442.066 126.029C442.066 113.18 442.066 101.082 442.029 90.1718C442.029 87.4441 442.029 84.7902 442.029 82.2174C442.037 79.7318 442.182 77.2485 442.464 74.779C443.007 70.373 443.92 66.0205 445.192 61.7675C447.573 53.99 450.529 48.0924 453.058 44.4064C453.986 42.9626 455.138 41.676 456.471 40.5951C456.829 40.3364 457.224 40.1349 457.643 39.998L458.093 39.939Z" fill="#787993"/>
<path d="M453.249 76.9033C453.738 76.5682 454.183 76.1746 454.576 75.7311C455.35 74.9939 456.382 73.8586 457.525 72.6275L460.356 69.4502C460.775 69.0357 461.152 68.5814 461.484 68.0938C460.998 68.4297 460.555 68.8233 460.164 69.2659C459.383 70.0031 458.35 71.131 457.215 72.3695L454.384 75.5468C453.963 75.9616 453.583 76.4158 453.249 76.9033Z" fill="#787993"/>
<path d="M455.83 76.9172C456.854 76.1255 457.8 75.2367 458.654 74.2632C459.598 73.3683 460.45 72.3804 461.197 71.3145C460.173 72.1068 459.228 72.9955 458.373 73.9684C457.43 74.8643 456.578 75.8521 455.83 76.9172Z" fill="#787993"/>
<path d="M506.062 329.555C506.062 329.666 393.661 329.754 255.046 329.754C116.43 329.754 4 329.702 4 329.555C4 329.407 116.379 329.363 255.046 329.363C393.713 329.363 506.062 329.452 506.062 329.555Z" fill="#263238"/>
<path d="M477.429 158.945H450.455C446.436 158.945 443.179 162.203 443.179 166.221V193.196C443.179 197.214 446.436 200.472 450.455 200.472H477.429C481.448 200.472 484.705 197.214 484.705 193.196V166.221C484.705 162.203 481.448 158.945 477.429 158.945Z" fill="#263238"/>
<path d="M471.34 158.945H444.366C440.347 158.945 437.09 162.203 437.09 166.221V193.196C437.09 197.214 440.347 200.472 444.366 200.472H471.34C475.359 200.472 478.616 197.214 478.616 193.196V166.221C478.616 162.203 475.359 158.945 471.34 158.945Z" fill="#455A64"/>
<path d="M445.147 179.462L449.099 175.511L456.714 182.285L469.438 169.51L473.109 173.461L456.154 189.901L445.147 179.462Z" fill="#8486A6"/>
<path d="M458.174 284.58C459.18 285.061 460.078 285.74 460.817 286.576C461.555 287.412 462.118 288.388 462.472 289.445C463.161 291.57 463.355 293.824 463.039 296.036C462.553 300.312 460.127 304.632 457.51 308.052C453.905 304.904 453.087 299.427 452.829 296.618C452.446 292.195 454.436 283.924 458.174 284.58Z" fill="#55566D"/>
<path d="M461.689 315.107C461.446 313.884 461.529 312.619 461.93 311.438C462.331 310.258 463.037 309.204 463.975 308.383C464.929 307.582 466.033 306.978 467.223 306.607C468.412 306.237 469.664 306.106 470.904 306.223C471.486 306.211 472.062 306.326 472.594 306.562C473.125 306.798 473.598 307.148 473.979 307.587C474.259 308.048 474.411 308.575 474.419 309.115C474.426 309.654 474.29 310.185 474.023 310.654C473.474 311.576 472.694 312.338 471.76 312.866C468.634 314.819 465.258 316.146 461.726 315.077" fill="#55566D"/>
<path d="M457.075 328.23C457.092 327.935 457.134 327.641 457.201 327.353C457.318 326.734 457.466 325.937 457.635 324.979C458.04 322.332 458.869 319.768 460.09 317.386C461.358 315.008 463.239 313.012 465.538 311.606C466.234 311.191 466.976 310.859 467.75 310.618C468.023 310.53 468.244 310.493 468.384 310.456C468.46 310.444 468.537 310.444 468.612 310.456C467.586 310.812 466.599 311.268 465.664 311.82C463.446 313.261 461.628 315.239 460.378 317.57C459.176 319.926 458.331 322.448 457.871 325.053C457.65 326.048 457.473 326.851 457.341 327.404C457.277 327.687 457.188 327.963 457.075 328.23Z" fill="#263238"/>
<path d="M457.208 291.008C457.243 291.132 457.258 291.262 457.252 291.391C457.252 291.671 457.296 292.04 457.318 292.49C457.37 293.448 457.429 294.834 457.48 296.544C457.591 299.972 457.679 304.712 457.657 309.939C457.635 315.166 457.51 319.913 457.37 323.334C457.296 325.052 457.23 326.438 457.171 327.389C457.171 327.846 457.112 328.207 457.097 328.494C457.097 328.624 457.079 328.753 457.045 328.878C457.034 328.75 457.034 328.622 457.045 328.494C457.045 328.207 457.045 327.838 457.045 327.389C457.045 326.393 457.104 325.015 457.149 323.327C457.23 319.906 457.326 315.173 457.348 309.939C457.37 304.705 457.348 299.98 457.259 296.552C457.259 294.871 457.215 293.492 457.2 292.497C457.2 292.04 457.2 291.679 457.2 291.391C457.192 291.263 457.194 291.135 457.208 291.008Z" fill="#263238"/>
<path d="M455.461 317.711C455.026 315.119 453.981 312.669 452.41 310.562C450.84 308.456 448.79 306.754 446.43 305.598C445.228 305.023 443.658 304.64 442.67 305.539C441.682 306.439 441.933 308.046 442.383 309.292C443.441 311.874 445.24 314.085 447.553 315.646C449.866 317.207 452.589 318.049 455.38 318.064" fill="#55566D"/>
<path d="M447.012 309.652C447.268 309.739 447.515 309.85 447.75 309.984C448.046 310.121 448.334 310.276 448.612 310.449C448.99 310.658 449.356 310.887 449.71 311.134C450.148 311.427 450.569 311.745 450.971 312.085C451.439 312.461 451.885 312.865 452.305 313.294C453.274 314.286 454.127 315.384 454.849 316.567C455.552 317.762 456.116 319.033 456.53 320.356C456.702 320.933 456.842 321.519 456.95 322.111C457.056 322.627 457.127 323.149 457.164 323.674C457.23 324.153 457.208 324.588 457.23 324.971C457.25 325.295 457.25 325.62 457.23 325.944C457.224 326.224 457.191 326.503 457.134 326.777C457.06 326.777 457.186 325.583 456.979 323.696C456.913 323.224 456.854 322.708 456.729 322.163C456.61 321.58 456.46 321.004 456.279 320.438C455.86 319.152 455.301 317.916 454.613 316.752C453.904 315.589 453.071 314.506 452.128 313.523C451.719 313.091 451.285 312.683 450.831 312.299C450.444 311.957 450.037 311.637 449.615 311.341C448.067 310.205 446.983 309.711 447.012 309.652Z" fill="#263238"/>
<path d="M129.487 144.791H52.4199V329.607H129.487V144.791Z" fill="#787993"/>
<path d="M90.953 144.791H30.0234V329.607H90.953V144.791Z" fill="#55566D"/>
<path d="M91.0413 329.468C90.9381 329.468 90.8496 288.082 90.8496 237.031C90.8496 185.98 90.9381 144.586 91.0413 144.586C91.1445 144.586 91.233 185.972 91.233 237.031C91.233 288.089 91.1519 329.468 91.0413 329.468Z" fill="#263238"/>
<path d="M120.53 166.023H102.07V167.925H120.53V166.023Z" fill="#263238"/>
<path d="M120.53 171.463H102.07V173.365H120.53V171.463Z" fill="#263238"/>
<path d="M120.53 176.912H102.07V178.814H120.53V176.912Z" fill="#263238"/>
<path d="M85.063 152.65H36.3193V323.74H85.063V152.65Z" fill="#787993"/>
<path d="M80.2051 158.953H39.8213V165.072H80.2051V158.953Z" fill="#8F90B6"/>
<path d="M45.94 158.953H39.8213V165.072H45.94V158.953Z" fill="#55566D"/>
<path d="M81.4583 158.953H68.1592V165.072H81.4583V158.953Z" fill="#55566D"/>
<path d="M80.2051 169.842H39.8213V175.961H80.2051V169.842Z" fill="#8F90B6"/>
<path d="M45.94 169.842H39.8213V175.961H45.94V169.842Z" fill="#8486A6"/>
<path d="M81.4583 169.842H68.1592V175.961H81.4583V169.842Z" fill="#55566D"/>
<path d="M80.2051 180.738H39.8213V186.857H80.2051V180.738Z" fill="#8F90B6"/>
<path d="M45.94 180.738H39.8213V186.857H45.94V180.738Z" fill="#55566D"/>
<path d="M81.4583 180.738H68.1592V186.857H81.4583V180.738Z" fill="#55566D"/>
<path d="M80.2051 191.633H39.8213V197.752H80.2051V191.633Z" fill="#8F90B6"/>
<path d="M45.94 191.633H39.8213V197.752H45.94V191.633Z" fill="#8486A6"/>
<path d="M81.4583 191.633H68.1592V197.752H81.4583V191.633Z" fill="#55566D"/>
<path d="M80.2051 202.521H39.8213V208.64H80.2051V202.521Z" fill="#8F90B6"/>
<path d="M45.94 202.521H39.8213V208.64H45.94V202.521Z" fill="#55566D"/>
<path d="M81.4583 202.521H68.1592V208.64H81.4583V202.521Z" fill="#55566D"/>
<path d="M80.2051 213.418H39.8213V219.537H80.2051V213.418Z" fill="#8F90B6"/>
<path d="M45.94 213.418H39.8213V219.537H45.94V213.418Z" fill="#55566D"/>
<path d="M81.4583 213.418H68.1592V219.537H81.4583V213.418Z" fill="#55566D"/>
<path d="M80.2051 224.314H39.8213V230.433H80.2051V224.314Z" fill="#8F90B6"/>
<path d="M45.94 224.314H39.8213V230.433H45.94V224.314Z" fill="#8486A6"/>
<path d="M81.4583 224.314H68.1592V230.433H81.4583V224.314Z" fill="#55566D"/>
<path d="M80.2051 235.201H39.8213V241.32H80.2051V235.201Z" fill="#8F90B6"/>
<path d="M45.94 235.201H39.8213V241.32H45.94V235.201Z" fill="#8486A6"/>
<path d="M81.4583 235.201H68.1592V241.32H81.4583V235.201Z" fill="#55566D"/>
<path d="M80.2051 246.098H39.8213V252.216H80.2051V246.098Z" fill="#8F90B6"/>
<path d="M45.94 246.098H39.8213V252.216H45.94V246.098Z" fill="#8486A6"/>
<path d="M81.4583 246.098H68.1592V252.216H81.4583V246.098Z" fill="#55566D"/>
<path d="M80.2051 256.994H39.8213V263.113H80.2051V256.994Z" fill="#8F90B6"/>
<path d="M45.94 256.994H39.8213V263.113H45.94V256.994Z" fill="#55566D"/>
<path d="M81.4583 256.994H68.1592V263.113H81.4583V256.994Z" fill="#55566D"/>
<path d="M80.2051 267.889H39.8213V274.007H80.2051V267.889Z" fill="#8F90B6"/>
<path d="M45.94 267.889H39.8213V274.007H45.94V267.889Z" fill="#8486A6"/>
<path d="M81.4583 267.889H68.1592V274.007H81.4583V267.889Z" fill="#55566D"/>
<path d="M80.2051 278.777H39.8213V284.896H80.2051V278.777Z" fill="#8F90B6"/>
<path d="M45.94 278.777H39.8213V284.896H45.94V278.777Z" fill="#55566D"/>
<path d="M81.4583 278.777H68.1592V284.896H81.4583V278.777Z" fill="#55566D"/>
<path d="M80.2051 289.674H39.8213V295.793H80.2051V289.674Z" fill="#8F90B6"/>
<path d="M45.94 289.674H39.8213V295.793H45.94V289.674Z" fill="#8486A6"/>
<path d="M81.4583 289.674H68.1592V295.793H81.4583V289.674Z" fill="#55566D"/>
<path d="M80.2051 300.57H39.8213V306.689H80.2051V300.57Z" fill="#8F90B6"/>
<path d="M45.94 300.57H39.8213V306.689H45.94V300.57Z" fill="#55566D"/>
<path d="M81.4583 300.57H68.1592V306.689H81.4583V300.57Z" fill="#55566D"/>
<path d="M80.2051 311.457H39.8213V317.576H80.2051V311.457Z" fill="#8F90B6"/>
<path d="M45.94 311.457H39.8213V317.576H45.94V311.457Z" fill="#8486A6"/>
<path d="M81.4583 311.457H68.1592V317.576H81.4583V311.457Z" fill="#55566D"/>
<path d="M129.487 329.608C129.487 327.964 129.413 252.865 129.31 144.792L129.487 144.969H30.0384L30.23 144.777C30.23 215.725 30.1932 280.599 30.1858 329.593L30.0384 329.446L129.501 329.593L30.0384 329.733H29.8909V329.586C29.8909 280.591 29.8909 215.718 29.8467 144.77V144.578H30.0531H129.501H129.678V144.755C129.678 198.836 129.619 245.058 129.597 277.768C129.523 310.396 129.487 328.789 129.487 329.608Z" fill="#263238"/>
<path d="M390.617 92.7012H125.343C123.148 92.7012 121.042 93.5734 119.489 95.126C117.937 96.6785 117.064 98.7843 117.064 100.98V288.354C117.064 290.55 117.937 292.655 119.489 294.208C121.042 295.76 123.148 296.633 125.343 296.633H227.158L222.219 329.364H296.034L291.891 296.633H390.617C392.813 296.633 394.918 295.76 396.471 294.208C398.023 292.655 398.896 290.55 398.896 288.354V100.98C398.896 99.8927 398.682 98.8162 398.266 97.8118C397.85 96.8074 397.24 95.8947 396.471 95.126C395.702 94.3572 394.79 93.7474 393.785 93.3314C392.781 92.9153 391.704 92.7012 390.617 92.7012Z" fill="#455A64"/>
<path d="M261.518 276.929C265.13 282.089 259.484 287.736 254.323 284.124C254.151 284.003 254.001 283.853 253.881 283.681C250.283 278.521 255.923 272.881 261.076 276.486C261.248 276.607 261.398 276.756 261.518 276.929Z" fill="#263238"/>
<path d="M131.631 99.8516H384.365C386.262 99.8516 388.081 100.605 389.422 101.946C390.763 103.287 391.516 105.106 391.516 107.002V262.352H124.48V107.002C124.48 105.106 125.234 103.287 126.575 101.946C127.916 100.605 129.735 99.8516 131.631 99.8516Z" fill="#263238"/>
<path d="M319.285 296.633C319.285 296.729 297.044 296.802 269.62 296.802C242.196 296.802 219.955 296.729 219.955 296.633C219.955 296.537 242.189 296.471 269.62 296.471C297.051 296.471 319.285 296.53 319.285 296.633Z" fill="#263238"/>
<path d="M170.762 112.688H151.3V116.794H170.762V112.688Z" fill="#455A64"/>
<path d="M161.031 131.088H151.3V135.194H161.031V131.088Z" fill="#55566D"/>
<path d="M172.332 140.34H158.628V144.446H172.332V140.34Z" fill="#455A64"/>
<path d="M182.491 140.34H174.507V144.446H182.491V140.34Z" fill="#455A64"/>
<path d="M254.088 140.34H237.663V144.446H254.088V140.34Z" fill="#455A64"/>
<path d="M302.08 149.355H274.339V153.462H302.08V149.355Z" fill="#455A64"/>
<path d="M344.874 140.34H331.553V144.446H344.874V140.34Z" fill="#455A64"/>
<path d="M375.748 140.34H348.958V144.446H375.748V140.34Z" fill="#455A64"/>
<path d="M172.332 149.355H158.628V153.462H172.332V149.355Z" fill="#FBBC04"/>
<path d="M163.906 158.35H150.201V162.456H163.906V158.35Z" fill="#55566D"/>
<path d="M163.913 167.35H157.507V171.456H163.913V167.35Z" fill="#455A64"/>
<path d="M187.408 186.297H181.009V190.403H187.408V186.297Z" fill="#455A64"/>
<path d="M281.592 220.531H269.082V224.637H281.592V220.531Z" fill="#455A64"/>
<path d="M351.479 220.531H320.834V224.637H351.479V220.531Z" fill="#455A64"/>
<path d="M234.493 211.545H221.982V215.651H234.493V211.545Z" fill="#787993"/>
<path d="M189.169 203.834H176.659V207.94H189.169V203.834Z" fill="#455A64"/>
<path d="M266.487 220.531H246.76V224.637H266.487V220.531Z" fill="#455A64"/>
<path d="M167.894 176.506H157.507V180.612H167.894V176.506Z" fill="#455A64"/>
<path d="M176.777 186.451H157.507V190.557H176.777V186.451Z" fill="#455A64"/>
<path d="M185.705 194.059H157.507V198.165H185.705V194.059Z" fill="#455A64"/>
<path d="M236.793 194.059H208.595V198.165H236.793V194.059Z" fill="#455A64"/>
<path d="M216.004 211.545H176.409V215.651H216.004V211.545Z" fill="#455A64"/>
<path d="M243.376 220.531H176.409V224.637H243.376V220.531Z" fill="#FBBC04"/>
<path d="M223.118 229.525H156.15V233.632H223.118V229.525Z" fill="#455A64"/>
<path d="M205.602 194.059H188.684V198.165H205.602V194.059Z" fill="#455A64"/>
<path d="M183.891 167.35H166.435V171.456H183.891V167.35Z" fill="#455A64"/>
<path d="M187.74 176.514H170.283V180.62H187.74V176.514Z" fill="#455A64"/>
<path d="M255.371 176.514H209.148V180.62H255.371V176.514Z" fill="#455A64"/>
<path d="M310.005 176.514H256.624V180.62H310.005V176.514Z" fill="#455A64"/>
<path d="M205.057 176.514H190.607V180.62H205.057V176.514Z" fill="#455A64"/>
<path d="M209.163 167.35H186.28V171.456H209.163V167.35Z" fill="#455A64"/>
<path d="M224.43 167.35H211.691V171.456H224.43V167.35Z" fill="#FBBC04"/>
<path d="M188.794 149.355H174.507V153.462H188.794V149.355Z" fill="#455A64"/>
<path d="M269.046 149.355H198.503V153.462H269.046V149.355Z" fill="#455A64"/>
<path d="M348.228 176.514H314.877V180.62H348.228V176.514Z" fill="#455A64"/>
<path d="M318.202 220.531H284.844V224.637H318.202V220.531Z" fill="#455A64"/>
<path d="M326.362 140.34H256.874V144.446H326.362V140.34Z" fill="#455A64"/>
<path d="M233.343 140.34H184.99V144.446H233.343V140.34Z" fill="#455A64"/>
<path d="M183.855 121.4H151.3V125.507H183.855V121.4Z" fill="#455A64"/>
<path d="M231.684 121.4H187.105V125.507H231.684V121.4Z" fill="#455A64"/>
<path d="M188.138 112.688H173.807V116.794H188.138V112.688Z" fill="#FBBC04"/>
<path d="M144.194 112.688H140.213V116.794H144.194V112.688Z" fill="#455A64"/>
<path d="M144.194 121.682H140.213V125.788H144.194V121.682Z" fill="#455A64"/>
<path d="M144.194 130.668H140.213V134.774H144.194V130.668Z" fill="#455A64"/>
<path d="M144.194 139.654H140.213V143.761H144.194V139.654Z" fill="#455A64"/>
<path d="M144.194 148.641H140.213V152.747H144.194V148.641Z" fill="#455A64"/>
<path d="M144.194 157.627H140.213V161.733H144.194V157.627Z" fill="#455A64"/>
<path d="M144.194 166.613H140.213V170.719H144.194V166.613Z" fill="#455A64"/>
<path d="M144.194 175.6H140.213V179.706H144.194V175.6Z" fill="#455A64"/>
<path d="M144.194 184.586H140.213V188.692H144.194V184.586Z" fill="#455A64"/>
<path d="M185.837 248.936H179.438V253.042H185.837V248.936Z" fill="#787993"/>
<path d="M175.547 248.936H156.276V253.042H175.547V248.936Z" fill="#55566D"/>
<path d="M144.194 248.479H140.213V252.585H144.194V248.479Z" fill="#455A64"/>
<path d="M144.194 193.572H140.213V197.678H144.194V193.572Z" fill="#455A64"/>
<path d="M144.194 202.559H140.213V206.665H144.194V202.559Z" fill="#455A64"/>
<path d="M144.194 211.545H140.213V215.651H144.194V211.545Z" fill="#455A64"/>
<path d="M144.194 220.531H140.213V224.637H144.194V220.531Z" fill="#455A64"/>
<path d="M144.194 229.525H140.213V233.632H144.194V229.525Z" fill="#455A64"/>
<path d="M175.671 238.977H156.15V243.083H175.671V238.977Z" fill="#FBBC04"/>
<path d="M223.604 238.977H179.438V243.083H223.604V238.977Z" fill="#455A64"/>
<path d="M144.194 238.977H140.213V243.083H144.194V238.977Z" fill="#455A64"/>
<path d="M251.456 121.371H237.125V125.477H251.456V121.371Z" fill="#FBBC04"/>
<g opacity="0.3">
<path d="M268.507 193.285H258.717V272.814H375.364L372.327 195.217L268.507 193.285Z" fill="black"/>
</g>
<path d="M382.95 181.527H266.229V265.303H382.95V181.527Z" fill="#787993"/>
<path d="M383.304 265.671H265.86V181.158H383.304V265.671ZM266.583 264.934H382.566V181.895H266.598L266.583 264.934Z" fill="#263238"/>
<path d="M307.262 190.477H288.39V194.457H307.262V190.477Z" fill="#455A64"/>
<path d="M297.826 208.316H288.39V212.297H297.826V208.316Z" fill="#55566D"/>
<path d="M308.781 217.289H295.489V221.27H308.781V217.289Z" fill="#455A64"/>
<path d="M318.637 217.289H310.896V221.27H318.637V217.289Z" fill="#455A64"/>
<path d="M308.781 226.039H295.489V230.02H308.781V226.039Z" fill="#455A64"/>
<path d="M300.62 234.76H287.328V238.741H300.62V234.76Z" fill="#55566D"/>
<path d="M300.612 243.48H294.405V247.461H300.612V243.48Z" fill="#455A64"/>
<path d="M304.483 252.363H294.405V256.344H304.483V252.363Z" fill="#455A64"/>
<path d="M319.993 243.48H303.067V247.461H319.993V243.48Z" fill="#455A64"/>
<path d="M323.724 252.371H306.798V256.352H323.724V252.371Z" fill="#455A64"/>
<path d="M364.513 252.371H344.49V256.352H364.513V252.371Z" fill="#455A64"/>
<path d="M340.517 252.371H326.51V256.352H340.517V252.371Z" fill="#455A64"/>
<path d="M344.505 243.48H322.315V247.461H344.505V243.48Z" fill="#455A64"/>
<path d="M359.309 243.48H346.953V247.461H359.309V243.48Z" fill="#8486A6"/>
<path d="M324.748 226.039H310.896V230.02H324.748V226.039Z" fill="#455A64"/>
<path d="M367.948 217.289H321.055V221.27H367.948V217.289Z" fill="#455A64"/>
<path d="M319.964 198.924H288.39V202.905H319.964V198.924Z" fill="#455A64"/>
<path d="M366.341 198.924H323.111V202.905H366.341V198.924Z" fill="#455A64"/>
<path d="M324.107 190.477H310.211V194.457H324.107V190.477Z" fill="#8486A6"/>
<path d="M281.489 190.477H277.634V194.457H281.489V190.477Z" fill="#455A64"/>
<path d="M281.489 199.189H277.634V203.17H281.489V199.189Z" fill="#455A64"/>
<path d="M281.489 207.91H277.634V211.891H281.489V207.91Z" fill="#455A64"/>
<path d="M281.489 216.625H277.634V220.606H281.489V216.625Z" fill="#455A64"/>
<path d="M281.489 225.338H277.634V229.319H281.489V225.338Z" fill="#455A64"/>
<path d="M281.489 234.053H277.634V238.034H281.489V234.053Z" fill="#455A64"/>
<path d="M281.489 242.773H277.634V246.754H281.489V242.773Z" fill="#455A64"/>
<path d="M281.489 251.486H277.634V255.467H281.489V251.486Z" fill="#455A64"/>
<g opacity="0.3">
<path d="M203.324 296.183C204.798 288.811 200.006 266.762 200.006 266.762L164.164 271.318L162.689 296.021L203.324 296.183Z" fill="black"/>
</g>
<path d="M157.721 266.762C157.721 266.762 159.298 296.08 152.723 306.165L197.36 307.263C197.36 307.263 200.825 290.138 200.036 266.762H157.721Z" fill="#55566D"/>
<path d="M199.889 272.438C199.889 272.541 190.593 272.629 179.137 272.629C167.681 272.629 158.385 272.541 158.385 272.438C158.385 272.335 167.673 272.246 179.137 272.246C190.6 272.246 199.889 272.335 199.889 272.438Z" fill="#263238"/>
<path d="M194.928 282.471C194.928 282.574 187.497 282.663 178.341 282.663C169.185 282.663 161.754 282.574 161.754 282.471C161.754 282.368 169.178 282.279 178.341 282.279C187.504 282.279 194.928 282.368 194.928 282.471Z" fill="#263238"/>
<path d="M195.318 287.949C195.318 288.053 187.895 288.141 178.732 288.141C169.568 288.141 162.145 288.053 162.145 287.949C162.145 287.846 169.568 287.758 178.724 287.758C187.88 287.758 195.318 287.846 195.318 287.949Z" fill="#263238"/>
<path d="M194.249 293.426C194.249 293.529 186.818 293.618 177.662 293.618C168.506 293.618 161.075 293.529 161.075 293.426C161.075 293.323 168.499 293.234 177.662 293.234C186.826 293.234 194.249 293.323 194.249 293.426Z" fill="#263238"/>
<g opacity="0.3">
<path d="M150.349 267.307C150.349 267.307 152.258 289.01 152.258 296.728H146.759L150.349 267.307Z" fill="black"/>
</g>
<path d="M137.16 267.307C137.16 267.307 138.738 296.632 132.162 306.71H146.862C146.862 306.71 151.086 290.683 150.349 267.307H137.16Z" fill="#787993"/>
<path d="M342.647 139.801L367.365 111.389L342.478 93.3132L362.006 81.8203C362.006 81.8203 392.637 100.435 392.231 111.611C391.87 121.784 353.255 147.52 353.255 147.52L342.647 139.801Z" fill="#A36957"/>
<path d="M323.259 204.38C320.323 209.198 316.29 213.254 311.489 216.218C306.688 219.182 301.255 220.97 295.632 221.436C290.009 221.903 284.355 221.034 279.131 218.902C273.908 216.769 269.262 213.432 265.572 209.164C261.882 204.895 259.253 199.815 257.898 194.338C256.544 188.861 256.502 183.141 257.777 177.645C259.052 172.149 261.607 167.031 265.234 162.709C268.862 158.388 273.459 154.984 278.651 152.776C285.632 149.807 293.375 149.13 300.765 150.844C308.155 152.558 314.809 156.574 319.77 162.313C324.731 168.052 327.742 175.218 328.369 182.778C328.996 190.338 327.207 197.902 323.259 204.38ZM264.143 168.345C259.997 175.145 258.416 183.202 259.686 191.064C260.956 198.926 264.992 206.076 271.067 211.225C277.142 216.374 284.857 219.184 292.821 219.148C300.785 219.111 308.473 216.231 314.502 211.027C320.53 205.823 324.501 198.636 325.698 190.763C326.896 182.89 325.242 174.848 321.035 168.086C316.827 161.325 310.343 156.288 302.75 153.885C295.157 151.482 286.956 151.871 279.624 154.98C273.198 157.697 267.785 162.358 264.143 168.308V168.345Z" fill="#55566D"/>
<g opacity="0.3">
<path d="M323.259 204.38C320.323 209.198 316.29 213.254 311.489 216.218C306.688 219.182 301.255 220.97 295.632 221.436C290.009 221.903 284.355 221.034 279.131 218.902C273.908 216.769 269.262 213.432 265.572 209.164C261.882 204.895 259.253 199.815 257.898 194.338C256.544 188.861 256.502 183.141 257.777 177.645C259.052 172.149 261.607 167.031 265.234 162.709C268.862 158.388 273.459 154.984 278.651 152.776C285.632 149.807 293.375 149.13 300.765 150.844C308.155 152.558 314.809 156.574 319.77 162.313C324.731 168.052 327.742 175.218 328.369 182.778C328.996 190.338 327.207 197.902 323.259 204.38ZM264.143 168.345C259.997 175.145 258.416 183.202 259.686 191.064C260.956 198.926 264.992 206.076 271.067 211.225C277.142 216.374 284.857 219.184 292.821 219.148C300.785 219.111 308.473 216.231 314.502 211.027C320.53 205.823 324.501 198.636 325.698 190.763C326.896 182.89 325.242 174.848 321.035 168.086C316.827 161.325 310.343 156.288 302.75 153.885C295.157 151.482 286.956 151.871 279.624 154.98C273.198 157.697 267.785 162.358 264.143 168.308V168.345Z" fill="black"/>
</g>
<path d="M321.807 202.772C318.871 207.59 314.838 211.647 310.037 214.611C305.236 217.575 299.802 219.363 294.179 219.829C288.557 220.295 282.903 219.427 277.679 217.294C272.456 215.161 267.81 211.825 264.12 207.556C260.43 203.288 257.801 198.208 256.446 192.731C255.091 187.254 255.05 181.534 256.325 176.037C257.6 170.541 260.155 165.424 263.782 161.102C267.41 156.78 272.007 153.377 277.199 151.168C284.18 148.199 291.923 147.523 299.313 149.237C306.702 150.951 313.357 154.967 318.318 160.706C323.279 166.445 326.29 173.611 326.917 181.171C327.544 188.731 325.755 196.294 321.807 202.772ZM262.691 166.738C258.549 173.537 256.972 181.593 258.244 189.452C259.516 197.311 263.554 204.458 269.629 209.604C275.705 214.749 283.418 217.556 291.38 217.517C299.342 217.478 307.027 214.597 313.053 209.392C319.078 204.188 323.046 197.002 324.241 189.131C325.437 181.26 323.782 173.22 319.574 166.461C315.366 159.702 308.882 154.669 301.291 152.268C293.7 149.866 285.501 150.256 278.172 153.365C271.739 156.093 266.325 160.77 262.691 166.738Z" fill="#55566D"/>
<path d="M373.912 136.911L375.312 139.123C376.573 141.069 375.032 144.209 372.275 145.485L325.515 174.118L321.15 167.734L366.731 135.82C369.68 133.564 372.29 134.405 373.912 136.911Z" fill="#55566D"/>
<path d="M292.688 154.361C292.492 154.38 292.294 154.38 292.098 154.361C291.715 154.361 291.147 154.309 290.417 154.361C288.357 154.448 286.315 154.782 284.335 155.356C282.967 155.756 281.627 156.248 280.325 156.83C278.838 157.502 277.4 158.275 276.02 159.145C274.493 160.098 273.046 161.173 271.692 162.359C270.229 163.625 268.884 165.022 267.675 166.532C266.476 168.047 265.427 169.674 264.542 171.39C263.744 173.005 263.083 174.685 262.566 176.41C261.707 179.345 261.297 182.392 261.35 185.448C261.377 187.508 261.624 189.56 262.087 191.567C262.219 192.304 262.418 192.82 262.5 193.204C262.564 193.388 262.608 193.578 262.632 193.771C262.551 193.595 262.482 193.412 262.426 193.226C262.323 192.85 262.101 192.319 261.939 191.604C261.414 189.595 261.119 187.532 261.062 185.456C260.97 182.368 261.358 179.284 262.212 176.315C262.723 174.562 263.387 172.857 264.195 171.221C265.086 169.476 266.148 167.824 267.365 166.289C268.59 164.762 269.952 163.35 271.434 162.072C272.815 160.868 274.294 159.783 275.858 158.828C277.254 157.955 278.712 157.186 280.222 156.528C281.543 155.966 282.9 155.493 284.284 155.113C286.283 154.566 288.344 154.276 290.417 154.25C290.983 154.241 291.549 154.261 292.113 154.309C292.306 154.311 292.498 154.328 292.688 154.361Z" fill="#8486A6"/>
<path d="M320.642 192.665C320.554 192.665 321.217 191.028 321.681 188.279C321.733 187.932 321.792 187.541 321.844 187.202C321.895 186.863 321.91 186.428 321.954 186.023C322.043 185.212 322.028 184.335 322.043 183.413C321.975 179.414 321.047 175.477 319.322 171.868C318.902 171.05 318.526 170.261 318.084 169.576C317.87 169.229 317.678 168.883 317.465 168.566C317.251 168.249 317.037 167.961 316.838 167.674C315.194 165.425 313.889 164.275 313.948 164.209C314.269 164.458 314.572 164.729 314.855 165.02C315.209 165.339 315.539 165.684 315.843 166.052C316.275 166.519 316.679 167.011 317.052 167.526C317.266 167.807 317.479 168.101 317.708 168.411C317.936 168.721 318.128 169.067 318.357 169.421C318.826 170.165 319.257 170.933 319.647 171.721C320.516 173.547 321.198 175.456 321.681 177.42C322.135 179.389 322.382 181.4 322.419 183.42C322.419 184.349 322.419 185.234 322.293 186.06C322.249 186.465 322.227 186.87 322.161 187.246C322.094 187.622 322.028 187.984 321.969 188.33C321.858 188.954 321.716 189.572 321.541 190.181C321.431 190.645 321.288 191.1 321.114 191.544C320.989 191.931 320.831 192.305 320.642 192.665Z" fill="#8486A6"/>
<path d="M298.526 167.292C298.6 167.373 293.779 171.885 287.756 177.377C281.733 182.869 276.801 187.263 276.698 187.182C276.595 187.101 281.445 182.589 287.468 177.104C293.491 171.619 298.423 167.211 298.526 167.292Z" fill="#8486A6"/>
<path d="M307.697 173.107C307.591 173.225 307.475 173.334 307.35 173.432L306.318 174.316L302.5 177.538C299.271 180.251 294.818 184.011 289.967 188.22C285.116 192.429 280.73 196.285 277.582 199.086L273.837 202.404L272.813 203.296C272.699 203.406 272.573 203.503 272.437 203.583C272.534 203.459 272.643 203.343 272.761 203.237L273.741 202.293C274.597 201.475 275.842 200.317 277.427 198.887C280.538 196.034 284.873 192.142 289.746 187.925C294.619 183.708 299.101 179.993 302.382 177.332C304.018 175.997 305.33 174.928 306.281 174.206L307.358 173.373C307.46 173.271 307.573 173.182 307.697 173.107Z" fill="#8486A6"/>
<g opacity="0.3">
<path d="M262.897 200.892L312.076 158.459C312.076 158.459 316.934 162.145 318.998 165.507L268.67 208.802C266.257 206.56 264.297 203.874 262.897 200.892Z" fill="#8486A6"/>
</g>
<g opacity="0.3">
<path d="M274.059 212.784L321.977 171.044C321.977 171.044 322.212 170.653 322.869 173.654L276.41 214.089C275.537 213.838 274.733 213.392 274.059 212.784Z" fill="#8486A6"/>
</g>
<path d="M342.648 139.801C342.648 139.801 328.228 155.687 327.904 156.285C327.579 156.882 323.694 166.052 324.653 167.91C325.611 169.768 332.836 176.292 332.836 176.292C332.836 176.292 335.416 175.179 332.976 170.815L330.535 166.458L331.848 162.035C331.848 162.035 333.794 167.615 334.922 168.839C336.05 170.063 340.517 172.156 341.638 171.051C342.306 170.411 342.757 169.579 342.928 168.67C342.928 168.67 345.987 171.102 348.147 167.232C348.147 167.232 350.867 166.812 352.032 164.91C353.197 163.008 353.079 159.41 353.079 159.41C352.967 159.176 352.802 158.969 352.599 158.807C352.395 158.645 352.158 158.53 351.904 158.473C351.65 158.416 351.386 158.416 351.133 158.475C350.879 158.534 350.642 158.65 350.44 158.813C349.284 159.691 348.392 160.869 347.86 162.219L346.599 160.538C346.928 158.269 347.575 156.058 348.523 153.97C349.4 152.289 355.062 148.625 355.733 145.706C356.301 143.236 351.361 141.6 348.825 141.74C348.445 141.761 348.07 141.838 347.712 141.968L342.648 139.801Z" fill="#A36957"/>
<path d="M341.395 160.09C341.372 160.234 341.372 160.381 341.395 160.525C341.427 160.913 341.494 161.298 341.594 161.675C341.918 162.937 342.564 164.095 343.469 165.034C344.373 165.973 345.505 166.662 346.754 167.034C347.13 167.148 347.514 167.227 347.904 167.27C348.046 167.293 348.19 167.293 348.332 167.27C348.332 167.226 347.72 167.182 346.798 166.872C345.593 166.468 344.502 165.784 343.614 164.874C342.741 163.953 342.097 162.839 341.734 161.623C341.454 160.702 341.432 160.09 341.395 160.09Z" fill="#6F4439"/>
<path d="M336.543 159.609C336.527 159.761 336.527 159.915 336.543 160.066C336.552 160.247 336.571 160.427 336.602 160.605C336.627 160.853 336.666 161.099 336.72 161.342C336.857 161.948 337.042 162.542 337.273 163.119C337.855 164.532 338.723 165.81 339.824 166.871C340.277 167.308 340.77 167.7 341.298 168.043C341.512 168.198 341.726 168.308 341.903 168.419C342.08 168.53 342.249 168.603 342.382 168.662C342.517 168.738 342.661 168.797 342.81 168.839C342.81 168.802 342.235 168.53 341.387 167.918C340.887 167.562 340.419 167.165 339.986 166.731C339.458 166.201 338.979 165.623 338.556 165.006C338.094 164.356 337.685 163.671 337.332 162.956C337.136 162.42 336.988 161.868 336.89 161.305C336.624 160.258 336.588 159.602 336.543 159.609Z" fill="#6F4439"/>
<path d="M331.022 158.459C331.022 158.459 330.896 158.673 330.845 159.056C330.792 159.555 330.852 160.059 331.022 160.531C331.171 161.019 331.451 161.458 331.833 161.798C332.113 162.064 332.327 162.174 332.341 162.152C331.86 161.666 331.48 161.09 331.221 160.457C331.028 159.81 330.961 159.132 331.022 158.459Z" fill="#6F4439"/>
<path d="M380.753 109.701C380.753 109.76 379.964 109.229 378.593 108.735C376.813 108.089 374.897 107.909 373.027 108.212C371.164 108.55 369.443 109.432 368.08 110.748C367.019 111.743 366.495 112.495 366.437 112.458C366.515 112.254 366.627 112.065 366.768 111.898C367.106 111.42 367.483 110.971 367.896 110.556C369.253 109.118 371.036 108.153 372.983 107.806C374.916 107.491 376.899 107.718 378.711 108.463C379.257 108.681 379.781 108.952 380.274 109.273C380.591 109.531 380.768 109.679 380.753 109.701Z" fill="#6F4439"/>
<path d="M305.994 44.0095C305.994 39.1808 305.994 34.3227 305.153 29.5604C304.313 24.7981 302.654 20.1021 299.661 16.2908C299.204 15.7158 295.717 12.0077 295.046 12.2952C294.567 12.5089 297.162 16.1802 297.052 16.7184C295.99 21.5986 296.934 26.7516 298.85 31.3665C300.754 35.8355 303.15 40.0784 305.994 44.0168" fill="#263238"/>
<path d="M300.738 26.324C297.384 14.6763 287.815 6.92094 276.263 10.5996L275.216 10.9977C270.133 12.9494 265.971 16.7426 263.557 21.6231C261.144 26.5036 260.656 32.1137 262.19 37.3378C265.138 47.4153 268.559 58.5101 270.631 63.7295C274.936 74.5368 286.444 72.0599 286.444 72.0599L293.624 88.5731L316.477 76.859L300.738 26.324Z" fill="#A36957"/>
<path d="M286.495 72.1402C291.502 70.2076 295.851 66.882 299.028 62.5566C299.028 62.5566 299.352 72.7079 288.139 75.8926L286.495 72.1402Z" fill="#6F4439"/>
<path d="M269.93 47.1275C270.084 47.5297 270.389 47.8558 270.78 48.0362C271.171 48.2167 271.618 48.2371 272.024 48.0932C272.226 48.0335 272.415 47.9339 272.579 47.8001C272.743 47.6663 272.878 47.5012 272.977 47.3143C273.076 47.1275 273.136 46.9227 273.155 46.7121C273.174 46.5015 273.15 46.2893 273.085 46.088C272.925 45.691 272.618 45.3712 272.228 45.1953C271.838 45.0195 271.395 45.0012 270.991 45.1444C270.791 45.2043 270.605 45.3032 270.443 45.4354C270.281 45.5677 270.147 45.7307 270.048 45.915C269.949 46.0993 269.888 46.3014 269.868 46.5095C269.848 46.7176 269.869 46.9276 269.93 47.1275Z" fill="#263238"/>
<path d="M266.266 40.951C266.539 41.0837 267.379 39.7641 269.053 39.1227C270.726 38.4813 272.267 38.8573 272.363 38.5845C272.422 38.4592 272.083 38.1643 271.404 37.98C270.49 37.758 269.529 37.825 268.655 38.1717C267.786 38.499 267.044 39.0957 266.539 39.8746C266.17 40.4644 266.141 40.8994 266.266 40.951Z" fill="#263238"/>
<path d="M284.195 42.1216C284.345 42.528 284.648 42.8596 285.039 43.0456C285.431 43.2316 285.879 43.2571 286.289 43.1168C286.493 43.0572 286.682 42.9573 286.847 42.823C287.011 42.6887 287.147 42.5228 287.246 42.3351C287.345 42.1474 287.405 41.9418 287.423 41.7303C287.441 41.5189 287.416 41.306 287.35 41.1042C287.201 40.6978 286.898 40.3661 286.506 40.1802C286.115 39.9942 285.667 39.9687 285.257 40.109C285.054 40.1695 284.865 40.27 284.701 40.4044C284.537 40.5389 284.402 40.7047 284.303 40.8922C284.204 41.0796 284.144 41.2849 284.125 41.496C284.107 41.7071 284.131 41.9198 284.195 42.1216Z" fill="#263238"/>
<path d="M282.868 35.3557C283.141 35.4884 283.981 34.1614 285.655 33.5274C287.328 32.8934 288.862 33.262 288.965 32.9819C289.024 32.8639 288.685 32.5691 288.007 32.3848C287.093 32.1637 286.133 32.2281 285.257 32.5691C284.387 32.9014 283.644 33.4999 283.134 34.2794C282.78 34.8691 282.743 35.3041 282.868 35.3557Z" fill="#263238"/>
<path d="M281.806 50.4754C281.806 50.3722 280.671 50.5933 278.909 51.0209C278.467 51.1462 278.032 51.2126 277.847 50.9472C277.638 50.5225 277.569 50.0426 277.648 49.576C277.648 48.3965 277.648 47.1506 277.648 45.8531C277.648 40.56 277.434 36.2695 277.221 36.2695C277.007 36.2695 276.852 40.5674 276.874 45.8531C276.874 47.158 276.874 48.3965 276.918 49.5833C276.852 50.1991 277.001 50.8188 277.339 51.3379C277.459 51.4638 277.607 51.5609 277.77 51.6221C277.933 51.6834 278.108 51.7072 278.282 51.6917C278.534 51.6621 278.782 51.6027 279.019 51.5148C280.781 50.9619 281.836 50.5712 281.806 50.4754Z" fill="#263238"/>
<path d="M287.158 49.7444C286.878 49.8328 287.571 51.639 286.517 53.5188C285.462 55.3987 283.457 55.9442 283.568 56.2022C283.568 56.3276 284.136 56.3865 284.954 56.099C286.011 55.7096 286.9 54.9641 287.468 53.9906C288.006 53.0421 288.157 51.922 287.888 50.8649C287.652 50.054 287.276 49.6854 287.158 49.7444Z" fill="#263238"/>
<path d="M280.361 28.5512C280.701 28.9419 282.286 28.0868 284.335 27.5707C286.384 27.0547 288.168 26.981 288.272 26.4797C288.316 26.2364 287.874 25.9194 287.07 25.7425C286.011 25.5237 284.915 25.5566 283.871 25.8383C282.825 26.0962 281.856 26.6019 281.047 27.3127C280.435 27.8656 280.214 28.3669 280.361 28.5512Z" fill="#263238"/>
<path d="M264.828 35.1414C265.271 35.4068 266.266 34.5737 267.645 34.0282C269.023 33.4827 270.291 33.291 270.409 32.7971C270.453 32.5612 270.122 32.2516 269.473 32.0599C268.622 31.9006 267.743 31.9945 266.945 32.33C266.147 32.6655 265.465 33.2277 264.983 33.9471C264.615 34.559 264.615 35.0087 264.828 35.1414Z" fill="#263238"/>
<path d="M302.949 34.7052C303.104 34.5504 309.584 29.6333 312.172 37.1454C314.759 44.6574 306.724 45.7337 306.635 45.5199C306.547 45.3062 302.949 34.7052 302.949 34.7052Z" fill="#A36957"/>
<path d="M307.94 41.8799C307.94 41.8799 308.102 41.9242 308.36 41.9463C308.718 41.9733 309.073 41.8596 309.348 41.6293C310.034 41.0616 310.27 39.5725 309.835 38.2013C309.635 37.5545 309.298 36.9585 308.847 36.4541C308.694 36.2449 308.493 36.0759 308.26 35.9616C308.028 35.8474 307.771 35.7912 307.512 35.798C307.35 35.8159 307.198 35.8872 307.081 36.0006C306.964 36.114 306.887 36.2631 306.864 36.4247C306.864 36.6679 306.937 36.8006 306.901 36.8301C306.864 36.8596 306.694 36.7564 306.65 36.4247C306.623 36.2232 306.67 36.019 306.783 35.8496C306.935 35.622 307.171 35.4632 307.439 35.4073C307.768 35.3613 308.104 35.4008 308.414 35.5222C308.724 35.6436 308.997 35.8427 309.208 36.1003C309.757 36.6375 310.163 37.3042 310.387 38.0391C310.867 39.5651 310.587 41.2533 309.606 41.9463C309.425 42.0743 309.218 42.1599 309 42.1969C308.782 42.2339 308.558 42.2213 308.345 42.1601C308.014 42.0569 307.918 41.902 307.94 41.8799Z" fill="#6F4439"/>
<path d="M262.882 23.2058C261.408 22.9478 263.76 17.7579 266.296 15.3915C270.129 11.8013 276.616 8.20381 281.202 7.97527C286.709 7.70251 291.729 8.79357 295.798 12.5164C299.808 16.3513 302.722 21.1865 304.239 26.5232C304.844 28.1032 305.015 29.8163 304.733 31.4846C304.239 33.5045 302.581 35.2369 303.443 37.5075C303.613 37.9138 303.7 38.3498 303.7 38.7902C303.7 39.2306 303.613 39.6666 303.443 40.0729C302.558 42.0044 300.406 41.1935 299.167 40.0729C296.513 37.6844 295.135 34.2196 293.852 30.8874C292.938 28.521 292.009 26.0956 291.906 23.5597C291.854 22.1811 292.046 20.7952 291.906 19.4166C291.882 18.7244 291.708 18.0456 291.396 17.4271C291.084 16.8085 290.642 16.265 290.1 15.8338C289.838 15.671 289.562 15.5328 289.274 15.421C287.914 14.859 286.429 14.6693 284.971 14.8714C283.514 15.0735 282.136 15.6602 280.981 16.571C277.243 19.5198 270.756 24.1937 268.375 23.3975C264.954 22.2401 263.841 21.1122 263.841 21.1122L262.882 23.2058Z" fill="#263238"/>
<path d="M251.515 93.1219C251.515 93.1219 250.439 90.0846 254.088 86.0005C257.737 81.9164 286.658 73.8957 286.658 73.8957C286.658 73.8957 297.17 85.8015 306.267 77.6702C312.902 71.7726 313.123 65.875 313.123 65.875H339.294L342.559 92.7606L332.128 92.8196L251.515 93.1219Z" fill="#55566D"/>
<path d="M334.538 65.8681C334.538 65.8681 341.365 64.4896 347.601 67.3425C358.077 72.0975 376.278 87.2469 376.278 87.2469L354.162 105.419L338.829 92.8422L334.538 65.8681Z" fill="#55566D"/>
<path d="M344.048 97.1833C343.947 97.1463 343.85 97.0967 343.761 97.0358C343.584 96.9252 343.319 96.7631 343.024 96.5345C342.105 95.8978 341.235 95.193 340.421 94.4261C339.202 93.2939 338.103 92.039 337.141 90.6812C335.918 89.0256 335.084 87.1156 334.701 85.0932C333.963 80.8027 334.605 76.7333 335.991 74.2269C336.522 73.227 337.255 72.3484 338.143 71.6467C338.39 71.4666 338.648 71.304 338.917 71.1601C339.094 71.0569 339.198 71.0053 339.205 71.0201C339.212 71.0348 338.851 71.2854 338.232 71.7573C337.406 72.4855 336.726 73.3635 336.227 74.3448C334.944 76.8144 334.325 80.8101 335.077 85.0121C335.451 86.9809 336.254 88.8432 337.428 90.4674C338.363 91.8186 339.427 93.0754 340.606 94.2197C341.4 95.0026 342.236 95.7409 343.112 96.4313C343.437 96.6652 343.75 96.9162 344.048 97.1833Z" fill="#263238"/>
<path d="M338.806 92.7756C338.806 92.8788 320.789 93.041 298.563 93.1294C276.336 93.2179 258.312 93.2031 258.312 93.0926C258.312 92.982 276.329 92.8346 298.563 92.7461C320.797 92.6576 338.806 92.665 338.806 92.7756Z" fill="#263238"/>
<path d="M242.086 89.0969C242.138 89.2075 242.182 89.318 242.226 89.4286C242.408 89.952 242.517 90.4976 242.551 91.0505C242.548 91.3114 242.561 91.5723 242.588 91.8319C242.647 91.9896 242.718 92.1424 242.801 92.2889C243.125 93.3326 243.223 94.4334 243.089 95.5179C242.95 96.7015 243.158 97.8999 243.686 98.968C244.305 99.9853 245.743 100.582 246.723 99.9042C246.676 100.279 246.767 100.659 246.981 100.971C247.194 101.284 247.514 101.507 247.881 101.6C248.252 101.68 248.638 101.663 249 101.55C249.363 101.438 249.691 101.234 249.952 100.958C250.471 100.404 250.828 99.7183 250.984 98.9753C251 99.4193 251.186 99.8401 251.505 100.149C251.824 100.459 252.25 100.632 252.695 100.634C253.138 100.613 253.57 100.481 253.949 100.249C254.327 100.017 254.642 99.6928 254.862 99.3071C255.288 98.5275 255.539 97.6648 255.599 96.7785C255.716 95.639 255.895 94.5069 256.137 93.3874C256.137 93.3874 257.25 93.5717 257.759 93.6159H257.907C258.353 93.0598 258.711 92.4382 258.968 91.7729C259.705 90.2985 260.221 89.3844 260.76 88.0869C261.172 87.0991 261.43 86.1038 260.819 85.4625C259.344 83.907 256.454 87.0696 256.454 87.0696C256.041 85.9638 252.687 85.7868 252.031 87.2539C251.766 86.443 251.869 85.9785 251.213 85.433C250.892 85.1544 250.509 84.9552 250.097 84.8515C249.685 84.7478 249.254 84.7424 248.839 84.8359C248.42 84.9366 248.047 85.1752 247.779 85.5135C247.512 85.8517 247.366 86.2699 247.365 86.701C247.006 86.1487 246.489 85.7175 245.881 85.4637C245.274 85.2099 244.604 85.1452 243.959 85.2782C243.187 85.467 242.512 85.9343 242.064 86.5904C241.843 86.9129 241.68 87.2724 241.585 87.652C241.533 87.7936 241.505 87.9433 241.504 88.0943C241.516 88.1612 241.538 88.2259 241.57 88.286C241.762 88.5514 241.954 88.802 242.086 89.0969Z" fill="#A36957"/>
<path d="M238.54 86.9511C238.176 86.9105 237.807 86.9495 237.46 87.0653C237.112 87.1811 236.794 87.3711 236.527 87.622C235.992 88.4462 235.77 89.4347 235.901 90.4086C236.911 90.6003 237.434 90.6445 238.452 90.8362C238.665 90.873 238.842 90.8362 239.019 90.9468C239.484 91.2785 239.41 92.4212 239.594 92.9372C239.793 93.3935 240.159 93.7568 240.616 93.9527C241.074 94.1486 241.589 94.1624 242.056 93.9914C242.515 93.794 242.907 93.47 243.188 93.0574C243.469 92.6448 243.626 92.1607 243.641 91.6618C243.648 90.656 243.28 89.6836 242.609 88.9342C242.104 88.3408 241.482 87.8583 240.782 87.5171C240.082 87.1758 239.318 86.9831 238.54 86.9511Z" fill="#A36957"/>
<path d="M247.409 86.4282C247.6 86.4282 247.6 89.4728 247.409 93.2031C247.217 96.9333 246.907 99.9484 246.723 99.9411C246.539 99.9337 246.531 96.8964 246.723 93.1662C246.915 89.436 247.224 86.384 247.409 86.4282Z" fill="#6F4439"/>
<path d="M252.082 87.0332C252.267 87.0332 252.51 89.7903 252.215 93.1814C251.92 96.5726 251.213 99.256 251.036 99.2191C250.859 99.1822 251.249 96.4693 251.53 93.1225C251.81 89.7756 251.869 87.0406 252.082 87.0332Z" fill="#6F4439"/>
<path d="M256.624 87.6582C256.815 87.6582 256.897 89.9509 256.535 92.7375C256.174 95.5241 255.754 97.7284 255.577 97.7136C255.4 97.6989 255.503 95.4136 255.857 92.6491C256.211 89.8846 256.432 87.6508 256.624 87.6582Z" fill="#6F4439"/>
<path d="M240 87.4237C240 87.3426 240.487 87.232 241.187 87.5564C242.07 88.0087 242.74 88.7897 243.052 89.7311C243.38 90.6253 243.537 91.573 243.517 92.5251C243.435 93.3655 242.824 93.6088 242.779 93.4982C242.735 93.3876 243.059 93.1296 243.001 92.5104C242.877 91.6469 242.67 90.7975 242.381 89.9744C242.106 89.1734 241.591 88.4761 240.907 87.9766C240.42 87.608 239.993 87.5269 240 87.4237Z" fill="#6F4439"/>
<path d="M351.722 321.003C355.157 318.772 357.877 315.598 359.556 311.862C361.234 308.125 361.801 303.984 361.188 299.934L369.555 294.449L370.742 293.712L436.994 250.291C440.189 252.323 443.867 253.467 447.65 253.606C451.433 253.745 455.185 252.873 458.52 251.081C461.855 249.289 464.652 246.641 466.624 243.41C468.596 240.178 469.672 236.479 469.74 232.694L465.87 232.023L461.653 237.921L451.959 235.879L446.548 227.585L448.59 217.884L456.648 212.628L451.193 211.197C445.413 209.494 442.206 210.88 436.766 214.434C433.343 216.667 430.634 219.836 428.963 223.565C427.291 227.294 426.727 231.425 427.337 235.466L359.979 279.617L357.893 280.973L351.508 285.153C348.056 282.966 344.047 281.817 339.96 281.845C335.872 281.872 331.879 283.074 328.456 285.308C323.038 288.839 315.732 296.189 314.943 302.138L318.792 302.772L326.849 297.516L336.551 299.558L341.962 307.852L339.92 317.553L331.243 320.001L331.855 322.809C335.062 324.154 338.55 324.693 342.013 324.378C345.477 324.063 348.81 322.905 351.722 321.003Z" fill="#787993"/>
<g opacity="0.3">
<path d="M351.722 321.003C355.157 318.772 357.877 315.598 359.556 311.862C361.234 308.125 361.801 303.984 361.188 299.934L369.555 294.449L370.742 293.712L436.994 250.291C440.189 252.323 443.867 253.467 447.65 253.606C451.433 253.745 455.185 252.873 458.52 251.081C461.855 249.289 464.652 246.641 466.624 243.41C468.596 240.178 469.672 236.479 469.74 232.694L465.87 232.023L461.653 237.921L451.959 235.879L446.548 227.585L448.59 217.884L456.648 212.628L451.193 211.197C445.413 209.494 442.206 210.88 436.766 214.434C433.343 216.667 430.634 219.836 428.963 223.565C427.291 227.294 426.727 231.425 427.337 235.466L359.979 279.617L357.893 280.973L351.508 285.153C348.056 282.966 344.047 281.817 339.96 281.845C335.872 281.872 331.879 283.074 328.456 285.308C323.038 288.839 315.732 296.189 314.943 302.138L318.792 302.772L326.849 297.516L336.551 299.558L341.962 307.852L339.92 317.553L331.243 320.001L331.855 322.809C335.062 324.154 338.55 324.693 342.013 324.378C345.477 324.063 348.81 322.905 351.722 321.003Z" fill="black"/>
</g>
<path d="M347.873 320.37C351.303 318.135 354.016 314.959 355.688 311.223C357.36 307.486 357.921 303.347 357.302 299.301L365.677 293.809L366.856 293.071L433.108 249.643C436.304 251.682 439.986 252.831 443.774 252.972C447.562 253.113 451.32 252.241 454.658 250.445C457.997 248.65 460.796 245.996 462.767 242.758C464.737 239.52 465.808 235.814 465.869 232.024L457.76 237.287L448.066 235.245L442.655 226.945L444.697 217.25L452.762 211.987C449.271 210.522 445.454 210.013 441.701 210.513C437.949 211.012 434.397 212.502 431.412 214.829C428.426 217.157 426.114 220.237 424.714 223.754C423.313 227.271 422.875 231.097 423.443 234.84L356.086 278.998L354.029 280.31L347.645 284.498C344.449 282.473 340.772 281.335 336.991 281.201C333.211 281.067 329.462 281.942 326.131 283.735C322.801 285.529 320.007 288.177 318.038 291.408C316.069 294.638 314.996 298.334 314.928 302.117L322.993 296.853L332.687 298.895L338.098 307.196L336.056 316.89L328.013 322.176C331.219 323.52 334.706 324.058 338.168 323.743C341.63 323.428 344.962 322.27 347.873 320.37Z" fill="#787993"/>
<path d="M347.874 320.37C347.874 320.37 347.49 320.621 346.731 321.107C345.568 321.759 344.352 322.311 343.097 322.758C338.16 324.447 332.776 324.269 327.962 322.257L327.829 322.206L327.955 322.124L336.012 316.853L335.968 316.905C336.595 313.919 337.273 310.668 337.995 307.211V307.292C336.307 304.697 334.486 301.91 332.577 298.998L332.651 299.043L322.949 297.015H323.045L314.98 302.286L314.773 302.419V302.176C314.827 298.555 315.799 295.007 317.599 291.864C319.399 288.722 321.968 286.088 325.065 284.21C328.39 282.161 332.216 281.066 336.123 281.048C340.219 281.039 344.232 282.195 347.697 284.38H347.527L423.378 234.678L423.297 234.855C422.706 230.855 423.245 226.77 424.852 223.06C426.397 219.52 428.867 216.463 432.003 214.208C435.138 211.954 438.823 210.585 442.67 210.247C446.144 209.945 449.64 210.489 452.858 211.832L453.175 211.972L452.888 212.156L444.823 217.42L444.904 217.302C444.221 220.561 443.54 223.792 442.862 226.996V226.864L448.273 235.157L448.162 235.083L457.856 237.125H457.724L465.789 231.869L466.069 231.692V232.017C465.994 235.958 464.835 239.803 462.719 243.129C460.603 246.456 457.613 249.135 454.075 250.874C450.713 252.556 446.967 253.319 443.216 253.086C439.593 252.845 436.087 251.708 433.013 249.776H433.182L357.332 299.389V299.308C357.84 302.804 357.491 306.371 356.315 309.703C355.455 312.124 354.166 314.372 352.511 316.337C351.499 317.52 350.365 318.593 349.127 319.537C348.264 320.134 347.822 320.429 347.822 320.429L349.097 319.5C350.322 318.546 351.446 317.469 352.452 316.286C354.396 313.956 355.823 311.24 356.636 308.316C357.45 305.393 357.632 302.329 357.17 299.33V299.279H357.214L432.976 249.54L433.064 249.488L433.153 249.54C436.179 251.444 439.633 252.561 443.201 252.791C446.896 253.028 450.587 252.28 453.898 250.623C457.367 248.905 460.298 246.266 462.369 242.995C464.44 239.724 465.572 235.947 465.641 232.076L465.907 232.223L457.842 237.487L457.783 237.523H457.709L448.015 235.489H447.941V235.43L442.523 227.129L442.486 227.07V226.996C443.159 223.787 443.84 220.556 444.528 217.302V217.228L444.587 217.184L452.652 211.928V212.245C449.485 210.913 446.042 210.373 442.62 210.673C439.198 210.972 435.9 212.101 433.013 213.963C429.554 216.214 426.832 219.431 425.184 223.214C423.602 226.867 423.073 230.888 423.658 234.825V234.936L423.562 235.002L347.734 284.653L347.645 284.704L347.557 284.653C344.136 282.49 340.169 281.35 336.123 281.365C332.362 281.386 328.674 282.405 325.436 284.318C322.198 286.231 319.526 288.969 317.693 292.253C316.015 295.282 315.103 298.676 315.039 302.139L314.832 302.028L322.942 296.772H322.993L332.687 298.822H332.732V298.866L338.135 307.167V307.204V307.248C337.398 310.698 336.712 313.949 336.078 316.942V316.979L327.969 322.228V322.095C332.75 324.102 338.097 324.304 343.016 322.663C344.273 322.228 345.491 321.688 346.657 321.048L347.874 320.37Z" fill="#263238"/>
<path d="M430.123 246.679C430.123 246.679 429.938 246.583 429.643 246.369C429.227 246.052 428.831 245.71 428.457 245.344C425.97 242.919 424.278 239.795 423.606 236.387C423.5 235.877 423.431 235.359 423.399 234.839C423.371 234.651 423.371 234.46 423.399 234.271C423.458 234.271 423.554 235.068 423.856 236.336C424.257 237.982 424.867 239.57 425.67 241.061C426.476 242.548 427.467 243.928 428.619 245.167C429.533 246.111 430.16 246.627 430.123 246.679Z" fill="#263238"/>
<path d="M135.789 48.0938H82.8806C78.8621 48.0938 75.6045 51.3514 75.6045 55.3699V108.279C75.6045 112.297 78.8621 115.555 82.8806 115.555H135.789C139.808 115.555 143.066 112.297 143.066 108.279V55.3699C143.066 51.3514 139.808 48.0938 135.789 48.0938Z" fill="#55566D"/>
<g opacity="0.3">
<path d="M135.789 48.0938H82.8806C78.8621 48.0938 75.6045 51.3514 75.6045 55.3699V108.279C75.6045 112.297 78.8621 115.555 82.8806 115.555H135.789C139.808 115.555 143.066 112.297 143.066 108.279V55.3699C143.066 51.3514 139.808 48.0938 135.789 48.0938Z" fill="black"/>
</g>
<path d="M125.896 48.0938H72.9871C68.9686 48.0938 65.7109 51.3514 65.7109 55.3699V108.279C65.7109 112.297 68.9686 115.555 72.9871 115.555H125.896C129.914 115.555 133.172 112.297 133.172 108.279V55.3699C133.172 51.3514 129.914 48.0938 125.896 48.0938Z" fill="#55566D"/>
<path d="M89.9432 66.7896C91.335 65.944 92.8355 65.2918 94.4032 64.8508L95.3173 60.4276L102.778 60.2949L103.854 64.6739C105.436 65.0626 106.959 65.6627 108.381 66.4579L112.148 63.9809L117.522 69.1413L115.185 72.9969C116.024 74.3912 116.673 75.8911 117.116 77.4569L121.54 78.3784L121.672 85.8389L117.293 86.9152C116.903 88.4968 116.303 90.0192 115.509 91.4416L117.986 95.2087L112.826 100.575L108.97 98.2386C107.578 99.0829 106.077 99.7351 104.51 100.177L103.589 104.601L96.1283 104.733L95.0593 100.376C93.4787 99.9832 91.9568 99.3833 90.5329 98.5924L86.7658 101.062L81.399 95.9016L83.7359 92.0535C82.8916 90.6583 82.2394 89.1556 81.7971 87.586L77.3739 86.6719L77.2412 79.2115L81.6202 78.1351C82.0122 76.5541 82.6121 75.0321 83.4042 73.6087L80.9346 69.8416L86.095 64.4675L89.9505 66.8118L89.9432 66.7896ZM93.9167 76.7271C92.8162 77.866 92.0783 79.3057 91.7963 80.8641C91.5142 82.4225 91.7007 84.0295 92.3321 85.4819C92.9635 86.9343 94.0115 88.1668 95.3435 89.0235C96.6755 89.8802 98.2316 90.3226 99.8151 90.2947C101.399 90.2669 102.938 89.77 104.239 88.867C105.54 87.964 106.544 86.6954 107.124 85.2217C107.704 83.748 107.834 82.1355 107.497 80.588C107.161 79.0405 106.372 77.6276 105.233 76.528C103.705 75.0546 101.655 74.2479 99.5335 74.2852C97.4115 74.3226 95.3913 75.2009 93.9167 76.7271Z" fill="#8486A6"/>
<g opacity="0.3">
<path d="M118.015 48.0938L65.7109 89.8708V98.0021L128.078 48.0938H118.015Z" fill="#8486A6"/>
</g>
<g opacity="0.3">
<path d="M65.7776 107.483L133.172 55.2012V69.8788L72.8179 115.585C71.8867 115.584 70.9649 115.399 70.1055 115.041C69.2461 114.682 68.4662 114.157 67.8105 113.496C67.1548 112.835 66.6363 112.05 66.2849 111.188C65.9335 110.326 65.7561 109.402 65.7629 108.471L65.7776 107.483Z" fill="#8486A6"/>
</g>
</g>
<defs>
<filter id="filter0_d_776_1976" x="0" y="7.93555" width="527.111" height="341.818" filterUnits="userSpaceOnUse" color-interpolation-filters="sRGB">
<feFlood flood-opacity="0" result="BackgroundImageFix"/>
<feColorMatrix in="SourceAlpha" type="matrix" values="0 0 0 0 0 0 0 0 0 0 0 0 0 0 0 0 0 0 127 0" result="hardAlpha"/>
<feOffset dx="4" dy="12"/>
<feGaussianBlur stdDeviation="4"/>
<feComposite in2="hardAlpha" operator="out"/>
<feColorMatrix type="matrix" values="0 0 0 0 0 0 0 0 0 0 0 0 0 0 0 0 0 0 0.25 0"/>
<feBlend mode="normal" in2="BackgroundImageFix" result="effect1_dropShadow_776_1976"/>
<feBlend mode="normal" in="SourceGraphic" in2="effect1_dropShadow_776_1976" result="shape"/>
</filter>
</defs>
</svg>
