<svg width="528" height="401" viewBox="0 0 528 401" fill="none" xmlns="http://www.w3.org/2000/svg">
<g filter="url(#filter0_d_776_1444)">
<path d="M515.111 334.676H4V334.931H515.111V334.676Z" fill="#55566D"/>
<path d="M463.897 351.123H384.604V351.379H463.897V351.123Z" fill="#55566D"/>
<path d="M344.737 347.545H288.178V347.8H344.737V347.545Z" fill="#55566D"/>
<path d="M429.019 341.637H368.688V341.892H429.019V341.637Z" fill="#55566D"/>
<path d="M70.598 343.354H57.626V343.609H70.598V343.354Z" fill="#55566D"/>
<path d="M152.907 343.354H79.7061V343.609H152.907V343.354Z" fill="#55566D"/>
<path d="M228.889 347.668H181.008V347.924H228.889V347.668Z" fill="#55566D"/>
<path d="M246.267 289.084H48.8862C47.34 289.082 45.858 288.466 44.7655 287.371C43.6731 286.277 43.0596 284.794 43.0596 283.248V5.78578C43.073 4.24838 43.6925 2.77838 44.7835 1.69507C45.8745 0.611757 47.3488 0.00263364 48.8862 0H246.267C247.815 0 249.3 0.614956 250.394 1.70959C251.489 2.80421 252.104 4.28885 252.104 5.83689V283.248C252.104 284.796 251.489 286.28 250.394 287.375C249.3 288.469 247.815 289.084 246.267 289.084ZM48.8862 0.204445C47.4077 0.207153 45.9907 0.796378 44.9462 1.84279C43.9018 2.8892 43.3151 4.30729 43.3151 5.78578V283.248C43.3151 284.726 43.9018 286.144 44.9462 287.191C45.9907 288.237 47.4077 288.826 48.8862 288.829H246.267C247.747 288.826 249.165 288.237 250.211 287.191C251.257 286.145 251.846 284.727 251.848 283.248V5.78578C251.846 4.30635 251.257 2.88828 250.211 1.84216C249.165 0.796046 247.747 0.207147 246.267 0.204445H48.8862Z" fill="#55566D"/>
<path d="M467.383 289.084H269.992C268.445 289.082 266.962 288.466 265.868 287.372C264.774 286.278 264.158 284.795 264.155 283.248V5.78578C264.171 4.24745 264.793 2.77746 265.886 1.69443C266.978 0.6114 268.454 0.00260492 269.992 0H467.383C468.919 0.00532015 470.391 0.615632 471.479 1.69866C472.568 2.78168 473.186 4.25015 473.2 5.78578V283.248C473.2 284.792 472.588 286.274 471.497 287.368C470.407 288.462 468.928 289.079 467.383 289.084ZM269.992 0.204445C268.513 0.207147 267.095 0.796046 266.049 1.84216C265.002 2.88828 264.414 4.30635 264.411 5.78578V283.248C264.414 284.727 265.002 286.145 266.049 287.191C267.095 288.237 268.513 288.826 269.992 288.829H467.383C468.863 288.826 470.281 288.237 471.327 287.191C472.373 286.145 472.962 284.727 472.965 283.248V5.78578C472.962 4.30635 472.373 2.88828 471.327 1.84216C470.281 0.796046 468.863 0.207147 467.383 0.204445H269.992Z" fill="#55566D"/>
<path d="M434.417 100.781H186.231C179.276 100.781 173.638 106.42 173.638 113.375V266.279C173.638 273.234 179.276 278.873 186.231 278.873H434.417C441.372 278.873 447.011 273.234 447.011 266.279V113.375C447.011 106.42 441.372 100.781 434.417 100.781Z" fill="#686A87"/>
<path d="M446.878 271.757H443.668V270.735H446.816L446.878 271.757ZM440.519 271.757H437.422V270.735H440.489L440.519 271.757ZM434.233 271.757H431.084V270.735H434.233V271.757ZM427.936 271.757H424.788V270.735H427.936V271.757ZM421.639 271.757H418.501V270.735H421.639V271.757ZM415.352 271.757H412.204V270.735H415.352V271.757ZM409.056 271.757H405.917V270.735H409.056V271.757ZM402.769 271.757H399.6V270.735H402.748L402.769 271.757ZM396.472 271.757H393.334V270.735H396.472V271.757ZM390.185 271.757H387.037V270.735H390.185V271.757ZM383.888 271.757H380.75V270.735H383.888V271.757ZM377.602 271.757H374.453V270.735H377.602V271.757ZM371.305 271.757H368.167V270.735H371.305V271.757ZM365.018 271.757H361.87V270.735H365.018V271.757ZM358.721 271.757H355.583V270.735H358.711L358.721 271.757ZM352.435 271.757H349.286V270.735H352.435V271.757ZM346.138 271.757H343V270.735H346.138V271.757ZM339.851 271.757H336.703V270.735H339.851V271.757ZM333.554 271.757H330.416V270.735H333.554V271.757ZM327.267 271.757H324.119V270.735H327.267V271.757ZM320.971 271.757H317.822V270.735H320.96L320.971 271.757ZM314.684 271.757H311.536V270.735H314.684V271.757ZM308.387 271.757H305.239V270.735H308.387V271.757ZM302.1 271.757H298.952V270.735H302.1V271.757ZM295.803 271.757H292.655V270.735H295.803V271.757ZM289.517 271.757H286.368V270.735H289.517V271.757ZM283.22 271.757H280.072V270.735H283.22V271.757ZM276.933 271.757H273.785V270.735H276.933V271.757ZM270.636 271.757H267.488V270.735H270.636V271.757ZM264.35 271.757H261.201V270.735H264.35V271.757ZM258.053 271.757H254.904V270.735H258.053V271.757ZM251.766 271.757H248.618V270.735H251.766V271.757ZM245.469 271.757H242.321V270.735H245.469V271.757ZM239.183 271.757H236.044V270.735H239.193L239.183 271.757ZM232.886 271.757H229.737V270.735H232.886V271.757ZM226.599 271.757H223.451V270.735H226.599V271.757ZM220.302 271.757H217.154V270.735H220.302V271.757ZM214.016 271.757H210.867V270.735H214.016V271.757ZM207.719 271.757H204.57V270.735H207.719V271.757ZM201.432 271.757H198.284V270.735H201.432V271.757ZM195.135 271.757H191.987V270.735H195.156L195.135 271.757ZM188.838 271.757H185.7V270.735H188.838V271.757ZM182.552 271.757H179.403V270.735H182.552V271.757ZM176.255 271.757H173.116V270.735H176.255V271.757ZM169.968 271.757H166.82V270.735H169.968V271.757ZM163.671 271.757H160.533V270.735H163.671V271.757ZM157.384 271.757H156.577C155.769 271.757 154.963 271.695 154.164 271.573L154.328 270.551C155.072 270.665 155.824 270.723 156.577 270.725H157.384V271.757ZM450.108 271.41L449.883 270.387C450.873 270.171 451.839 269.856 452.766 269.447L453.195 270.408C452.201 270.842 451.167 271.178 450.108 271.41ZM151.026 270.735C150.011 270.349 149.038 269.859 148.123 269.273L148.696 268.384C149.547 268.935 150.455 269.394 151.404 269.754L151.026 270.735ZM456.006 268.762L455.383 267.914C456.208 267.313 456.968 266.627 457.652 265.869L458.429 266.585C457.697 267.39 456.885 268.12 456.006 268.762ZM145.588 267.249C144.822 266.487 144.137 265.648 143.544 264.745L144.412 264.162C144.977 265.004 145.628 265.785 146.355 266.493L145.588 267.249ZM460.361 263.988L459.451 263.457C459.966 262.582 460.391 261.657 460.719 260.697L461.741 261.034C461.386 262.065 460.924 263.055 460.361 263.988ZM142 261.882C141.593 260.874 141.295 259.826 141.111 258.754L142.133 258.57C142.304 259.569 142.585 260.547 142.971 261.484L142 261.882ZM462.436 257.865L461.414 257.742C461.479 257.176 461.513 256.606 461.516 256.035V254.666H462.538V256.035C462.537 256.647 462.499 257.258 462.426 257.865H462.436ZM141.908 255.555H140.886V252.386H141.908V255.555ZM462.528 251.538H461.506V248.399H462.528V251.538ZM141.908 249.258H140.886V246.12H141.908V249.258ZM462.528 245.251H461.506V242.102H462.528V245.251ZM141.908 242.971H140.886V239.823H141.908V242.971ZM462.528 238.954H461.506V235.816H462.528V238.954ZM141.908 236.674H140.886V233.536H141.908V236.674ZM462.528 232.667H461.506V229.519H462.528V232.667ZM141.908 230.388H140.886V227.239H141.908V230.388ZM462.528 226.37H461.506V223.222H462.528V226.37ZM141.908 224.07H140.886V220.932H141.908V224.07ZM462.528 220.063H461.506V216.915H462.528V220.063ZM141.908 217.784H140.886V214.666H141.908V217.784ZM462.528 213.766H461.506V210.577H462.528V213.766ZM141.908 211.487H140.886V208.349H141.908V211.487ZM462.528 207.51H461.506V204.362H462.528V207.51ZM141.908 205.231H140.886V202.082H141.908V205.231ZM462.528 201.214H461.506V198.065H462.528V201.214ZM141.908 198.934H140.886V195.796H141.908V198.934ZM462.528 194.927H461.506V191.778H462.528V194.927ZM141.908 192.647H140.886V189.499H141.908V192.647ZM462.528 188.63H461.506V185.482H462.528V188.63ZM141.908 186.35H140.886V183.182H141.908V186.35ZM462.528 182.343H461.506V179.195H462.528V182.343ZM141.908 180.064H140.886V176.844H141.908V180.064ZM462.528 176.046H461.506V172.898H462.528V176.046ZM141.908 173.777H140.886V170.629H141.908V173.777ZM462.528 169.688H461.506V166.622H462.528V169.688ZM141.908 167.409H140.886V164.26H141.908V167.409ZM462.528 163.391H461.506V160.284H462.528V163.391ZM141.908 161.112H140.886V157.963H141.908V161.112ZM462.528 157.105H461.506V153.956H462.528V157.105ZM141.908 154.866H140.886V151.718H141.908V154.866ZM462.528 150.849H461.506V147.7H462.528V150.849ZM141.908 148.569H140.886V145.421H141.908V148.569ZM462.528 144.552H461.506V141.414H462.528V144.552ZM141.908 142.282H140.886V139.134H141.908V142.282ZM462.528 138.265H461.506V135.117H462.528V138.265ZM141.908 135.955H140.886V132.888H141.908V135.955ZM462.528 131.938H461.506V128.799H462.528V131.938ZM141.908 129.668H140.886V126.55H141.908V129.668ZM462.528 125.733H461.506V122.584H462.528V125.733ZM141.908 123.453H140.886V120.305H141.908V123.453ZM462.528 119.436H461.506V116.298H462.528V119.436ZM141.908 117.166H140.886V114.018H141.908V117.166ZM462.528 113.149H461.506V110.001H462.528V113.149ZM141.908 110.87H140.886V107.721H141.908V110.87ZM462.528 106.852H461.506V103.714H462.528V106.852ZM141.908 104.583H140.886V101.434H141.908V104.583ZM462.528 100.566H461.506V97.4171H462.528V100.566ZM141.908 98.2349H140.886V95.066H141.908V98.2349ZM462.528 94.2176H461.506V91.0794H462.528V94.2176ZM141.908 91.9994H140.886V88.8509H141.908V91.9994ZM462.528 87.9105H461.506V84.762H462.528V87.9105ZM141.908 85.6309H140.886V82.4825H141.908V85.6309ZM462.528 81.6136H461.506V78.4754H462.528V81.6136ZM141.908 79.3442H140.886V76.1958H141.908V79.3442ZM462.528 75.3269H461.506V72.1785H462.528V75.3269ZM141.908 73.0474H140.886V69.9194H141.908V73.0474ZM462.528 69.03H461.506V65.8918H462.528V69.03ZM141.908 66.7607H140.886V65.4216C140.887 64.7964 140.925 64.1718 140.998 63.5509L142.02 63.6736C141.956 64.2541 141.922 64.8375 141.918 65.4216L141.908 66.7607ZM461.25 62.8456C461.074 61.851 460.793 60.8779 460.412 59.9425L461.383 59.5438C461.789 60.5326 462.094 61.5601 462.293 62.6105L461.25 62.8456ZM142.685 60.7194L141.663 60.382C142.013 59.3563 142.468 58.3697 143.022 57.438L143.922 57.9696C143.418 58.8495 143.004 59.7775 142.685 60.7398V60.7194ZM458.991 57.2438C458.426 56.4016 457.775 55.6205 457.049 54.9131L457.785 54.1669C458.551 54.9256 459.236 55.7615 459.829 56.6611L458.991 57.2438ZM145.762 55.5162L144.985 54.8109C145.715 54.0067 146.527 53.2804 147.408 52.6438L148.031 53.5025C147.205 54.1063 146.444 54.795 145.762 55.5571V55.5162ZM454.667 53.0322C453.818 52.4784 452.909 52.0223 451.958 51.6727L452.336 50.6505C453.35 51.0406 454.322 51.5302 455.239 52.1122L454.667 53.0322ZM150.658 52.01L150.229 51.0491C151.213 50.603 152.241 50.2605 153.296 50.0269L153.51 51.0491C152.528 51.2749 151.572 51.6038 150.658 52.0305V52.01ZM449.035 50.9162C448.3 50.8059 447.559 50.7512 446.816 50.7527H445.978V49.7305H446.816C447.61 49.7303 448.403 49.7918 449.188 49.9145L449.035 50.9162ZM442.83 50.7527H439.681V49.7305H442.83V50.7527ZM436.533 50.7527H433.395V49.7305H436.533V50.7527ZM430.246 50.7527H427.098V49.7305H430.267L430.246 50.7527ZM423.949 50.7527H420.811V49.7305H423.949V50.7527ZM417.663 50.7527H414.514V49.7305H417.663V50.7527ZM411.366 50.7527H408.228V49.7305H411.366V50.7527ZM405.079 50.7527H401.931V49.7305H405.079V50.7527ZM398.782 50.7527H395.644V49.7305H398.782V50.7527ZM392.495 50.7527H389.378V49.7305H392.526L392.495 50.7527ZM386.199 50.7527H383.06V49.7305H386.199V50.7527ZM379.912 50.7527H376.764V49.7305H379.912V50.7527ZM373.615 50.7527H370.477V49.7305H373.615V50.7527ZM367.328 50.7527H364.18V49.7305H367.328V50.7527ZM361.031 50.7527H357.893V49.7305H361.031V50.7527ZM354.745 50.7527H351.556V49.7305H354.704L354.745 50.7527ZM348.448 50.7527H345.31V49.7305H348.489L348.448 50.7527ZM342.161 50.7527H339.013V49.7305H342.161V50.7527ZM335.864 50.7527H332.716V49.7305H335.864V50.7527ZM329.578 50.7527H326.429V49.7305H329.578V50.7527ZM323.281 50.7527H320.132V49.7305H323.281V50.7527ZM316.994 50.7527H313.846V49.7305H316.994V50.7527ZM310.697 50.7527H307.6V49.7305H310.667L310.697 50.7527ZM304.411 50.7527H301.262V49.7305H304.411V50.7527ZM298.114 50.7527H294.965V49.7305H298.114V50.7527ZM291.827 50.7527H288.679V49.7305H291.827V50.7527ZM285.53 50.7527H282.382V49.7305H285.53V50.7527ZM279.244 50.7527H276.095V49.7305H279.244V50.7527ZM272.947 50.7527H269.778V49.7305H272.926L272.947 50.7527ZM266.66 50.7527H263.512V49.7305H266.711L266.66 50.7527ZM260.363 50.7527H257.215V49.7305H260.363V50.7527ZM254.076 50.7527H250.928V49.7305H254.076V50.7527ZM247.78 50.7527H244.631V49.7305H247.78V50.7527ZM241.493 50.7527H238.344V49.7305H241.493V50.7527ZM235.196 50.7527H232.048V49.7305H235.196V50.7527ZM228.909 50.7527H225.761V49.7305H228.889L228.909 50.7527ZM222.612 50.7527H219.464V49.7305H222.612V50.7527ZM216.316 50.7527H213.177V49.7305H216.316V50.7527ZM210.029 50.7527H206.88V49.7305H210.029V50.7527ZM203.732 50.7527H200.594V49.7305H203.732V50.7527ZM197.445 50.7527H194.297V49.7305H197.445V50.7527ZM191.148 50.7527H188V49.7305H191.138L191.148 50.7527ZM184.862 50.7527H181.713V49.7305H184.862V50.7527ZM178.565 50.7527H175.427V49.7305H178.565V50.7527ZM172.278 50.7527H169.13V49.7305H172.278V50.7527ZM165.981 50.7527H162.843V49.7305H165.981V50.7527ZM159.695 50.7527H156.577V49.7305H159.725L159.695 50.7527Z" fill="#55566D"/>
<path d="M323.046 18.1758H74.8604C67.905 18.1758 62.2666 23.8142 62.2666 30.7696V183.674C62.2666 190.629 67.905 196.267 74.8604 196.267H323.046C330.001 196.267 335.639 190.629 335.639 183.674V30.7696C335.639 23.8142 330.001 18.1758 323.046 18.1758Z" fill="#55566D"/>
<path d="M323.046 18.1758H74.8604C71.5228 18.1839 68.3242 19.5133 65.9642 21.8734C63.6041 24.2334 62.2747 27.432 62.2666 30.7696H335.639C335.631 27.432 334.302 24.2334 331.942 21.8734C329.582 19.5133 326.383 18.1839 323.046 18.1758Z" fill="#55566D"/>
<path d="M125.951 39.7539H79.0615V50.9472H125.951V39.7539Z" fill="#8A8BA3"/>
<path d="M204.897 39.7539H133.383V50.9472H204.897V39.7539Z" fill="#8A8BA3"/>
<path d="M146.999 58.3789H86.5039V69.5722H146.999V58.3789Z" fill="#8A8BA3"/>
<path d="M246.707 58.3789H154.431V69.5722H246.707V58.3789Z" fill="#8A8BA3"/>
<path d="M204.897 77.0137H133.383V88.207H204.897V77.0137Z" fill="#8A8BA3"/>
<path d="M161.872 95.6484H101.377V106.842H161.872V95.6484Z" fill="#8A8BA3"/>
<path d="M261.589 95.6484H169.313V106.842H261.589V95.6484Z" fill="#8A8BA3"/>
<path d="M155.708 170.189H108.818V181.383H155.708V170.189Z" fill="#8A8BA3"/>
<path d="M234.654 170.189H163.14V181.383H234.654V170.189Z" fill="#8A8BA3"/>
<path d="M176.745 151.555H116.25V162.748H176.745V151.555Z" fill="#8A8BA3"/>
<path d="M276.464 151.555H184.188V162.748H276.464V151.555Z" fill="#8A8BA3"/>
<path d="M133.383 114.285H101.377V125.478H133.383V114.285Z" fill="#8A8BA3"/>
<path d="M233.1 114.285H140.824V125.478H233.1V114.285Z" fill="#8A8BA3"/>
<path d="M313.835 24.4729C313.835 25.2351 313.609 25.9802 313.186 26.614C312.763 27.2477 312.161 27.7417 311.456 28.0334C310.752 28.325 309.977 28.4014 309.23 28.2527C308.482 28.104 307.796 27.7369 307.257 27.198C306.718 26.659 306.351 25.9723 306.202 25.2248C306.053 24.4772 306.13 23.7023 306.421 22.9982C306.713 22.294 307.207 21.6921 307.841 21.2686C308.474 20.8452 309.219 20.6192 309.982 20.6192C310.488 20.6178 310.99 20.7166 311.458 20.9098C311.926 21.103 312.352 21.3868 312.71 21.7449C313.068 22.103 313.352 22.5284 313.545 22.9966C313.738 23.4647 313.837 23.9665 313.835 24.4729Z" fill="#8A8BA3"/>
<path d="M298.962 24.4729C298.962 25.2351 298.736 25.9802 298.313 26.614C297.89 27.2477 297.288 27.7417 296.583 28.0334C295.879 28.325 295.104 28.4014 294.357 28.2527C293.609 28.104 292.923 27.7369 292.384 27.198C291.845 26.659 291.478 25.9723 291.329 25.2248C291.18 24.4772 291.257 23.7023 291.548 22.9982C291.84 22.294 292.334 21.6921 292.968 21.2686C293.601 20.8452 294.346 20.6192 295.109 20.6192C295.615 20.6178 296.117 20.7166 296.585 20.9098C297.053 21.103 297.479 21.3868 297.837 21.7449C298.195 22.103 298.479 22.5284 298.672 22.9966C298.865 23.4647 298.964 23.9665 298.962 24.4729Z" fill="#8A8BA3"/>
<path d="M280.235 28.3267C282.363 28.3267 284.088 26.6013 284.088 24.4729C284.088 22.3445 282.363 20.6191 280.235 20.6191C278.106 20.6191 276.381 22.3445 276.381 24.4729C276.381 26.6013 278.106 28.3267 280.235 28.3267Z" fill="#8A8BA3"/>
<path d="M442.84 41.4098C442.824 38.2378 442.03 35.1182 440.529 32.3236C439.028 29.5291 436.866 27.1447 434.23 25.3789C431.595 23.613 428.568 22.5195 425.412 22.1938C422.257 21.8682 419.07 22.3203 416.13 23.5107C413.987 19.1409 410.541 15.5438 406.266 13.2157C401.992 10.8877 397.101 9.94345 392.268 10.5133C387.434 11.0831 382.897 13.139 379.281 16.3971C375.665 19.6553 373.15 23.9552 372.082 28.7036C366.839 29.0375 361.931 31.3994 358.399 35.289C354.866 39.1787 352.987 44.2906 353.158 49.542C353.33 54.7934 355.539 59.7718 359.317 63.4228C363.095 67.0738 368.147 69.1106 373.401 69.1018H437.74C441.11 69.1364 444.385 67.9801 446.987 65.8367C449.588 63.6933 451.35 60.7003 451.961 57.3853C452.572 54.0703 451.993 50.646 450.326 47.716C448.66 44.7859 446.012 42.5382 442.851 41.369L442.84 41.4098Z" fill="#55566D"/>
<path d="M407.144 47.3091L390.594 30.7695L374.055 47.3091H382.876V88.0753H398.322V47.3091H407.144Z" fill="#55566D"/>
<path d="M395.695 95.4147L412.235 111.964L428.785 95.4147H419.963V54.6484H404.517V95.4147H395.695Z" fill="#55566D"/>
<path d="M254.445 380.838C363.907 380.838 452.643 375.658 452.643 369.267C452.643 362.876 363.907 357.695 254.445 357.695C144.983 357.695 56.2461 362.876 56.2461 369.267C56.2461 375.658 144.983 380.838 254.445 380.838Z" fill="#55566D"/>
<path d="M321.728 81.4921V193.006H222.95V55.1699H295.395L321.728 81.4921Z" fill="#55566D"/>
<path opacity="0.8" d="M321.728 81.4921V193.006H222.95V55.1699H295.395L321.728 81.4921Z" fill="#8A8BA3"/>
<path opacity="0.2" d="M321.728 129.648H222.95V136.385H321.728V129.648Z" fill="#55566D"/>
<path d="M321.727 81.4921H295.395V55.1699L321.727 81.4921Z" fill="#55566D"/>
<path d="M293.872 281.613H222.081C222.081 281.613 226.589 340.728 213.382 364.689H302.561C289.364 340.728 293.872 281.613 293.872 281.613Z" fill="#55566D"/>
<path opacity="0.2" d="M295.272 339.185C291.479 312.904 293.871 281.613 293.871 281.613H222.081C222.081 281.613 224.227 309.786 221.212 335.116L295.272 339.185Z" fill="black"/>
<path d="M312.926 362.613H203.027C202.052 362.616 201.117 363.005 200.428 363.694C199.738 364.384 199.349 365.318 199.347 366.293H316.606C316.603 365.318 316.214 364.384 315.525 363.694C314.835 363.005 313.901 362.616 312.926 362.613Z" fill="#55566D"/>
<path d="M416.497 249.209H415.444V256.405H416.497V249.209Z" fill="#55566D"/>
<path d="M416.497 222.088H415.444V242.716H416.497V222.088Z" fill="#55566D"/>
<path d="M405.58 134.709H110.373C106.381 134.709 103.146 137.945 103.146 141.936V320.713C103.146 324.704 106.381 327.94 110.373 327.94H405.58C409.572 327.94 412.807 324.704 412.807 320.713V141.936C412.807 137.945 409.572 134.709 405.58 134.709Z" fill="#55566D"/>
<path d="M402.729 139.35H113.215C110.172 139.35 107.705 141.816 107.705 144.859V276.102C107.705 279.145 110.172 281.612 113.215 281.612H402.729C405.772 281.612 408.238 279.145 408.238 276.102V144.859C408.238 141.816 405.772 139.35 402.729 139.35Z" fill="#626480"/>
<path opacity="0.9" d="M103.155 286.223V320.692C103.161 322.607 103.924 324.442 105.278 325.796C106.632 327.151 108.467 327.914 110.382 327.919H405.58C407.495 327.914 409.33 327.151 410.684 325.796C412.038 324.442 412.801 322.607 412.807 320.692V286.223H103.155Z" fill="#8A8BA3"/>
<path opacity="0.5" d="M257.971 314.057C261.816 314.057 264.932 310.941 264.932 307.096C264.932 303.251 261.816 300.135 257.971 300.135C254.126 300.135 251.01 303.251 251.01 307.096C251.01 310.941 254.126 314.057 257.971 314.057Z" fill="#55566D"/>
<path opacity="0.4" d="M185.312 113.621V214.259H285.949L185.312 113.621ZM207.422 167.022L232.548 192.179H207.422V167.022Z" fill="#7C7D9E"/>
<path d="M300.639 230.307V251.018C300.647 254.367 301.98 257.577 304.348 259.946C306.715 262.316 309.924 263.652 313.273 263.663H386.311C389.661 263.652 392.871 262.316 395.24 259.947C397.61 257.578 398.945 254.368 398.956 251.018V177.99C398.945 174.641 397.609 171.432 395.24 169.064C392.871 166.697 389.66 165.364 386.311 165.355H313.273C309.925 165.364 306.716 166.697 304.348 169.065C301.981 171.433 300.647 174.642 300.639 177.99V200.694" fill="#57586F"/>
<path d="M386.311 264.185H382.223V263.162H386.424V264.185H386.311ZM378.052 264.185H373.84V263.162H378.052V264.185ZM369.619 264.185H365.407V263.162H369.619V264.185ZM361.195 264.185H356.974V263.162H361.185L361.195 264.185ZM352.772 264.185H348.561V263.162H352.772V264.185ZM344.349 264.185H340.127V263.162H344.349V264.185ZM335.916 264.185H331.704V263.162H335.916V264.185ZM327.493 264.185H323.281V263.162H327.493V264.185ZM319.07 264.185H314.848V263.162H319.07V264.185ZM310.555 263.898C309.11 263.594 307.728 263.048 306.466 262.283L307.018 261.384C308.167 262.087 309.429 262.589 310.749 262.866L310.555 263.898ZM390.779 263.397L390.421 262.375C391.687 261.911 392.868 261.241 393.917 260.392L394.581 261.21C393.443 262.149 392.154 262.889 390.768 263.397H390.779ZM303.184 259.441C302.242 258.317 301.496 257.041 300.976 255.669L301.999 255.301C302.485 256.561 303.175 257.732 304.043 258.767L303.184 259.441ZM397.474 257.98L396.585 257.417C397.302 256.276 397.82 255.021 398.118 253.707L399.14 253.942C398.814 255.373 398.248 256.738 397.464 257.98H397.474ZM300.128 251.386C300.128 251.264 300.128 251.141 300.128 251.018V247.165H301.15V251.356L300.128 251.386ZM399.478 249.638H398.455V245.427H399.478V249.638ZM301.171 242.943H300.148V238.731H301.171V242.943ZM399.467 241.246H398.445V237.034H399.467V241.246ZM301.16 234.55H300.138V230.308H301.16V234.55ZM399.467 232.813H398.445V228.57H399.467V232.813ZM399.467 224.389H398.445V220.178H399.467V224.389ZM399.467 215.966H398.445V211.755H399.467V215.966ZM399.467 207.543H398.445V203.321H399.467V207.543ZM301.16 200.101H300.138V195.88H301.16V200.101ZM399.467 199.079H398.445V194.868H399.467V199.079ZM301.16 191.637H300.138V187.426H301.16V191.637ZM399.467 190.615H398.445V186.404H399.467V190.615ZM301.16 183.173H300.138V178.962H301.16V183.173ZM399.467 182.151H398.445V177.929H399.467V182.151ZM301.549 174.873L300.527 174.607C300.894 173.185 301.503 171.837 302.326 170.621L303.195 171.213C302.435 172.356 301.878 173.622 301.549 174.955V174.873ZM397.75 173.973C397.313 172.696 396.66 171.503 395.818 170.447L396.646 169.793C397.557 170.944 398.269 172.239 398.752 173.626L397.75 173.973ZM305.955 168.28L305.311 167.441C306.477 166.551 307.783 165.86 309.175 165.397L309.502 166.419C308.22 166.867 307.022 167.523 305.955 168.361V168.28ZM392.843 167.738C391.712 167.002 390.464 166.463 389.153 166.143L389.409 165.121C390.854 165.49 392.227 166.101 393.467 166.93L392.843 167.738ZM385.095 165.796H380.894V164.773H385.105L385.095 165.796ZM376.672 165.796H372.46V164.773H376.672V165.796ZM368.249 165.796H364.027V164.773H368.249V165.796ZM359.815 165.796H355.645V164.773H359.856L359.815 165.796ZM351.392 165.796H347.181V164.773H351.392V165.796ZM342.969 165.796H338.747V164.773H342.969V165.796ZM334.536 165.796H330.324V164.773H334.536V165.796ZM326.113 165.796H321.911V164.773H326.123L326.113 165.796ZM317.69 165.796H313.478V164.773H317.69V165.796Z" fill="#55566D"/>
<path d="M300.812 216.579V203.74C299.257 207.049 298.434 210.654 298.4 214.31L300.128 216.038V217.274L297.562 219.84C297.571 219.672 297.545 219.504 297.487 219.346C297.429 219.188 297.34 219.043 297.224 218.92C296.611 218.297 295.333 218.573 294.383 219.523C293.432 220.474 293.156 221.742 293.78 222.365C294.403 222.989 295.671 222.713 296.621 221.762L300.128 218.256V223.868C300.128 225.217 300.833 226.311 301.702 226.311C302.571 226.311 303.286 225.217 303.286 223.868C303.286 222.518 302.581 221.435 301.702 221.435C301.534 221.44 301.37 221.481 301.218 221.553C301.067 221.625 300.932 221.727 300.823 221.854V217.591L302.141 216.273H304.533C307.094 213.658 309.057 210.519 310.288 207.073L300.812 216.579ZM296.294 221.445C295.62 222.13 294.7 222.324 294.25 221.885C293.8 221.445 294.004 220.525 294.689 219.84C295.374 219.155 296.284 218.961 296.734 219.401C297.184 219.84 296.989 220.801 296.294 221.445ZM301.692 222.089C302.325 222.089 302.836 222.866 302.836 223.837C302.836 224.808 302.325 225.595 301.692 225.595C301.058 225.595 300.557 224.808 300.557 223.837C300.557 222.866 301.068 222.089 301.692 222.089Z" fill="#55566D"/>
<path d="M261.222 240.15C260.063 238.981 259.413 237.401 259.413 235.755C259.413 234.109 260.063 232.529 261.222 231.359L265.167 227.414C266.336 226.249 267.919 225.596 269.568 225.596C271.218 225.596 272.8 226.249 273.969 227.414C275.132 228.58 275.786 230.161 275.786 231.809C275.786 233.457 275.132 235.038 273.969 236.205L270.023 240.15C268.854 241.315 267.272 241.968 265.622 241.968C263.973 241.968 262.39 241.315 261.222 240.15Z" fill="#263238"/>
<path d="M241.269 267.566L265.475 243.36L258.023 235.908L233.817 260.114C233.533 260.396 233.345 260.76 233.279 261.154C233.213 261.548 233.272 261.953 233.449 262.312C233.582 262.571 233.652 262.859 233.652 263.15C233.652 263.442 233.582 263.729 233.449 263.989C233.148 264.537 233.033 265.168 233.122 265.788C233.21 266.407 233.497 266.981 233.939 267.423C234.384 267.865 234.959 268.152 235.579 268.242C236.199 268.333 236.832 268.221 237.384 267.924C237.643 267.791 237.931 267.721 238.222 267.721C238.514 267.721 238.801 267.791 239.061 267.924C239.419 268.106 239.826 268.169 240.223 268.104C240.619 268.04 240.986 267.852 241.269 267.566Z" fill="#8A8BA3"/>
<path d="M236.045 269.326C235.359 269.327 234.685 269.15 234.089 268.812C233.492 268.474 232.994 267.987 232.643 267.398C232.291 266.81 232.099 266.14 232.084 265.455C232.069 264.77 232.233 264.092 232.559 263.489C232.616 263.38 232.646 263.259 232.646 263.137C232.646 263.014 232.616 262.893 232.559 262.784C232.285 262.227 232.192 261.599 232.292 260.987C232.393 260.374 232.683 259.809 233.121 259.37L257.327 235.163C257.423 235.061 257.538 234.98 257.667 234.924C257.795 234.869 257.934 234.84 258.073 234.84C258.213 234.84 258.352 234.869 258.48 234.924C258.608 234.98 258.724 235.061 258.82 235.163L266.261 242.615C266.364 242.711 266.445 242.827 266.501 242.955C266.556 243.083 266.585 243.222 266.585 243.362C266.585 243.502 266.556 243.64 266.501 243.768C266.445 243.897 266.364 244.012 266.261 244.108L242.055 268.314C241.618 268.753 241.055 269.043 240.444 269.144C239.833 269.245 239.206 269.151 238.651 268.876C238.542 268.821 238.421 268.793 238.299 268.793C238.176 268.793 238.055 268.821 237.946 268.876C237.361 269.186 236.706 269.341 236.045 269.326ZM258.053 237.402L234.593 260.862C234.455 260.99 234.364 261.16 234.335 261.345C234.305 261.53 234.338 261.72 234.429 261.884C234.641 262.294 234.751 262.747 234.751 263.208C234.751 263.669 234.641 264.123 234.429 264.532C234.242 264.882 234.172 265.283 234.23 265.676C234.288 266.069 234.471 266.433 234.752 266.713C235.033 266.994 235.397 267.177 235.79 267.235C236.183 267.294 236.584 267.224 236.934 267.036C237.343 266.825 237.797 266.714 238.258 266.714C238.718 266.714 239.172 266.825 239.581 267.036C239.746 267.124 239.935 267.155 240.12 267.126C240.304 267.096 240.474 267.008 240.604 266.873L264.115 243.413L258.053 237.402Z" fill="#55566D"/>
<path d="M256.05 231.923C256.624 231.352 257.402 231.031 258.212 231.031C259.022 231.031 259.799 231.352 260.374 231.923L269.461 241.011C270.029 241.585 270.348 242.36 270.348 243.167C270.348 243.975 270.029 244.75 269.461 245.324C268.887 245.892 268.112 246.211 267.304 246.211C266.497 246.211 265.722 245.892 265.148 245.324L256.05 236.237C255.482 235.663 255.163 234.888 255.163 234.08C255.163 233.272 255.482 232.497 256.05 231.923Z" fill="#263238"/>
<path d="M372.639 134.86L356.065 118.285C355.358 117.579 354.212 117.579 353.506 118.285L345.974 125.817C345.267 126.524 345.267 127.669 345.974 128.376L362.548 144.95C363.255 145.657 364.4 145.657 365.107 144.95L372.639 137.418C373.345 136.712 373.345 135.566 372.639 134.86Z" fill="#263238"/>
<path d="M399.518 91.4157L366.541 124.393L360.98 118.822C365.795 114.007 363.025 102.773 363.025 102.773L372.174 93.6237C386.976 91.5793 418.174 69.4277 418.174 69.4277L419.196 70.45L399.6 89.954C399.497 90.0436 399.413 90.1529 399.353 90.2755C399.293 90.398 399.258 90.5314 399.251 90.6676C399.243 90.8038 399.263 90.9402 399.309 91.0687C399.355 91.1972 399.426 91.3152 399.518 91.4157Z" fill="#55566D"/>
<path d="M397.301 118.781L388.152 127.981C388.152 127.981 376.907 125.18 372.103 130.025L366.542 124.464L399.519 91.4874C399.621 91.5778 399.741 91.6468 399.871 91.6902C400 91.7336 400.137 91.7505 400.274 91.7401C400.41 91.7296 400.543 91.6919 400.664 91.6292C400.786 91.5664 400.893 91.48 400.981 91.375L420.526 71.8301L421.548 72.8523C421.548 72.8523 399.376 103.989 397.301 118.781Z" fill="#55566D"/>
<path opacity="0.2" d="M397.301 118.781L388.152 127.981C388.152 127.981 376.907 125.18 372.103 130.025L366.542 124.464L399.519 91.4874C399.621 91.5778 399.741 91.6468 399.871 91.6902C400 91.7336 400.137 91.7505 400.274 91.7401C400.41 91.7296 400.543 91.6919 400.664 91.6292C400.786 91.5664 400.893 91.48 400.981 91.375L420.526 71.8301L421.548 72.8523C421.548 72.8523 399.376 103.989 397.301 118.781Z" fill="#8A8BA3"/>
<path d="M425.156 137.886L424.563 137.293C429.334 132.633 433.134 127.073 435.74 120.934C438.347 114.795 439.71 108.199 439.749 101.53C439.789 94.8607 438.504 88.2497 435.97 82.0804C433.436 75.9111 429.703 70.306 424.987 65.5899C420.271 60.8739 414.665 57.1406 408.496 54.6065C402.327 52.0724 395.716 50.7879 389.046 50.8273C382.377 50.8667 375.782 52.2293 369.643 54.8361C363.504 57.443 357.943 61.2422 353.283 66.0137L352.69 65.4208C357.429 60.574 363.082 56.7155 369.322 54.0686C375.562 51.4217 382.265 50.0391 389.043 50.0008C395.821 49.9625 402.539 51.2693 408.809 53.8455C415.078 56.4217 420.775 60.2161 425.568 65.009C430.36 69.8019 434.155 75.4981 436.731 81.7676C439.307 88.0371 440.614 94.7554 440.576 101.534C440.537 108.312 439.155 115.015 436.508 121.255C433.861 127.495 430.003 133.148 425.156 137.886Z" fill="#55566D"/>
<path d="M379.654 19.876L379.062 20.4688L470.144 111.551L470.737 110.959L379.654 19.876Z" fill="#55566D"/>
<path d="M428.659 65.7098L424.9 61.9512L421.142 65.7098L424.9 69.4685L428.659 65.7098Z" fill="#55566D"/>
<path d="M424.9 70.1541L420.464 65.7177L424.9 61.2812L429.347 65.7177L424.9 70.1541ZM421.834 65.7177L424.9 68.7844L427.967 65.7177L424.9 62.651L421.834 65.7177Z" fill="#55566D"/>
<path d="M356.78 65.7138L353.021 61.9551L349.263 65.7137L353.021 69.4724L356.78 65.7138Z" fill="#8A8BA3"/>
<path d="M353.028 70.1541L348.592 65.7177L353.028 61.2812L357.465 65.7177L353.028 70.1541ZM349.962 65.7177L353.028 68.7844L356.095 65.7177L353.028 62.651L349.962 65.7177Z" fill="#55566D"/>
<path d="M428.823 137.741L425.064 133.982L421.306 137.741L425.064 141.5L428.823 137.741Z" fill="#8A8BA3"/>
<path d="M425.064 142.18L420.628 137.743L425.064 133.307L429.501 137.743L425.064 142.18ZM421.998 137.743L425.064 140.81L428.131 137.743L425.064 134.676L421.998 137.743Z" fill="#55566D"/>
<path d="M472.485 113.293C472.113 113.664 471.639 113.917 471.124 114.019C470.608 114.121 470.074 114.068 469.589 113.867C469.104 113.665 468.689 113.325 468.397 112.888C468.105 112.451 467.949 111.937 467.949 111.412C467.949 110.886 468.105 110.373 468.397 109.936C468.689 109.499 469.104 109.158 469.589 108.957C470.074 108.755 470.608 108.702 471.124 108.805C471.639 108.907 472.113 109.16 472.485 109.531C472.982 110.031 473.261 110.707 473.261 111.412C473.261 112.117 472.982 112.793 472.485 113.293Z" fill="#8A8BA3"/>
<path d="M470.604 114.55C469.878 114.55 469.174 114.299 468.612 113.839C468.051 113.378 467.666 112.737 467.524 112.025C467.382 111.313 467.492 110.574 467.834 109.934C468.176 109.293 468.729 108.791 469.4 108.513C470.07 108.235 470.817 108.198 471.512 108.408C472.207 108.619 472.807 109.064 473.211 109.667C473.614 110.271 473.796 110.995 473.725 111.718C473.654 112.441 473.335 113.116 472.822 113.63C472.531 113.922 472.186 114.154 471.805 114.312C471.424 114.47 471.016 114.551 470.604 114.55ZM470.604 109.234C470.1 109.236 469.613 109.413 469.224 109.733C468.836 110.054 468.571 110.5 468.475 110.994C468.378 111.488 468.456 112.001 468.695 112.444C468.934 112.888 469.319 113.235 469.785 113.426C470.251 113.617 470.768 113.641 471.25 113.493C471.731 113.346 472.147 113.036 472.425 112.616C472.704 112.197 472.829 111.693 472.778 111.192C472.727 110.691 472.504 110.223 472.147 109.868C471.736 109.462 471.182 109.234 470.604 109.234Z" fill="#55566D"/>
<path d="M381.201 22.0492C380.83 22.4219 380.356 22.676 379.84 22.7794C379.324 22.8827 378.789 22.8307 378.303 22.6298C377.817 22.429 377.401 22.0883 377.109 21.651C376.816 21.2137 376.66 20.6995 376.66 20.1734C376.66 19.6473 376.816 19.1331 377.109 18.6958C377.401 18.2585 377.817 17.9178 378.303 17.717C378.789 17.5161 379.324 17.4641 379.84 17.5674C380.356 17.6708 380.83 17.9249 381.201 18.2976C381.697 18.7958 381.976 19.4703 381.976 20.1734C381.976 20.8766 381.697 21.551 381.201 22.0492Z" fill="#8A8BA3"/>
<path d="M379.36 23.3057C378.739 23.3057 378.132 23.1217 377.616 22.7769C377.1 22.432 376.698 21.9419 376.461 21.3685C376.223 20.795 376.161 20.164 376.282 19.5553C376.403 18.9465 376.702 18.3874 377.141 17.9485C377.58 17.5096 378.139 17.2107 378.748 17.0896C379.356 16.9685 379.987 17.0307 380.561 17.2682C381.134 17.5057 381.624 17.9079 381.969 18.424C382.314 18.9401 382.498 19.5468 382.498 20.1675C382.502 20.5801 382.422 20.9893 382.264 21.3704C382.106 21.7516 381.873 22.0969 381.578 22.3857C381.289 22.6804 380.944 22.9138 380.563 23.0719C380.182 23.23 379.773 23.3095 379.36 23.3057ZM379.36 17.9902C379.074 17.9901 378.792 18.0471 378.528 18.1577C378.265 18.2683 378.026 18.4303 377.827 18.6342C377.479 19.0516 377.299 19.584 377.324 20.127C377.348 20.6699 377.575 21.184 377.959 21.5683C378.343 21.9526 378.858 22.1793 379.4 22.2038C379.943 22.2283 380.476 22.0489 380.893 21.7009C381.097 21.4987 381.259 21.2583 381.369 20.9934C381.48 20.7285 381.537 20.4443 381.537 20.1573C381.532 19.5797 381.299 19.0275 380.89 18.62C380.481 18.2126 379.927 17.9826 379.35 17.98L379.36 17.9902Z" fill="#55566D"/>
<path d="M171.808 74.0195H131.083V241.143H171.808V74.0195Z" fill="#55566D"/>
<path opacity="0.7" d="M171.808 74.0195H131.083V241.143H171.808V74.0195Z" fill="#8A8BA3"/>
<path opacity="0.3" d="M168.772 81.9824H134.129V97.8984H168.772V81.9824Z" fill="#263238"/>
<path opacity="0.416667" d="M168.772 101.23H134.129V117.146H168.772V101.23Z" fill="#263238"/>
<path opacity="0.533333" d="M168.772 120.48H134.129V136.396H168.772V120.48Z" fill="#263238"/>
<path opacity="0.65" d="M168.772 139.738H134.129V155.654H168.772V139.738Z" fill="#263238"/>
<path opacity="0.766667" d="M168.772 158.986H134.129V174.902H168.772V158.986Z" fill="#263238"/>
<path opacity="0.883333" d="M168.772 178.234H134.129V194.15H168.772V178.234Z" fill="#263238"/>
<path d="M168.772 197.494H134.129V213.41H168.772V197.494Z" fill="#263238"/>
<path d="M143.093 83.961L102.974 90.9629L131.707 255.597L171.826 248.596L143.093 83.961Z" fill="#55566D"/>
<path opacity="0.8" d="M143.093 83.961L102.974 90.9629L131.707 255.597L171.826 248.596L143.093 83.961Z" fill="#8A8BA3"/>
<path d="M141.468 92.3192L107.341 98.2754L110.077 113.954L144.204 107.998L141.468 92.3192Z" fill="#55566D"/>
<path d="M144.783 111.288L110.656 117.244L113.393 132.923L147.52 126.967L144.783 111.288Z" fill="#55566D"/>
<path d="M148.096 130.257L113.969 136.213L116.705 151.892L150.832 145.936L148.096 130.257Z" fill="#55566D"/>
<path d="M151.4 149.218L117.272 155.174L120.009 170.853L154.136 164.897L151.4 149.218Z" fill="#55566D"/>
<path d="M154.714 168.186L120.587 174.143L123.323 189.822L157.451 183.865L154.714 168.186Z" fill="#55566D"/>
<path d="M158.313 188.65L124.017 194.539L126.722 210.296L161.019 204.407L158.313 188.65Z" fill="#55566D"/>
<path d="M161.33 206.106L127.203 212.062L129.94 227.742L164.067 221.785L161.33 206.106Z" fill="#55566D"/>
<path opacity="0.05" d="M141.468 92.3192L107.341 98.2754L110.077 113.954L144.204 107.998L141.468 92.3192Z" fill="black"/>
<path opacity="0.1" d="M144.783 111.288L110.656 117.244L113.393 132.923L147.52 126.967L144.783 111.288Z" fill="black"/>
<path opacity="0.2" d="M148.096 130.257L113.969 136.213L116.705 151.892L150.832 145.936L148.096 130.257Z" fill="black"/>
<path opacity="0.3" d="M151.4 149.218L117.272 155.174L120.009 170.853L154.136 164.897L151.4 149.218Z" fill="black"/>
<path opacity="0.4" d="M154.714 168.186L120.587 174.143L123.323 189.822L157.451 183.865L154.714 168.186Z" fill="black"/>
<path opacity="0.5" d="M158.313 188.65L124.017 194.539L126.722 210.296L161.019 204.407L158.313 188.65Z" fill="black"/>
<path opacity="0.6" d="M161.33 206.106L127.203 212.062L129.94 227.742L164.067 221.785L161.33 206.106Z" fill="black"/>
<path d="M114.939 98.9211L76.6455 112.783L133.531 269.927L171.824 256.065L114.939 98.9211Z" fill="#55566D"/>
<path opacity="0.9" d="M114.939 98.9211L76.6455 112.783L133.531 269.927L171.824 256.065L114.939 98.9211Z" fill="#8A8BA3"/>
<path d="M114.79 107.433L82.2158 119.225L87.6333 134.19L120.208 122.398L114.79 107.433Z" fill="#55566D"/>
<path d="M121.349 125.536L88.7744 137.328L94.1919 152.294L126.766 140.502L121.349 125.536Z" fill="#55566D"/>
<path d="M127.887 143.646L95.3125 155.438L100.73 170.403L133.304 158.611L127.887 143.646Z" fill="#55566D"/>
<path d="M134.445 161.749L101.87 173.541L107.288 188.507L139.862 176.715L134.445 161.749Z" fill="#55566D"/>
<path d="M141.002 179.843L108.428 191.635L113.845 206.6L146.42 194.809L141.002 179.843Z" fill="#55566D"/>
<path d="M147.55 197.946L114.976 209.738L120.393 224.704L152.968 212.912L147.55 197.946Z" fill="#55566D"/>
<path d="M154.108 216.052L121.533 227.844L126.951 242.809L159.525 231.018L154.108 216.052Z" fill="#55566D"/>
<path opacity="0.6" d="M114.79 107.433L82.2158 119.225L87.6333 134.19L120.208 122.398L114.79 107.433Z" fill="#8A8BA3"/>
<path opacity="0.5" d="M121.349 125.536L88.7744 137.328L94.1919 152.294L126.766 140.502L121.349 125.536Z" fill="#8A8BA3"/>
<path opacity="0.4" d="M127.887 143.646L95.3125 155.438L100.73 170.403L133.304 158.611L127.887 143.646Z" fill="#8A8BA3"/>
<path opacity="0.3" d="M134.445 161.749L101.87 173.541L107.288 188.507L139.862 176.715L134.445 161.749Z" fill="#8A8BA3"/>
<path opacity="0.2" d="M141.002 179.843L108.428 191.635L113.845 206.6L146.42 194.809L141.002 179.843Z" fill="#8A8BA3"/>
<path opacity="0.1" d="M147.55 197.946L114.976 209.738L120.393 224.704L152.968 212.912L147.55 197.946Z" fill="#8A8BA3"/>
</g>
<defs>
<filter id="filter0_d_776_1444" x="0" y="0" width="527.111" height="400.838" filterUnits="userSpaceOnUse" color-interpolation-filters="sRGB">
<feFlood flood-opacity="0" result="BackgroundImageFix"/>
<feColorMatrix in="SourceAlpha" type="matrix" values="0 0 0 0 0 0 0 0 0 0 0 0 0 0 0 0 0 0 127 0" result="hardAlpha"/>
<feOffset dx="4" dy="12"/>
<feGaussianBlur stdDeviation="4"/>
<feComposite in2="hardAlpha" operator="out"/>
<feColorMatrix type="matrix" values="0 0 0 0 0 0 0 0 0 0 0 0 0 0 0 0 0 0 0.25 0"/>
<feBlend mode="normal" in2="BackgroundImageFix" result="effect1_dropShadow_776_1444"/>
<feBlend mode="normal" in="SourceGraphic" in2="effect1_dropShadow_776_1444" result="shape"/>
</filter>
</defs>
</svg>
