<svg width="749" height="472" viewBox="0 0 749 472" fill="none" xmlns="http://www.w3.org/2000/svg">
<g filter="url(#filter0_d_2697_1823)">
<path d="M719.92 292.938L705.468 293.247L698.133 293.368C695.676 293.423 693.209 293.368 690.753 293.434H690.268V292.938L690.202 280.58V280.029H690.753L705.336 280.095C710.205 280.095 715.062 280.217 719.92 280.272H720.228V280.58C720.228 282.673 720.14 284.755 720.085 286.814L719.92 292.938ZM719.92 292.938L719.765 286.715C719.71 284.666 719.644 282.64 719.622 280.613L719.92 280.921C715.062 280.977 710.205 281.098 705.336 281.098L690.753 281.164L691.304 280.613V292.938L690.808 292.454C693.209 292.454 695.61 292.454 698.022 292.509L705.193 292.696L719.92 292.938Z" fill="#FFC727"/>
<path d="M703.651 308.481L689.2 308.789L681.853 308.91C679.408 308.91 676.941 308.91 674.485 308.976H674V308.481V296.155V295.604H674.551L689.134 295.682C693.991 295.682 698.86 295.803 703.717 295.858H704.026V296.155C704.026 298.248 703.938 300.33 703.883 302.389L703.651 308.481ZM703.651 308.481L703.497 302.257C703.442 300.209 703.376 298.182 703.354 296.155L703.651 296.464C698.794 296.519 693.925 296.64 689.068 296.64L674.485 296.706L675.035 296.155V308.481L674.54 307.996C676.941 307.996 679.342 307.996 681.754 308.051L688.991 308.183L703.651 308.481Z" fill="#FFC727"/>
<path d="M736.188 308.481L721.737 308.789L714.401 308.91C711.945 308.91 709.478 308.91 707.021 308.976H706.537V308.481L706.471 296.155V295.604H707.021L721.605 295.682C726.473 295.682 731.331 295.803 736.188 295.858H736.497V296.155C736.497 298.248 736.397 300.33 736.353 302.389L736.188 308.481ZM736.188 308.481L736.034 302.257C736.034 300.209 735.913 298.182 735.891 296.155L736.188 296.464C731.331 296.519 726.473 296.64 721.605 296.64L707.021 296.706L707.572 296.155V308.481L707.077 307.996C709.489 307.996 711.879 307.996 714.291 308.051L721.539 308.183L736.188 308.481Z" fill="#FFC727"/>
<path d="M304.03 146.279L289.579 146.587L282.243 146.709C279.787 146.709 277.319 146.709 274.863 146.709H274.379V146.213L274.312 133.888V133.337H274.863L289.447 133.403C294.315 133.403 299.172 133.524 304.03 133.579H304.338V133.877C304.338 135.969 304.239 138.04 304.184 140.1L304.03 146.279ZM304.03 146.279L303.876 140.045C303.876 137.996 303.755 135.969 303.732 133.954L304.03 134.251C299.172 134.251 294.315 134.427 289.447 134.427L274.863 134.504L275.414 133.954L275.359 146.279L274.863 145.783C277.264 145.783 279.666 145.783 282.078 145.849L289.325 145.971L304.03 146.279Z" fill="#FFC727"/>
<path d="M287.739 161.821L273.288 162.13L265.942 162.251C263.496 162.251 261.029 162.251 258.573 162.306H258.088V161.81L258 149.507V148.956H258.551L273.134 149.022C277.991 149.022 282.86 149.143 287.717 149.198H288.026V149.507C288.026 151.6 287.938 153.67 287.883 155.73L287.739 161.821ZM287.739 161.821L287.585 155.587C287.53 153.538 287.464 151.511 287.442 149.496L287.739 149.793C282.882 149.848 278.014 149.969 273.156 149.969L258.573 150.047L259.123 149.496L259.101 161.821L258.606 161.325C261.007 161.325 263.408 161.325 265.82 161.392L273.057 161.513L287.739 161.821Z" fill="#FFC727"/>
<path d="M320.298 161.821L305.847 162.13L298.512 162.251C296.055 162.251 293.599 162.251 291.132 162.306H290.647V161.81L290.581 149.507V148.956H291.132L305.715 149.022C310.584 149.022 315.441 149.143 320.298 149.198H320.607V149.507C320.607 151.6 320.508 153.67 320.464 155.73L320.298 161.821ZM320.298 161.821L320.144 155.587C320.144 153.538 320.023 151.511 320.001 149.496L320.298 149.793C315.441 149.848 310.584 149.969 305.715 149.969L291.132 150.047L291.683 149.496L291.627 161.821L291.132 161.325C293.544 161.325 295.934 161.325 298.346 161.392L305.594 161.513L320.298 161.821Z" fill="#FFC727"/>
<path d="M66.2137 227.831L51.7625 228.14L44.4158 228.261C41.9706 228.261 39.5033 228.261 37.047 228.316H36.6064V227.82V215.495V214.944H37.1572L51.7405 215.01C56.5979 215.01 61.4664 215.132 66.3238 215.187H66.6322V215.484C66.6322 217.577 66.5441 219.648 66.4891 221.707L66.2137 227.831ZM66.2137 227.831L66.0595 221.597C66.0595 219.548 65.9383 217.522 65.9163 215.506L66.2137 215.803C61.3562 215.859 56.4878 215.98 51.6304 215.98L37.047 216.057L37.5978 215.506L37.5427 227.831L37.047 227.336C39.4482 227.336 41.8494 227.336 44.2616 227.402L51.4982 227.523L66.2137 227.831Z" fill="#FFC727"/>
<path d="M549.733 146.268L535.282 146.576L527.946 146.698C525.49 146.753 523.023 146.698 520.566 146.753H520.082V146.257L520.016 133.932V133.381H520.566L535.15 133.447C540.018 133.447 544.876 133.579 549.733 133.634H550.041V133.932C550.041 136.024 549.953 138.106 549.898 140.155L549.733 146.268ZM549.733 146.268L549.579 140.045C549.524 137.985 549.458 135.958 549.436 133.943L549.733 134.24C544.876 134.295 540.018 134.416 535.15 134.427L520.566 134.493L521.117 133.943L521.062 146.268L520.566 145.772C522.968 145.772 525.369 145.772 527.781 145.838L535.029 145.96L549.733 146.268Z" fill="#FFC727"/>
<path d="M718.234 26.5616L703.783 26.87L696.436 26.9912C693.991 26.9912 691.524 26.9912 689.068 27.0573H688.583V26.5616V14.2363V13.6855H689.134L703.717 13.7516C708.574 13.7516 713.443 13.8838 718.3 13.9389H718.609V14.2363C718.609 16.3291 718.521 18.4108 718.466 20.4595L718.234 26.5616ZM718.234 26.5616L718.08 20.3384C718.025 18.2786 717.959 16.2519 717.937 14.2363L718.234 14.5337C713.377 14.5337 708.508 14.7099 703.651 14.7209L689.068 14.787L689.618 14.2363L689.563 26.5616L689.068 26.066C691.469 26.066 693.87 26.066 696.282 26.132L703.519 26.2532L718.234 26.5616Z" fill="#FFC727"/>
<path d="M734.503 42.1036L720.051 42.412L712.716 42.5332C710.259 42.5882 707.792 42.5332 705.336 42.5993H704.851V42.1036L704.785 29.7783V29.2275H705.336L719.919 29.2936C724.788 29.2936 729.645 29.4258 734.503 29.4809H734.811V29.7783C734.811 31.871 734.712 33.9528 734.657 36.0015L734.503 42.1036ZM734.503 42.1036L734.348 35.8803C734.348 33.8206 734.227 31.7939 734.205 29.7783L734.503 30.0757C729.645 30.1307 724.788 30.2519 719.919 30.2629L705.336 30.329L705.887 29.7783V42.1036L705.391 41.6079C707.792 41.6079 710.193 41.6079 712.605 41.674L719.853 41.7952L734.503 42.1036Z" fill="#FFC727"/>
<path d="M33.677 26.5724L19.2148 26.8808L11.8791 27.0019C9.43383 27.0019 6.96656 27.0019 4.51031 27.068H4.01465V26.5724V14.247V13.6963H4.57639L19.1597 13.7734C24.0172 13.7734 28.8746 13.8946 33.7431 13.9496H34.0404V14.247C34.0404 16.3398 33.9413 18.4216 33.8973 20.4813L33.677 26.5724ZM33.677 26.5724L33.5117 20.3491C33.5117 18.3004 33.3906 16.2627 33.3686 14.247L33.677 14.5444C28.8085 14.6105 23.9511 14.7206 19.0936 14.7317L4.51031 14.7977L5.06104 14.247L4.99495 26.5724L4.51031 26.1428C6.91149 26.1428 9.30166 26.1428 11.7139 26.1428L18.9615 26.2639L33.677 26.5724Z" fill="#FFC727"/>
<path d="M719.093 155.917L725.581 145.464L722.375 143.481C721.917 143.193 721.548 142.782 721.309 142.296C721.069 141.81 720.97 141.267 721.021 140.728C721.054 140.115 721.054 139.501 721.021 138.888C721.005 138.347 721.139 137.813 721.41 137.344C721.68 136.875 722.075 136.491 722.552 136.234L725.856 134.449L720.04 123.611L716.736 125.384C716.258 125.64 715.718 125.757 715.177 125.722C714.636 125.687 714.115 125.501 713.674 125.186C713.178 124.845 712.65 124.514 712.11 124.217C711.633 123.962 711.237 123.58 710.965 123.113C710.692 122.647 710.555 122.114 710.568 121.573L710.689 117.806L698.397 117.421L698.286 121.199C698.263 121.74 698.091 122.265 697.787 122.714C697.484 123.163 697.062 123.52 696.568 123.743L695.764 124.151C695.489 124.294 695.224 124.448 694.971 124.602C694.513 124.886 693.985 125.037 693.446 125.037C692.907 125.037 692.378 124.886 691.92 124.602L688.693 122.609L682.205 133.062L685.421 135.044C685.878 135.335 686.246 135.746 686.485 136.231C686.724 136.717 686.825 137.259 686.776 137.798C686.721 138.409 686.699 139.023 686.71 139.637C686.726 140.175 686.593 140.708 686.324 141.174C686.056 141.641 685.663 142.024 685.19 142.281L681.886 144.065L687.701 154.915L691.006 153.13C691.483 152.879 692.021 152.765 692.559 152.8C693.098 152.835 693.616 153.018 694.057 153.328C694.557 153.675 695.076 153.995 695.61 154.287C696.091 154.539 696.49 154.922 696.763 155.392C697.036 155.862 697.171 156.399 697.152 156.941L697.042 160.708L709.334 161.094L709.455 157.316C709.477 156.777 709.648 156.254 709.949 155.807C710.251 155.359 710.671 155.005 711.162 154.782L711.978 154.375L712.771 153.923C713.231 153.64 713.761 153.49 714.302 153.49C714.842 153.49 715.372 153.64 715.833 153.923L719.093 155.917ZM708.684 148.207C706.928 149.148 704.931 149.548 702.947 149.355C700.963 149.162 699.081 148.385 697.539 147.123C695.997 145.861 694.863 144.169 694.282 142.262C693.701 140.356 693.698 138.32 694.274 136.412C694.85 134.504 695.979 132.809 697.518 131.542C699.057 130.276 700.937 129.494 702.92 129.296C704.904 129.097 706.901 129.492 708.66 130.429C710.42 131.366 711.861 132.803 712.804 134.56C714.053 136.91 714.321 139.659 713.549 142.206C712.777 144.753 711.028 146.891 708.684 148.152V148.207Z" fill="#FFC727"/>
<path d="M130.462 374.094L126.155 366.627L123.864 367.948C123.535 368.137 123.159 368.23 122.779 368.216C122.4 368.202 122.032 368.083 121.717 367.871C121.361 367.639 120.993 367.426 120.615 367.232C120.281 367.058 120.002 366.796 119.807 366.473C119.613 366.15 119.511 365.781 119.514 365.404V362.771H110.845V365.393C110.847 365.77 110.746 366.139 110.551 366.462C110.357 366.785 110.078 367.047 109.744 367.221C109.358 367.42 108.984 367.629 108.642 367.86C108.321 368.083 107.943 368.209 107.552 368.222C107.161 368.236 106.775 368.137 106.439 367.937L104.159 366.616L99.8525 374.083L102.144 375.405C102.47 375.597 102.737 375.875 102.914 376.21C103.091 376.545 103.171 376.922 103.146 377.3C103.146 377.509 103.146 377.729 103.146 377.939C103.146 378.148 103.146 378.357 103.146 378.577C103.172 378.952 103.092 379.327 102.917 379.66C102.742 379.992 102.478 380.27 102.155 380.461L99.8525 381.794L104.159 389.262L106.45 387.94C106.786 387.74 107.172 387.641 107.563 387.655C107.954 387.668 108.332 387.794 108.653 388.017C109.009 388.249 109.377 388.462 109.755 388.656C110.087 388.829 110.365 389.09 110.559 389.411C110.754 389.731 110.856 390.099 110.856 390.473V393.117H119.481V390.473C119.479 390.098 119.581 389.73 119.776 389.41C119.97 389.089 120.249 388.828 120.582 388.656C120.957 388.458 121.331 388.248 121.683 388.017C121.999 387.805 122.367 387.686 122.746 387.672C123.126 387.659 123.502 387.751 123.831 387.94L126.122 389.262L130.429 381.794L128.138 380.472C127.811 380.28 127.545 380.002 127.368 379.667C127.191 379.333 127.11 378.955 127.136 378.577C127.136 378.368 127.136 378.148 127.136 377.939C127.136 377.729 127.136 377.509 127.136 377.3C127.11 376.922 127.191 376.545 127.368 376.21C127.545 375.875 127.811 375.597 128.138 375.405L130.462 374.094ZM122.223 377.95C122.223 379.346 121.809 380.711 121.033 381.872C120.258 383.033 119.155 383.938 117.865 384.473C116.575 385.007 115.155 385.147 113.785 384.874C112.416 384.602 111.158 383.929 110.17 382.942C109.183 381.955 108.511 380.697 108.238 379.327C107.966 377.957 108.106 376.538 108.64 375.248C109.174 373.958 110.079 372.855 111.24 372.079C112.401 371.303 113.766 370.889 115.163 370.889C117.035 370.889 118.831 371.633 120.155 372.957C121.479 374.281 122.223 376.077 122.223 377.95Z" fill="#FFC727"/>
<path d="M56.3228 289.646C49.6823 289.643 43.1903 291.61 37.6679 295.298C32.1455 298.986 27.8407 304.228 25.298 310.363C22.7553 316.497 22.0889 323.248 23.383 329.761C24.6772 336.274 27.8738 342.257 32.5685 346.953C37.2633 351.65 43.2453 354.848 49.758 356.145C56.2708 357.441 63.0217 356.777 69.1569 354.236C75.2921 351.695 80.536 347.392 84.2255 341.871C87.915 336.35 89.8843 329.858 89.8843 323.218C89.8857 318.81 89.0187 314.444 87.3327 310.371C85.6467 306.298 83.1749 302.597 80.0582 299.479C76.9416 296.362 73.2413 293.889 69.1688 292.201C65.0962 290.514 60.7311 289.646 56.3228 289.646ZM56.3228 338.881C53.2223 338.881 50.1915 337.961 47.6138 336.238C45.036 334.516 43.027 332.067 41.8411 329.203C40.6551 326.338 40.3453 323.186 40.951 320.145C41.5567 317.104 43.0505 314.312 45.2437 312.12C47.4368 309.928 50.2306 308.437 53.2717 307.833C56.3129 307.23 59.4647 307.541 62.3285 308.729C65.1923 309.917 67.6395 311.928 69.3604 314.507C71.0813 317.086 71.9987 320.118 71.9966 323.218C71.9936 327.373 70.341 331.357 67.4019 334.294C64.4628 337.231 60.4778 338.881 56.3228 338.881Z" fill="#FFC727"/>
<path d="M62.7773 291.044H49.8682L50.5841 281.902H62.0613L62.7773 291.044Z" fill="#FFC727"/>
<path d="M38.204 295.383L29.0839 304.515L23.125 297.553L31.2428 289.436L38.204 295.383Z" fill="#FFC727"/>
<path d="M23.9075 315.838V328.747L14.7764 328.031V316.554L23.9075 315.838Z" fill="#FFC727"/>
<path d="M28.2575 340.4L37.3886 349.532L30.4273 355.479L22.3096 347.362L28.2575 340.4Z" fill="#FFC727"/>
<path d="M48.7012 354.697H61.6103L60.9053 363.839H49.4171L48.7012 354.697Z" fill="#FFC727"/>
<path d="M73.2744 350.347L82.4055 341.227L88.3534 348.188L80.2356 356.306L73.2744 350.347Z" fill="#FFC727"/>
<path d="M87.5713 329.903V316.994L96.7024 317.71V329.187L87.5713 329.903Z" fill="#FFC727"/>
<path d="M83.2209 305.341L74.0898 296.21L81.0621 290.251L89.1798 298.369L83.2209 305.341Z" fill="#FFC727"/>
<path d="M60.6955 87.8246C60.6955 86.4478 60.8828 82.7799 60.8828 81.2159C60.8828 74.519 58.4926 71.49 52.2584 71.3027C49.3175 71.1265 47.5771 69.3862 47.5771 66.8969C47.5771 64.4076 49.3175 62.6783 52.2584 62.491C58.4926 62.2487 60.8387 59.3188 60.8387 52.5779C60.8387 51.0249 60.6515 47.357 60.6515 45.9692C60.6515 37.0694 64.4075 31.3858 78.6273 28.2687C81.4691 27.6188 83.672 29.3701 83.672 32.0247C83.6996 32.8423 83.4656 33.6475 83.004 34.323C82.5424 34.9985 81.8774 35.5092 81.1056 35.7806C72.2058 38.5343 70.9171 41.3761 70.9171 47.6213C70.9171 49.4498 71.1043 52.4788 71.1043 54.4063C71.1043 61.5548 67.6237 65.0464 61.5657 66.974C67.7118 68.9897 71.1043 72.3822 71.1043 79.5416C71.1043 81.4582 70.9171 84.4872 70.9171 86.3266C70.9171 92.5609 72.2058 95.4027 81.1056 98.1563C81.8774 98.4278 82.5424 98.9384 83.004 99.6139C83.4656 100.289 83.6996 101.095 83.672 101.912C83.672 104.578 81.4691 106.318 78.6273 105.679C64.4515 102.518 60.6955 96.8235 60.6955 87.8246Z" fill="#FFC727"/>
<path d="M114.447 45.9693C114.447 47.3461 114.259 51.014 114.259 52.5781C114.259 59.3741 116.738 62.304 122.972 62.5793C125.814 62.7666 127.554 64.5069 127.554 66.9852C127.554 69.4634 125.814 71.2038 122.972 71.391C116.738 71.5783 114.259 74.6073 114.259 81.3041C114.259 82.8572 114.447 86.5251 114.447 87.9129C114.447 96.9008 110.68 102.595 96.4598 105.712C93.618 106.351 91.4261 104.611 91.4261 101.945C91.3973 101.115 91.6412 100.299 92.1206 99.6203C92.6 98.942 93.2885 98.4394 94.0806 98.1895C102.892 95.4359 104.17 92.5941 104.17 86.3598C104.17 84.5204 103.983 81.4914 103.983 79.5748C103.983 72.4154 107.474 68.9347 113.521 67.0072C107.375 64.9915 103.983 61.588 103.983 54.4395C103.983 52.512 104.17 49.483 104.17 47.6545C104.17 41.4093 102.881 38.5675 94.0806 35.8138C93.2885 35.564 92.6 35.0614 92.1206 34.3831C91.6412 33.7047 91.3973 32.888 91.4261 32.0579C91.4261 29.4034 93.629 27.652 96.4598 28.3019C110.68 31.3419 114.447 37.0255 114.447 45.9693Z" fill="#FFC727"/>
<path d="M13.168 450.48L102.463 450.216L191.759 450.117L370.349 449.93L548.94 450.117L638.235 450.216L727.531 450.48L638.235 450.756L548.94 450.855L370.349 451.031L191.759 450.844L102.463 450.756L13.168 450.48Z" fill="#263238"/>
<path d="M673.13 428.43H67.5693V450.481H673.13V428.43Z" fill="#CCCCCC"/>
<path d="M610.556 107.067H130.144V428.429H610.556V107.067Z" fill="#CCCCCC"/>
<path d="M607.075 110.988H133.635V424.508H607.075V110.988Z" fill="#263238"/>
<path d="M586.104 131.135H154.596V404.352H586.104V131.135Z" fill="#455A64"/>
<path d="M247.118 141.653H154.596V404.363H247.118V141.653Z" fill="#37474F"/>
<path d="M164.498 141.653H154.596V404.363H164.498V141.653Z" fill="#455A64"/>
<path d="M247.13 231.499H164.498V235.409H247.13V231.499Z" fill="#4A4B5C"/>
<path d="M205.836 154.694H173.706V156.446H205.836V154.694Z" fill="#737490"/>
<path d="M169.598 155.014H171.668L170.633 156.115L169.598 155.014Z" fill="#737490"/>
<path d="M180.546 161.182H176.283V162.933H180.546V161.182Z" fill="#737490"/>
<path d="M173.706 163.087V161.017L174.808 162.052L173.706 163.087Z" fill="#737490"/>
<path d="M180.546 167.67H176.283V169.421H180.546V167.67Z" fill="#737490"/>
<path d="M173.222 167.989H175.292L174.257 169.091L173.222 167.989Z" fill="#737490"/>
<path d="M180.546 174.157H176.283V175.909H180.546V174.157Z" fill="#737490"/>
<path d="M173.222 174.477H175.292L174.257 175.589L173.222 174.477Z" fill="#737490"/>
<path d="M183.135 180.645H178.872V182.396H183.135V180.645Z" fill="#737490"/>
<path d="M176.283 182.55V180.479L177.396 181.515L176.283 182.55Z" fill="#737490"/>
<path d="M185.723 187.144H181.46V188.895H185.723V187.144Z" fill="#737490"/>
<path d="M178.872 189.049V186.979L179.985 188.014L178.872 189.049Z" fill="#737490"/>
<path d="M185.723 252.02H181.46V253.771H185.723V252.02Z" fill="#737490"/>
<path d="M178.872 253.925V251.854L179.985 252.89L178.872 253.925Z" fill="#737490"/>
<path d="M188.311 193.62H184.049V195.371H188.311V193.62Z" fill="#737490"/>
<path d="M181.46 195.526V193.455L182.572 194.49L181.46 195.526Z" fill="#737490"/>
<path d="M188.311 245.532H184.049V247.284H188.311V245.532Z" fill="#737490"/>
<path d="M181.46 247.437V245.366L182.572 246.402L181.46 247.437Z" fill="#737490"/>
<path d="M190.899 200.107H186.637V201.859H190.899V200.107Z" fill="#737490"/>
<path d="M184.049 202.013V199.942L185.161 200.978L184.049 202.013Z" fill="#737490"/>
<path d="M190.899 239.033H186.637V240.785H190.899V239.033Z" fill="#737490"/>
<path d="M184.049 240.95V238.879L185.161 239.914L184.049 240.95Z" fill="#737490"/>
<path d="M193.488 206.606H189.226V208.358H193.488V206.606Z" fill="#737490"/>
<path d="M186.637 208.512V206.441L187.749 207.477L186.637 208.512Z" fill="#737490"/>
<path d="M193.973 213.083H189.71V214.834H193.973V213.083Z" fill="#737490"/>
<path d="M186.637 213.402H188.707L187.672 214.515L186.637 213.402Z" fill="#737490"/>
<path d="M193.973 219.57H189.71V221.322H193.973V219.57Z" fill="#737490"/>
<path d="M186.637 219.89H188.707L187.672 221.002L186.637 219.89Z" fill="#737490"/>
<path d="M193.973 226.058H189.71V227.809H193.973V226.058Z" fill="#737490"/>
<path d="M186.637 226.378H188.707L187.672 227.49L186.637 226.378Z" fill="#737490"/>
<path d="M193.973 232.546H189.71V234.297H193.973V232.546Z" fill="#737490"/>
<path d="M186.637 232.865H188.707L187.672 233.978L186.637 232.865Z" fill="#737490"/>
<path d="M180.546 258.507H176.283V260.258H180.546V258.507Z" fill="#737490"/>
<path d="M173.706 260.413V258.342L174.808 259.377L173.706 260.413Z" fill="#737490"/>
<path d="M180.546 264.995H176.283V266.746H180.546V264.995Z" fill="#737490"/>
<path d="M173.222 265.314H175.292L174.257 266.427L173.222 265.314Z" fill="#737490"/>
<path d="M180.546 271.482H176.283V273.234H180.546V271.482Z" fill="#737490"/>
<path d="M173.222 271.802H175.292L174.257 272.914L173.222 271.802Z" fill="#737490"/>
<path d="M183.135 277.97H178.872V279.721H183.135V277.97Z" fill="#737490"/>
<path d="M176.283 279.886V277.815L177.396 278.851L176.283 279.886Z" fill="#737490"/>
<path d="M185.723 284.469H181.46V286.22H185.723V284.469Z" fill="#737490"/>
<path d="M178.872 286.374V284.304L179.985 285.339L178.872 286.374Z" fill="#737490"/>
<path d="M185.723 290.956H181.46V292.707H185.723V290.956Z" fill="#737490"/>
<path d="M178.872 292.873V290.802L179.985 291.837L178.872 292.873Z" fill="#737490"/>
<path d="M186.208 297.443H181.945V299.195H186.208V297.443Z" fill="#737490"/>
<path d="M178.872 297.763H180.943L179.907 298.875L178.872 297.763Z" fill="#737490"/>
<path d="M186.208 303.932H181.945V305.683H186.208V303.932Z" fill="#737490"/>
<path d="M178.872 304.251H180.943L179.907 305.363L178.872 304.251Z" fill="#737490"/>
<path d="M186.208 310.419H181.945V312.17H186.208V310.419Z" fill="#737490"/>
<path d="M178.872 310.738H180.943L179.907 311.851L178.872 310.738Z" fill="#737490"/>
<path d="M186.208 316.906H181.945V318.658H186.208V316.906Z" fill="#737490"/>
<path d="M178.872 317.226H180.943L179.907 318.338L178.872 317.226Z" fill="#737490"/>
<path d="M586.104 131.135H154.596V141.643H586.104V131.135Z" fill="#4A4B5C"/>
<path d="M164.498 136.399C164.498 136.793 164.381 137.179 164.162 137.507C163.943 137.834 163.632 138.09 163.267 138.241C162.903 138.392 162.502 138.431 162.115 138.354C161.729 138.277 161.373 138.087 161.095 137.809C160.816 137.53 160.626 137.175 160.549 136.788C160.472 136.401 160.512 136 160.662 135.636C160.813 135.272 161.069 134.96 161.397 134.741C161.725 134.522 162.11 134.405 162.504 134.405C163.033 134.405 163.54 134.615 163.914 134.989C164.288 135.363 164.498 135.87 164.498 136.399Z" fill="#CCCCCC"/>
<path d="M172.615 136.399C172.615 136.793 172.498 137.179 172.279 137.507C172.06 137.834 171.749 138.09 171.385 138.241C171.02 138.392 170.619 138.431 170.233 138.354C169.846 138.277 169.491 138.087 169.212 137.809C168.933 137.53 168.743 137.175 168.666 136.788C168.589 136.401 168.629 136 168.78 135.636C168.931 135.272 169.186 134.96 169.514 134.741C169.842 134.522 170.227 134.405 170.622 134.405C171.15 134.405 171.657 134.615 172.031 134.989C172.405 135.363 172.615 135.87 172.615 136.399Z" fill="#737490"/>
<path d="M180.744 136.399C180.744 136.793 180.627 137.179 180.408 137.507C180.189 137.834 179.878 138.09 179.513 138.241C179.149 138.392 178.748 138.431 178.362 138.354C177.975 138.277 177.62 138.087 177.341 137.809C177.062 137.53 176.872 137.175 176.795 136.788C176.718 136.401 176.758 136 176.909 135.636C177.059 135.272 177.315 134.96 177.643 134.741C177.971 134.522 178.356 134.405 178.75 134.405C179.279 134.405 179.786 134.615 180.16 134.989C180.534 135.363 180.744 135.87 180.744 136.399Z" fill="#455A64"/>
<path d="M276.649 188.366H268.861V190.272H276.649V188.366Z" fill="#FFC727"/>
<path d="M458.389 188.366H285.823V190.272H458.389V188.366Z" fill="#FFC727"/>
<path d="M477.962 188.366H463.181V190.272H477.962V188.366Z" fill="#4A4B5C"/>
<path d="M536.747 233.504H486.84V235.409H536.747V233.504Z" fill="#FFC727"/>
<path d="M554.448 188.366H481.179V190.272H554.448V188.366Z" fill="#BDBCBC"/>
<path d="M276.649 197.387H268.861V199.292H276.649V197.387Z" fill="#FFC727"/>
<path d="M352.022 197.387H293.413V199.292H352.022V197.387Z" fill="#BDBCBC"/>
<path d="M483.337 233.504H461.165V235.409H483.337V233.504Z" fill="#BDBCBC"/>
<path d="M341.799 224.472H285.823V226.377H341.799V224.472Z" fill="#BDBCBC"/>
<path d="M332.68 206.419H293.413V208.324H332.68V206.419Z" fill="#4A4B5C"/>
<path d="M547.465 215.44H473.072V217.346H547.465V215.44Z" fill="#BDBCBC"/>
<path d="M458.4 259.752H384.008V261.657H458.4V259.752Z" fill="#BDBCBC"/>
<path d="M483.018 206.419H337.042V208.324H483.018V206.419Z" fill="#BDBCBC"/>
<path d="M456.087 233.504H285.823V235.409H456.087V233.504Z" fill="#4A4B5C"/>
<path d="M476.321 197.387H355.7V199.292H476.321V197.387Z" fill="#FFC727"/>
<path d="M514.509 206.419H489.264V208.324H514.509V206.419Z" fill="#FFC727"/>
<path d="M276.649 206.419H268.861V208.324H276.649V206.419Z" fill="#FFC727"/>
<path d="M276.649 215.44H268.861V217.346H276.649V215.44Z" fill="#BDBCBC"/>
<path d="M331.831 215.44H285.823V217.346H331.831V215.44Z" fill="#FFC727"/>
<path d="M339.421 242.525H293.413V244.431H339.421V242.525Z" fill="#FFC727"/>
<path d="M526.713 251.557H462.476V253.462H526.713V251.557Z" fill="#4A4B5C"/>
<path d="M458.455 251.557H335.025V253.462H458.455V251.557Z" fill="#FFC727"/>
<path d="M327.999 251.557H293.413V253.462H327.999V251.557Z" fill="#BDBCBC"/>
<path d="M477.962 224.472H344.972V226.377H477.962V224.472Z" fill="#FFC727"/>
<path d="M560.528 224.472H481.179V226.377H560.528V224.472Z" fill="#4A4B5C"/>
<path d="M469.448 215.44H336.513V217.346H469.448V215.44Z" fill="#4A4B5C"/>
<path d="M276.649 224.472H268.861V226.377H276.649V224.472Z" fill="#FFC727"/>
<path d="M276.649 233.504H268.861V235.409H276.649V233.504Z" fill="#FFC727"/>
<path d="M276.649 242.525H268.861V244.431H276.649V242.525Z" fill="#BDBCBC"/>
<path d="M276.649 251.557H268.861V253.462H276.649V251.557Z" fill="#FFC727"/>
<path d="M276.649 259.752H268.861V261.657H276.649V259.752Z" fill="#FFC727"/>
<path d="M377.101 259.752H285.823V261.657H377.101V259.752Z" fill="#FFC727"/>
<path d="M276.649 268.784H268.861V270.69H276.649V268.784Z" fill="#FFC727"/>
<path d="M352.022 268.784H293.413V270.69H352.022V268.784Z" fill="#BDBCBC"/>
<path d="M341.799 295.857H285.823V297.763H341.799V295.857Z" fill="#BDBCBC"/>
<path d="M332.68 277.805H293.413V279.71H332.68V277.805Z" fill="#4A4B5C"/>
<path d="M422.614 313.922H383.347V315.827H422.614V313.922Z" fill="#4A4B5C"/>
<path d="M332.68 331.975H293.413V333.88H332.68V331.975Z" fill="#4A4B5C"/>
<path d="M483.018 277.805H337.042V279.71H483.018V277.805Z" fill="#BDBCBC"/>
<path d="M456.087 304.89H285.823V306.795H456.087V304.89Z" fill="#4A4B5C"/>
<path d="M476.321 268.784H355.7V270.69H476.321V268.784Z" fill="#FFC727"/>
<path d="M501.853 286.837H476.651V288.742H501.853V286.837Z" fill="#FFC727"/>
<path d="M276.649 277.805H268.861V279.71H276.649V277.805Z" fill="#FFC727"/>
<path d="M276.649 286.837H268.861V288.742H276.649V286.837Z" fill="#BDBCBC"/>
<path d="M331.831 286.837H285.823V288.742H331.831V286.837Z" fill="#FFC727"/>
<path d="M477.962 295.857H344.972V297.763H477.962V295.857Z" fill="#FFC727"/>
<path d="M469.448 286.837H336.513V288.742H469.448V286.837Z" fill="#4A4B5C"/>
<path d="M276.649 295.857H268.861V297.763H276.649V295.857Z" fill="#FFC727"/>
<path d="M276.649 313.922H268.861V315.827H276.649V313.922Z" fill="#FFC727"/>
<path d="M377.101 313.922H285.823V315.827H377.101V313.922Z" fill="#FFC727"/>
<path d="M276.649 322.942H268.861V324.848H276.649V322.942Z" fill="#FFC727"/>
<path d="M352.022 322.942H293.413V324.848H352.022V322.942Z" fill="#BDBCBC"/>
<path d="M341.799 350.027H285.823V351.933H341.799V350.027Z" fill="#BDBCBC"/>
<path d="M483.018 331.975H337.042V333.88H483.018V331.975Z" fill="#BDBCBC"/>
<path d="M501.853 340.995H476.651V342.901H501.853V340.995Z" fill="#FFC727"/>
<path d="M276.649 331.975H268.861V333.88H276.649V331.975Z" fill="#FFC727"/>
<path d="M276.649 340.995H268.861V342.901H276.649V340.995Z" fill="#BDBCBC"/>
<path d="M331.831 340.995H285.823V342.901H331.831V340.995Z" fill="#FFC727"/>
<path d="M477.962 350.027H344.972V351.933H477.962V350.027Z" fill="#FFC727"/>
<path d="M469.448 340.995H336.513V342.901H469.448V340.995Z" fill="#4A4B5C"/>
<path d="M276.649 350.027H268.861V351.933H276.649V350.027Z" fill="#FFC727"/>
<path d="M273.664 170.919C273.729 170.981 273.781 171.055 273.816 171.138C273.851 171.22 273.87 171.309 273.87 171.398C273.87 171.488 273.851 171.577 273.816 171.659C273.781 171.741 273.729 171.816 273.664 171.878C273.604 171.94 273.532 171.989 273.453 172.023C273.373 172.057 273.288 172.075 273.201 172.076C273.017 172.077 272.839 172.006 272.706 171.878L269.699 168.838C269.699 168.838 269.699 168.838 269.699 168.771C269.694 168.742 269.694 168.712 269.699 168.683C269.699 168.683 269.699 168.628 269.699 168.617C269.699 168.606 269.699 168.617 269.699 168.562V168.485C269.699 168.485 269.699 168.485 269.699 168.419C269.699 168.353 269.699 168.419 269.699 168.364V168.232C269.699 168.232 269.699 168.177 269.699 168.144C269.715 168.109 269.733 168.076 269.754 168.044C269.754 168.044 269.754 168.044 269.809 167.978L272.816 164.927C272.945 164.804 273.117 164.735 273.295 164.735C273.473 164.735 273.645 164.804 273.774 164.927C273.839 164.989 273.891 165.063 273.926 165.146C273.962 165.228 273.98 165.317 273.98 165.406C273.98 165.496 273.962 165.585 273.926 165.667C273.891 165.75 273.839 165.824 273.774 165.886L271.241 168.441L273.664 170.919Z" fill="#4A4B5C"/>
<path d="M276.384 171.26L279.005 165.037C279.035 164.964 279.08 164.898 279.135 164.843C279.191 164.788 279.257 164.744 279.33 164.714C279.402 164.684 279.48 164.669 279.559 164.67C279.637 164.67 279.715 164.687 279.787 164.717C279.857 164.747 279.92 164.791 279.973 164.845C280.026 164.9 280.067 164.964 280.095 165.035C280.123 165.106 280.136 165.181 280.134 165.257C280.133 165.333 280.116 165.408 280.085 165.477L277.463 171.723C277.418 171.828 277.342 171.917 277.246 171.98C277.15 172.043 277.038 172.076 276.923 172.075C276.851 172.091 276.776 172.091 276.703 172.075C276.625 172.047 276.555 172.002 276.495 171.944C276.436 171.886 276.39 171.817 276.36 171.74C276.329 171.663 276.316 171.58 276.32 171.497C276.324 171.414 276.346 171.334 276.384 171.26Z" fill="#4A4B5C"/>
<path d="M285.251 168.75C285.251 168.75 285.251 168.805 285.185 168.827L282.178 171.867C282.114 171.93 282.038 171.98 281.955 172.014C281.872 172.048 281.783 172.065 281.693 172.065C281.561 172.061 281.432 172.02 281.323 171.944C281.214 171.869 281.129 171.764 281.079 171.641C281.029 171.519 281.015 171.384 281.04 171.254C281.065 171.124 281.127 171.004 281.219 170.908L283.753 168.353L281.219 165.798C281.154 165.736 281.103 165.662 281.067 165.579C281.032 165.497 281.014 165.408 281.014 165.319C281.014 165.229 281.032 165.14 281.067 165.058C281.103 164.975 281.154 164.901 281.219 164.839C281.348 164.716 281.52 164.647 281.699 164.647C281.877 164.647 282.049 164.716 282.178 164.839L285.185 167.89C285.185 167.89 285.185 167.89 285.251 167.957C285.271 167.989 285.289 168.022 285.306 168.056C285.303 168.089 285.303 168.122 285.306 168.155V168.221C285.306 168.221 285.306 168.221 285.306 168.276V168.419C285.304 168.452 285.304 168.485 285.306 168.518L285.251 168.75Z" fill="#4A4B5C"/>
<path d="M143.724 189.941H87.5605V116.584H129.901L143.724 130.407V189.941Z" fill="#4A4B5C"/>
<path opacity="0.6" d="M143.724 189.941H87.5605V116.584H129.901L143.724 130.407V189.941Z" fill="#737490"/>
<path d="M143.724 130.407H129.9V116.584L143.724 130.407Z" fill="#4A4B5C"/>
<path d="M100.547 142.436C100.549 143.264 100.797 144.072 101.258 144.759C101.72 145.446 102.375 145.981 103.141 146.296C103.907 146.611 104.748 146.691 105.56 146.528C106.371 146.364 107.116 145.964 107.7 145.377C108.284 144.79 108.68 144.043 108.84 143.231C108.999 142.418 108.914 141.577 108.595 140.813C108.276 140.049 107.738 139.397 107.049 138.939C106.359 138.48 105.549 138.237 104.721 138.239C104.171 138.239 103.627 138.348 103.119 138.559C102.611 138.77 102.15 139.08 101.762 139.47C101.374 139.86 101.067 140.323 100.858 140.832C100.65 141.341 100.544 141.886 100.547 142.436Z" fill="#4A4B5C"/>
<path d="M107.001 161.039H135.408L121.21 143.702L107.001 161.039Z" fill="#4A4B5C"/>
<path d="M95.8652 161.039H119.315L107.596 149.749L95.8652 161.039Z" fill="#4A4B5C"/>
<path opacity="0.1" d="M95.8652 161.039H119.315L107.596 149.749L95.8652 161.039Z" fill="black"/>
<path d="M135.397 133.293H95.8652V161.039H135.397V133.293Z" stroke="#4A4B5C" stroke-width="2" stroke-miterlimit="10"/>
<path d="M114.26 164.035H73.9131V180.733H114.26V164.035Z" fill="#455A64"/>
<path d="M85.7653 168.584V176.68H84.2012V173.221H80.5224V176.68H78.9473V168.584H80.5224V171.888H84.2012V168.584H85.7653Z" fill="#737490"/>
<path d="M93.4975 169.961H90.9091V176.68H89.356V169.961H86.7676V168.584H93.4975V169.961Z" fill="#737490"/>
<path d="M101.108 176.68V171.316L99.0154 175.314H98.1673L96.0856 171.316V176.68H94.5215V168.584H96.2067L98.5969 173.188L101.02 168.584H102.694V176.68H101.108Z" fill="#737490"/>
<path d="M104.369 176.68V168.584H105.999V175.303H110.13V176.68H104.369Z" fill="#737490"/>
<path d="M143.724 279.05H87.4941V205.615H129.889L143.724 219.45V279.05Z" fill="#4A4B5C"/>
<path opacity="0.6" d="M143.724 279.05H87.4941V205.615H129.889L143.724 219.45V279.05Z" fill="#737490"/>
<path d="M143.724 219.45H129.89V205.615L143.724 219.45Z" fill="#4A4B5C"/>
<path d="M100.492 231.489C100.494 232.319 100.743 233.13 101.206 233.818C101.668 234.507 102.325 235.044 103.093 235.359C103.861 235.675 104.705 235.756 105.518 235.592C106.332 235.428 107.079 235.026 107.664 234.437C108.249 233.849 108.647 233.1 108.807 232.286C108.967 231.471 108.881 230.628 108.562 229.862C108.242 229.096 107.702 228.442 107.011 227.982C106.32 227.523 105.508 227.279 104.678 227.281C103.566 227.287 102.501 227.733 101.717 228.521C100.932 229.31 100.492 230.377 100.492 231.489Z" fill="#4A4B5C"/>
<path d="M106.969 250.114H135.397L121.178 232.755L106.969 250.114Z" fill="#4A4B5C"/>
<path d="M95.8213 250.114H119.293L107.552 238.813L95.8213 250.114Z" fill="#4A4B5C"/>
<path opacity="0.1" d="M95.8213 250.114H119.293L107.552 238.813L95.8213 250.114Z" fill="black"/>
<path d="M135.397 222.347H95.8213V250.114H135.397V222.347Z" stroke="#4A4B5C" stroke-width="2" stroke-miterlimit="10"/>
<path d="M114.227 253.11H73.8477V269.82H114.227V253.11Z" fill="#455A64"/>
<path d="M83.3865 261.657C83.3876 261.157 83.4771 260.661 83.6509 260.192C83.8267 259.713 84.0921 259.272 84.4329 258.892C84.7889 258.507 85.2151 258.193 85.6886 257.967C86.2175 257.727 86.793 257.607 87.3738 257.615C88.0536 257.596 88.7251 257.768 89.3124 258.11C89.8299 258.412 90.2503 258.855 90.524 259.388L89.3124 260.225C89.1409 259.818 88.8333 259.483 88.4422 259.278C88.2694 259.183 88.084 259.112 87.8915 259.069C87.7062 259.034 87.5183 259.016 87.3298 259.014C86.971 259.005 86.6155 259.085 86.2944 259.245C86.0138 259.405 85.7669 259.618 85.5674 259.873C85.367 260.132 85.2175 260.428 85.1268 260.743C84.9216 261.392 84.9216 262.088 85.1268 262.736C85.2346 263.053 85.3988 263.348 85.6115 263.607C85.8209 263.858 86.0795 264.064 86.3715 264.212C86.6665 264.369 86.996 264.448 87.3298 264.444C87.5225 264.443 87.7146 264.421 87.9025 264.378C88.0996 264.332 88.2888 264.258 88.4643 264.157C88.6523 264.061 88.8205 263.93 88.9599 263.772C89.1179 263.609 89.2449 263.419 89.3344 263.21L90.6231 263.948C90.4929 264.252 90.3017 264.525 90.0614 264.752C89.8251 264.99 89.554 265.191 89.2573 265.347C88.9488 265.504 88.6237 265.626 88.288 265.71C87.9605 265.793 87.6236 265.834 87.2857 265.832C86.7358 265.837 86.1923 265.712 85.6996 265.468C85.233 265.232 84.8146 264.911 84.466 264.521C84.1159 264.125 83.8398 263.67 83.6509 263.177C83.466 262.692 83.3762 262.176 83.3865 261.657Z" fill="#737490"/>
<path d="M96.5262 259.785C96.4392 259.701 96.3432 259.627 96.2398 259.565C95.876 259.348 95.4828 259.185 95.0723 259.08C94.8351 259.018 94.5905 258.988 94.3453 258.992C94.0062 258.969 93.6682 259.05 93.376 259.223C93.2718 259.303 93.1882 259.407 93.1326 259.526C93.077 259.645 93.0509 259.775 93.0566 259.906C93.0526 260.052 93.0951 260.194 93.1778 260.314C93.275 260.435 93.3946 260.536 93.5303 260.611C93.7139 260.702 93.9057 260.776 94.103 260.832C94.3343 260.909 94.6097 260.975 94.9071 261.052C95.2045 261.129 95.6671 261.272 96.0085 261.393C96.3079 261.5 96.5872 261.656 96.8346 261.856C97.0542 262.03 97.2312 262.253 97.3523 262.506C97.484 262.804 97.548 263.127 97.5396 263.453C97.5466 263.835 97.4596 264.214 97.2862 264.554C97.1262 264.851 96.9001 265.108 96.6253 265.303C96.3338 265.5 96.0092 265.642 95.6671 265.722C95.305 265.8 94.9359 265.84 94.5656 265.843C93.9539 265.843 93.3455 265.754 92.7592 265.579C92.188 265.406 91.6486 265.142 91.1621 264.797L91.856 263.442C91.9744 263.539 92.0996 263.627 92.2305 263.706C92.6815 263.976 93.1669 264.184 93.6734 264.323C93.9723 264.398 94.2795 264.435 94.5877 264.433C95.4578 264.433 95.8874 264.158 95.8874 263.596C95.8944 263.437 95.8435 263.28 95.7442 263.156C95.6266 263.018 95.4798 262.909 95.3146 262.836C95.1023 262.732 94.8811 262.647 94.6537 262.583L93.7836 262.33C93.4414 262.241 93.1063 262.127 92.7813 261.988C92.52 261.877 92.2783 261.724 92.0653 261.536C91.8793 261.373 91.7325 261.17 91.6357 260.942C91.5383 260.685 91.4897 260.412 91.4926 260.138C91.4842 259.758 91.5633 259.381 91.7239 259.036C91.8725 258.726 92.0867 258.452 92.3517 258.232C92.6356 258.015 92.9565 257.851 93.2989 257.747C93.6562 257.639 94.0272 257.584 94.4004 257.582C94.9378 257.577 95.4717 257.671 95.9755 257.858C96.4047 258.042 96.8113 258.274 97.1871 258.552L96.5262 259.785Z" fill="#737490"/>
<path d="M103.531 259.785C103.438 259.705 103.338 259.631 103.234 259.565C102.873 259.342 102.479 259.179 102.066 259.08C101.833 259.018 101.592 258.988 101.35 258.992C101.011 258.966 100.672 259.047 100.381 259.224C100.275 259.302 100.191 259.405 100.135 259.525C100.079 259.644 100.054 259.775 100.062 259.907C100.055 260.051 100.093 260.193 100.172 260.314C100.269 260.435 100.389 260.536 100.524 260.611C100.708 260.702 100.9 260.776 101.097 260.832C101.328 260.909 101.604 260.975 101.901 261.052C102.199 261.129 102.661 261.272 103.003 261.393C103.303 261.498 103.583 261.654 103.829 261.856C104.048 262.031 104.225 262.253 104.346 262.506C104.478 262.804 104.542 263.128 104.534 263.453C104.541 263.836 104.454 264.214 104.28 264.555C104.128 264.857 103.901 265.115 103.619 265.304C103.328 265.5 103.003 265.642 102.661 265.722C102.299 265.801 101.93 265.841 101.56 265.843C100.948 265.843 100.34 265.754 99.7534 265.579C99.1832 265.404 98.6442 265.14 98.1562 264.797L98.8612 263.442C98.973 263.542 99.0948 263.631 99.2247 263.707C99.4317 263.828 99.6449 263.938 99.8635 264.037C100.123 264.156 100.392 264.251 100.668 264.323C100.966 264.399 101.274 264.436 101.582 264.434C102.452 264.434 102.882 264.158 102.882 263.596C102.889 263.437 102.838 263.281 102.738 263.156C102.622 263.021 102.48 262.913 102.32 262.836C102.103 262.734 101.878 262.65 101.648 262.583L100.789 262.33C100.442 262.243 100.104 262.129 99.7754 261.988C99.5141 261.877 99.2724 261.725 99.0594 261.537C98.8735 261.373 98.7267 261.17 98.6299 260.942C98.5324 260.685 98.4839 260.412 98.4867 260.138C98.4783 259.758 98.5574 259.381 98.718 259.036C98.867 258.723 99.0855 258.448 99.3568 258.232C99.6368 258.015 99.9541 257.851 100.293 257.748C100.651 257.641 101.021 257.585 101.395 257.582C101.932 257.575 102.466 257.668 102.97 257.858C103.411 258.018 103.832 258.228 104.225 258.486L103.531 259.785Z" fill="#737490"/>
<path d="M82.1962 241.578H81.0947" stroke="#263238" stroke-width="0.75" stroke-miterlimit="10"/>
<path d="M79.0796 241.578H72.0303" stroke="#263238" stroke-width="0.75" stroke-miterlimit="10" stroke-dasharray="1.83 1.83"/>
<path d="M71.0272 241.578H69.9258V240.477" stroke="#263238" stroke-width="0.75" stroke-miterlimit="10"/>
<path d="M69.9258 238.295V143.404" stroke="#263238" stroke-width="0.75" stroke-miterlimit="10" stroke-dasharray="1.98 1.98"/>
<path d="M69.9258 142.314V141.213H71.0272" stroke="#263238" stroke-width="0.75" stroke-miterlimit="10"/>
<path d="M72.8008 141.213H79.0461" stroke="#263238" stroke-width="0.75" stroke-miterlimit="10" stroke-dasharray="1.62 1.62"/>
<path d="M79.9277 141.213H81.0292" stroke="#263238" stroke-width="0.75" stroke-miterlimit="10"/>
<path d="M82.1411 240.333C82.3873 240.333 82.6279 240.406 82.8326 240.543C83.0373 240.68 83.1968 240.874 83.291 241.101C83.3853 241.329 83.4099 241.579 83.3619 241.82C83.3138 242.062 83.1953 242.284 83.0212 242.458C82.8472 242.632 82.6254 242.75 82.384 242.798C82.1425 242.846 81.8923 242.822 81.6648 242.728C81.4374 242.633 81.243 242.474 81.1062 242.269C80.9695 242.064 80.8965 241.824 80.8965 241.578C80.8994 241.248 81.0314 240.934 81.2642 240.701C81.497 240.468 81.8119 240.336 82.1411 240.333Z" fill="#263238"/>
<path d="M80.9741 142.457C81.6615 142.457 82.2188 141.9 82.2188 141.212C82.2188 140.525 81.6615 139.968 80.9741 139.968C80.2867 139.968 79.7295 140.525 79.7295 141.212C79.7295 141.9 80.2867 142.457 80.9741 142.457Z" fill="#263238"/>
<path d="M69.9262 191.329H56.4443V76.4141H200.537" stroke="#263238" stroke-width="0.75" stroke-miterlimit="10" stroke-dasharray="2 2"/>
<path d="M200.053 78.0551L202.906 76.4139L200.053 74.7617V78.0551Z" fill="#263238"/>
<path d="M714.831 44.6143H297.675V308.744H714.831V44.6143Z" fill="#737490"/>
<path d="M714.963 308.877H297.51V44.5264H714.963V308.877ZM297.807 308.601H714.688V44.7467H297.807V308.601Z" fill="#263238"/>
<path d="M714.831 44.6143H297.675V54.7807H714.831V44.6143Z" fill="#4A4B5C"/>
<path d="M307.236 49.6917C307.238 50.0757 307.125 50.4516 306.912 50.7711C306.699 51.0907 306.396 51.3393 306.04 51.4851C305.685 51.631 305.294 51.6674 304.918 51.5897C304.542 51.512 304.198 51.3237 303.93 51.049C303.661 50.7743 303.481 50.4258 303.412 50.048C303.343 49.6702 303.389 49.2805 303.543 48.9287C303.697 48.5769 303.952 48.2792 304.277 48.0737C304.601 47.8682 304.98 47.7642 305.363 47.7752C305.864 47.7867 306.34 47.9937 306.69 48.3519C307.04 48.7101 307.236 49.191 307.236 49.6917Z" fill="#CCCCCC"/>
<path d="M315.089 49.692C315.092 50.0741 314.98 50.4483 314.769 50.767C314.558 51.0856 314.257 51.3344 313.905 51.4817C313.552 51.6289 313.164 51.668 312.789 51.594C312.414 51.52 312.069 51.3362 311.799 51.0659C311.529 50.7957 311.345 50.4512 311.271 50.0763C311.197 49.7014 311.236 49.3129 311.383 48.9602C311.53 48.6076 311.779 48.3066 312.098 48.0957C312.417 47.8847 312.791 47.7732 313.173 47.7754C313.681 47.7754 314.169 47.9773 314.528 48.3368C314.888 48.6962 315.089 49.1837 315.089 49.692Z" fill="#737490"/>
<path d="M322.987 49.692C322.989 50.0741 322.878 50.4483 322.667 50.767C322.456 51.0856 322.155 51.3344 321.802 51.4817C321.449 51.6289 321.061 51.668 320.686 51.594C320.311 51.52 319.967 51.3362 319.696 51.0659C319.426 50.7957 319.242 50.4512 319.168 50.0763C319.094 49.7014 319.133 49.3129 319.281 48.9602C319.428 48.6076 319.677 48.3066 319.995 48.0957C320.314 47.8847 320.688 47.7732 321.07 47.7754C321.579 47.7754 322.066 47.9773 322.426 48.3368C322.785 48.6962 322.987 49.1837 322.987 49.692Z" fill="#455A64"/>
<path d="M340.379 54.7695H309.538V191.78H340.379V54.7695Z" fill="#FFC727"/>
<path d="M688.957 71.666H323.548V104.853H688.957V71.666Z" fill="#4A4B5C"/>
<path d="M348.794 84.5098H340.379V85.8756H348.794V84.5098Z" fill="#737490"/>
<path d="M348.794 90.6445H340.379V92.0103H348.794V90.6445Z" fill="#737490"/>
<path d="M348.794 87.6152H340.379V88.9811H348.794V87.6152Z" fill="#737490"/>
<path d="M448.62 83.2754H367.618V93.2546H448.62V83.2754Z" fill="#737490"/>
<path d="M448.718 93.3321H367.519V83.1436H448.718V93.3321Z" fill="#737490"/>
<path d="M448.718 83.166H438.529V93.3545H448.718V83.166Z" fill="#455A64"/>
<path d="M446.79 91.0633L445.865 91.7572L444.158 89.5543L443.541 88.7282C443.667 88.6733 443.785 88.603 443.893 88.5189C444.102 88.3623 444.266 88.1533 444.367 87.9131L445.028 88.7832L446.79 91.0633Z" fill="#737490"/>
<path d="M444.973 85.7536C444.681 85.375 444.287 85.0878 443.837 84.9258C443.387 84.7638 442.9 84.7337 442.433 84.839C441.966 84.9443 441.54 85.1806 441.203 85.5203C440.866 85.8599 440.633 86.2886 440.532 86.7561C440.43 87.2235 440.464 87.7102 440.63 88.1589C440.796 88.6076 441.086 88.9996 441.467 89.2888C441.848 89.5781 442.304 89.7525 442.781 89.7916C443.257 89.8307 443.735 89.7328 444.158 89.5095C444.282 89.4428 444.4 89.3654 444.511 89.2782C444.711 89.1265 444.885 88.9443 445.029 88.7385C445.342 88.3012 445.505 87.7746 445.495 87.2369C445.485 86.6992 445.302 86.179 444.973 85.7536ZM443.872 88.4742C443.764 88.5583 443.645 88.6286 443.52 88.6834C443.181 88.8179 442.805 88.8255 442.462 88.7047C442.118 88.5839 441.83 88.3429 441.65 88.0262C441.47 87.7095 441.411 87.3384 441.483 86.9814C441.556 86.6245 441.755 86.3057 442.044 86.084C442.305 85.8848 442.624 85.7762 442.952 85.7748C443.28 85.7733 443.6 85.879 443.863 86.0759C444.126 86.2727 444.318 86.55 444.409 86.8655C444.5 87.1811 444.485 87.5177 444.368 87.8243C444.273 88.0806 444.109 88.3055 443.894 88.4742H443.872Z" fill="#737490"/>
<path d="M370.251 85.2363H369.711V91.2944H370.251V85.2363Z" fill="#CCCCCC"/>
<path d="M672.073 86.7451H637.068V89.7851H672.073V86.7451Z" fill="#737490"/>
<path d="M618.354 86.7451H583.35V89.7851H618.354V86.7451Z" fill="#737490"/>
<path opacity="0.1" d="M564.636 86.7451H529.632V89.7851H564.636V86.7451Z" fill="black"/>
<path d="M510.917 86.7451H475.913V89.7851H510.917V86.7451Z" fill="#737490"/>
<path d="M714.831 208.259H297.675V241.446H714.831V208.259Z" fill="#4A4B5C"/>
<path d="M404.285 257.119H323.548V260.853H404.285V257.119Z" fill="#455A64"/>
<path d="M323.548 269.919L336.501 269.72L349.454 269.599L375.361 269.5L401.267 269.599L414.22 269.709L427.173 269.919L414.22 270.117L401.267 270.238L375.361 270.326L349.454 270.238L336.501 270.117L323.548 269.919Z" fill="#BDBCBC"/>
<path d="M323.548 275.007L336.501 274.809L349.454 274.699L375.361 274.6L401.267 274.688L414.22 274.809L427.173 275.007L414.22 275.216L401.267 275.327L375.361 275.426L349.454 275.327L336.501 275.216L323.548 275.007Z" fill="#BDBCBC"/>
<path d="M323.548 280.107L336.501 279.909L349.454 279.788L375.361 279.688L401.267 279.788L414.22 279.909L427.173 280.107L414.22 280.305L401.267 280.426L375.361 280.515L349.454 280.426L336.501 280.305L323.548 280.107Z" fill="#BDBCBC"/>
<path d="M323.548 285.196L336.501 284.997L349.454 284.887L375.361 284.788L401.267 284.887L414.22 284.997L427.173 285.196L414.22 285.405L401.267 285.515L375.361 285.614L349.454 285.515L336.501 285.405L323.548 285.196Z" fill="#BDBCBC"/>
<path d="M323.548 290.295C327.866 290.13 332.183 290.042 336.501 289.976L349.454 289.888L362.407 289.976C366.725 290.042 371.043 290.119 375.36 290.295C371.043 290.471 366.725 290.549 362.407 290.615L349.421 290.714L336.468 290.615C332.183 290.549 327.866 290.493 323.548 290.295Z" fill="#BDBCBC"/>
<path d="M535.172 257.119H454.435V260.853H535.172V257.119Z" fill="#455A64"/>
<path d="M454.435 269.919L467.388 269.72L480.341 269.599L506.247 269.5L532.154 269.599L545.107 269.709L558.06 269.919L545.107 270.117L532.154 270.238L506.247 270.326L480.341 270.238L467.388 270.117L454.435 269.919Z" fill="#BDBCBC"/>
<path d="M454.435 275.007L467.388 274.809L480.341 274.699L506.247 274.6L532.154 274.688L545.107 274.809L558.06 275.007L545.107 275.216L532.154 275.327L506.247 275.426L480.341 275.327L467.388 275.216L454.435 275.007Z" fill="#BDBCBC"/>
<path d="M454.435 280.107L467.388 279.909L480.341 279.788L506.247 279.688L532.154 279.788L545.107 279.909L558.06 280.107L545.107 280.305L532.154 280.426L506.247 280.515L480.341 280.426L467.388 280.305L454.435 280.107Z" fill="#BDBCBC"/>
<path d="M454.435 285.196L467.388 284.997L480.341 284.887L506.247 284.788L532.154 284.887L545.107 284.997L558.06 285.196L545.107 285.405L532.154 285.515L506.247 285.614L480.341 285.515L467.388 285.405L454.435 285.196Z" fill="#BDBCBC"/>
<path d="M454.435 290.295C458.752 290.13 463.07 290.042 467.388 289.976L480.341 289.888L493.294 289.976C497.612 290.042 501.93 290.119 506.247 290.295C501.93 290.471 497.612 290.549 493.294 290.615L480.341 290.714L467.388 290.615C463.07 290.549 458.752 290.493 454.435 290.295Z" fill="#BDBCBC"/>
<path d="M666.058 257.119H585.321V260.853H666.058V257.119Z" fill="#455A64"/>
<path d="M585.321 269.919L598.274 269.72L611.228 269.599L637.134 269.5L663.051 269.599L676.004 269.709L688.958 269.919L676.004 270.117L663.051 270.238L637.134 270.326L611.228 270.238L598.274 270.117L585.321 269.919Z" fill="#BDBCBC"/>
<path d="M585.321 275.007L598.274 274.809L611.228 274.699L637.134 274.6L663.051 274.688L676.004 274.809L688.958 275.007L676.004 275.216L663.051 275.327L637.134 275.426L611.228 275.327L598.274 275.216L585.321 275.007Z" fill="#BDBCBC"/>
<path d="M585.321 280.107L598.274 279.909L611.228 279.788L637.134 279.688L663.051 279.788L676.004 279.909L688.958 280.107L676.004 280.305L663.051 280.426L637.134 280.515L611.228 280.426L598.274 280.305L585.321 280.107Z" fill="#BDBCBC"/>
<path d="M585.321 285.196L598.274 284.997L611.228 284.887L637.134 284.788L663.051 284.887L676.004 284.997L688.958 285.196L676.004 285.405L663.051 285.515L637.134 285.614L611.228 285.515L598.274 285.405L585.321 285.196Z" fill="#BDBCBC"/>
<path d="M585.321 290.295C589.639 290.13 593.957 290.042 598.274 289.976L611.228 289.888L624.181 289.976C628.499 290.042 632.816 290.119 637.134 290.295C632.816 290.471 628.499 290.549 624.181 290.615L611.228 290.714L598.274 290.615C593.946 290.549 589.639 290.493 585.321 290.295Z" fill="#BDBCBC"/>
<path d="M369.49 195.933H440.094V125.329L369.49 125.329V195.933Z" fill="#FFC727"/>
<path d="M373.643 191.78H435.941V129.482H373.643V191.78Z" fill="#455A64"/>
<path d="M383.677 144.34C383.429 145.578 383.587 146.863 384.126 148.004C384.664 149.146 385.556 150.084 386.669 150.679C387.782 151.275 389.057 151.496 390.306 151.311C391.555 151.127 392.711 150.545 393.603 149.652C394.496 148.76 395.078 147.604 395.263 146.355C395.448 145.106 395.226 143.831 394.63 142.718C394.035 141.605 393.097 140.713 391.956 140.174C390.814 139.635 389.529 139.478 388.292 139.725C387.153 139.953 386.107 140.513 385.285 141.334C384.464 142.155 383.904 143.201 383.677 144.34Z" fill="#37474F"/>
<path d="M390.914 175.611H435.942L413.428 150.365L390.914 175.611Z" fill="#37474F"/>
<path d="M373.643 175.611H410.817L392.224 159.166L373.643 175.611Z" fill="#263238"/>
<path d="M435.941 175.611H373.643V191.781H435.941V175.611Z" fill="#263238"/>
<path d="M572.412 195.933H643.016V125.329L572.412 125.329V195.933Z" fill="#FFC727"/>
<path d="M576.565 191.78H638.863V129.482H576.565V191.78Z" fill="#455A64"/>
<path d="M586.599 144.341C586.353 145.576 586.512 146.857 587.051 147.996C587.589 149.134 588.48 150.069 589.591 150.662C590.701 151.256 591.973 151.476 593.219 151.291C594.465 151.106 595.618 150.526 596.508 149.635C597.399 148.745 597.979 147.592 598.164 146.346C598.349 145.1 598.129 143.828 597.535 142.718C596.942 141.607 596.007 140.716 594.869 140.178C593.73 139.639 592.449 139.48 591.214 139.726C590.074 139.952 589.027 140.511 588.206 141.333C587.384 142.154 586.825 143.201 586.599 144.341Z" fill="#37474F"/>
<path d="M593.836 175.611H638.864L616.35 150.365L593.836 175.611Z" fill="#37474F"/>
<path d="M576.554 175.611H613.728L595.146 159.166L576.554 175.611Z" fill="#263238"/>
<path d="M638.852 175.611H576.554V191.781H638.852V175.611Z" fill="#263238"/>
<path d="M470.934 195.933H541.549V125.329L470.934 125.329V195.933Z" fill="#FFC727"/>
<path d="M475.098 191.78H537.396V129.482H475.098V191.78Z" fill="#4A4B5C"/>
<path opacity="0.1" d="M485.133 144.34C484.885 145.578 485.043 146.863 485.582 148.004C486.121 149.146 487.012 150.084 488.125 150.679C489.238 151.275 490.513 151.496 491.762 151.311C493.011 151.127 494.167 150.545 495.059 149.652C495.952 148.76 496.534 147.604 496.719 146.355C496.904 145.106 496.682 143.831 496.086 142.718C495.491 141.605 494.553 140.713 493.412 140.174C492.27 139.635 490.986 139.478 489.748 139.725C488.609 139.953 487.563 140.513 486.741 141.334C485.92 142.155 485.36 143.201 485.133 144.34Z" fill="black"/>
<path opacity="0.1" d="M492.369 175.611H537.397L514.883 150.365L492.369 175.611Z" fill="black"/>
<path d="M475.099 175.611H512.273L493.691 159.166L475.099 175.611Z" fill="#4A4B5C"/>
<g opacity="0.2">
<path d="M475.099 175.611H512.273L493.691 159.166L475.099 175.611Z" fill="black"/>
</g>
<path d="M537.397 175.611H475.099V191.781H537.397V175.611Z" fill="#4A4B5C"/>
<path opacity="0.2" d="M537.397 175.611H475.099V191.781H537.397V175.611Z" fill="black"/>
<path d="M373.643 217.213L390.88 217.015L408.118 216.894L442.605 216.795L477.081 216.894L494.319 217.004L511.567 217.213L494.319 217.412L477.081 217.533L442.605 217.621L408.118 217.533L390.88 217.412L373.643 217.213Z" fill="#737490"/>
<path d="M373.643 222.302L390.88 222.104L408.118 221.994L442.605 221.895L477.081 221.994L494.319 222.104L511.567 222.302L494.319 222.511L477.081 222.621L442.605 222.721L408.118 222.621L390.88 222.511L373.643 222.302Z" fill="#737490"/>
<path d="M373.643 227.402L390.88 227.203L408.118 227.082L442.605 226.994L477.081 227.082L494.319 227.203L511.567 227.402L494.319 227.6L477.081 227.721L442.605 227.809L408.118 227.721L390.88 227.6L373.643 227.402Z" fill="#737490"/>
<path d="M373.653 232.502C379.392 232.325 385.142 232.248 390.891 232.182L408.129 232.083L425.367 232.182C431.116 232.248 436.866 232.325 442.616 232.502C436.866 232.667 431.116 232.744 425.367 232.81L408.129 232.909L390.891 232.81C385.131 232.744 379.381 232.667 373.653 232.502Z" fill="#737490"/>
<path d="M328.582 229.913V219.802L323.67 224.494L328.582 229.913Z" fill="#737490"/>
<path d="M684.178 219.802V229.913L689.09 225.221L684.178 219.802Z" fill="#737490"/>
<path d="M234.506 69.2975C234.506 73.5351 235.762 77.6776 238.117 81.2009C240.471 84.7242 243.818 87.4701 247.733 89.0912C251.649 90.7124 255.957 91.136 260.113 90.3085C264.269 89.4809 268.086 87.4395 271.082 84.4423C274.077 81.445 276.117 77.6267 276.942 73.4703C277.768 69.3138 277.342 65.0059 275.719 61.0915C274.095 57.1771 271.348 53.832 267.823 51.4793C264.299 49.1266 260.156 47.872 255.918 47.8741C250.24 47.8829 244.797 50.1431 240.783 54.1592C236.769 58.1753 234.512 63.6194 234.506 69.2975ZM239.066 69.2975C239.064 65.9613 240.051 62.6995 241.903 59.9246C243.755 57.1498 246.389 54.9866 249.471 53.7089C252.553 52.4312 255.944 52.0963 259.216 52.7467C262.488 53.397 265.494 55.0033 267.853 57.3623C270.212 59.7214 271.819 62.7272 272.469 65.9993C273.119 69.2715 272.784 72.6631 271.507 75.7449C270.229 78.8267 268.066 81.4603 265.291 83.3125C262.516 85.1646 259.254 86.152 255.918 86.1499C251.449 86.1499 247.162 84.3744 244.002 81.2139C240.841 78.0535 239.066 73.767 239.066 69.2975ZM234.506 69.2975C234.506 73.5351 235.762 77.6776 238.117 81.2009C240.471 84.7242 243.818 87.4701 247.733 89.0912C251.649 90.7124 255.957 91.136 260.113 90.3085C264.269 89.4809 268.086 87.4395 271.082 84.4423C274.077 81.445 276.117 77.6267 276.942 73.4703C277.768 69.3138 277.342 65.0059 275.719 61.0915C274.095 57.1771 271.348 53.832 267.823 51.4793C264.299 49.1266 260.156 47.872 255.918 47.8741C250.24 47.8829 244.797 50.1431 240.783 54.1592C236.769 58.1753 234.512 63.6194 234.506 69.2975ZM239.066 69.2975C239.064 65.9613 240.051 62.6995 241.903 59.9246C243.755 57.1498 246.389 54.9866 249.471 53.7089C252.553 52.4312 255.944 52.0963 259.216 52.7467C262.488 53.397 265.494 55.0033 267.853 57.3623C270.212 59.7214 271.819 62.7272 272.469 65.9993C273.119 69.2715 272.784 72.6631 271.507 75.7449C270.229 78.8267 268.066 81.4603 265.291 83.3125C262.516 85.1646 259.254 86.152 255.918 86.1499C251.449 86.1499 247.162 84.3744 244.002 81.2139C240.841 78.0535 239.066 73.767 239.066 69.2975ZM219.823 69.2975C219.825 76.4386 221.945 83.4186 225.914 89.355C229.883 95.2914 235.524 99.9174 242.122 102.648C248.72 105.379 255.98 106.092 262.984 104.696C269.987 103.301 276.42 99.8605 281.468 94.8094C286.516 89.7584 289.952 83.3239 291.343 76.3196C292.734 69.3153 292.017 62.0559 289.282 55.4592C286.548 48.8626 281.918 43.225 275.979 39.2595C270.041 35.2939 263.059 33.1785 255.918 33.1807C251.176 33.1807 246.481 34.115 242.1 35.9303C237.719 37.7456 233.739 40.4063 230.387 43.7604C227.035 47.1144 224.377 51.0961 222.564 55.4779C220.752 59.8596 219.82 64.5556 219.823 69.2975ZM232.457 69.2975C232.457 64.6547 233.834 60.1162 236.414 56.256C238.993 52.3958 242.66 49.3873 246.949 47.6111C251.239 45.8349 255.959 45.3707 260.512 46.2772C265.066 47.1838 269.248 49.4204 272.53 52.7041C275.812 55.9879 278.047 60.1712 278.952 64.7251C279.856 69.279 279.39 73.9988 277.611 78.2876C275.833 82.5763 272.823 86.2414 268.962 88.8192C265.1 91.3971 260.561 92.7718 255.918 92.7696C249.697 92.758 243.735 90.2809 239.338 85.8813C234.94 81.4816 232.466 75.5181 232.457 69.2975ZM234.506 69.2975C234.506 73.5351 235.762 77.6776 238.117 81.2009C240.471 84.7242 243.818 87.4701 247.733 89.0912C251.649 90.7124 255.957 91.136 260.113 90.3085C264.269 89.4809 268.086 87.4395 271.082 84.4423C274.077 81.445 276.117 77.6267 276.942 73.4703C277.768 69.3138 277.342 65.0059 275.719 61.0915C274.095 57.1771 271.348 53.832 267.823 51.4793C264.299 49.1266 260.156 47.872 255.918 47.8741C250.24 47.8829 244.797 50.1431 240.783 54.1592C236.769 58.1753 234.512 63.6194 234.506 69.2975ZM239.066 69.2975C239.064 65.9613 240.051 62.6995 241.903 59.9246C243.755 57.1498 246.389 54.9866 249.471 53.7089C252.553 52.4312 255.944 52.0963 259.216 52.7467C262.488 53.397 265.494 55.0033 267.853 57.3623C270.212 59.7214 271.819 62.7272 272.469 65.9993C273.119 69.2715 272.784 72.6631 271.507 75.7449C270.229 78.8267 268.066 81.4603 265.291 83.3125C262.516 85.1646 259.254 86.152 255.918 86.1499C251.449 86.1499 247.162 84.3744 244.002 81.2139C240.841 78.0535 239.066 73.767 239.066 69.2975Z" fill="#4A4B5C"/>
<path d="M251.688 33.8417H259.949L259.123 25.5918H252.504L251.688 33.8417Z" fill="#4A4B5C"/>
<path d="M269.984 36.4743L277.144 40.6048L280.547 33.0488L274.82 29.7334L269.984 36.4743Z" fill="#4A4B5C"/>
<path d="M284.513 47.896L288.643 55.0555L295.373 50.209L292.069 44.4814L284.513 47.896Z" fill="#4A4B5C"/>
<path d="M291.374 65.0459V73.3179L299.624 72.4918V65.872L291.374 65.0459Z" fill="#4A4B5C"/>
<path d="M288.753 83.3418L284.611 90.5013L292.167 93.9158L295.483 88.1882L288.753 83.3418Z" fill="#4A4B5C"/>
<path d="M277.32 97.8701L270.16 102.012L275.007 108.742L280.734 105.426L277.32 97.8701Z" fill="#4A4B5C"/>
<path d="M260.17 104.743H251.898L252.725 112.993H259.344L260.17 104.743Z" fill="#4A4B5C"/>
<path d="M241.875 102.11L234.715 97.9795L231.301 105.536L237.039 108.851L241.875 102.11Z" fill="#4A4B5C"/>
<path d="M227.347 90.6878L223.206 83.5283L216.476 88.3637L219.791 94.1023L227.347 90.6878Z" fill="#4A4B5C"/>
<path d="M220.474 73.5275V65.2666L212.224 66.0927V72.7125L220.474 73.5275Z" fill="#4A4B5C"/>
<path d="M223.106 55.243L227.237 48.0835L219.681 44.6689L216.365 50.3965L223.106 55.243Z" fill="#4A4B5C"/>
<path d="M234.528 40.7041L241.687 36.5737L236.852 29.8438L231.113 33.1481L234.528 40.7041Z" fill="#4A4B5C"/>
<path d="M165.819 36.4967C165.709 40.6521 166.834 44.7467 169.052 48.2627C171.269 51.7786 174.48 54.558 178.277 56.2492C182.074 57.9404 186.288 58.4675 190.385 57.7639C194.482 57.0602 198.278 55.1574 201.293 52.2961C204.309 49.4348 206.408 45.7436 207.325 41.6892C208.242 37.6348 207.937 33.3994 206.447 29.5188C204.957 25.6381 202.35 22.2864 198.955 19.8876C195.56 17.4889 191.53 16.1508 187.374 16.0426C184.616 15.9693 181.87 16.4403 179.293 17.4287C176.717 18.4172 174.36 19.9036 172.358 21.8031C170.357 23.7027 168.749 25.978 167.627 28.4992C166.505 31.0204 165.89 33.738 165.819 36.4967ZM177.01 36.7941C177.06 34.8535 177.686 32.9716 178.806 31.3864C179.926 29.8012 181.492 28.5839 183.304 27.8884C185.117 27.1929 187.094 27.0505 188.988 27.4792C190.881 27.9079 192.605 28.8884 193.941 30.2968C195.276 31.7052 196.165 33.4781 196.493 35.3914C196.821 37.3046 196.575 39.2722 195.785 41.0454C194.995 42.8185 193.696 44.3175 192.054 45.3528C190.412 46.388 188.5 46.913 186.559 46.8614C183.958 46.7922 181.491 45.6928 179.7 43.8049C177.909 41.9171 176.942 39.3953 177.01 36.7941Z" fill="#FFC727"/>
<path d="M183.321 16.8022L191.395 17.0225L191.098 11.2949L183.916 11.0967L183.321 16.8022Z" fill="#FFC727"/>
<path d="M198.62 19.9299L204.182 25.8007L208.027 21.538L203.081 16.3281L198.62 19.9299Z" fill="#FFC727"/>
<path d="M207.234 32.9717L207.014 41.0454L212.741 40.748L212.94 33.5665L207.234 32.9717Z" fill="#FFC727"/>
<path d="M204.106 48.2705L198.235 53.8329L202.498 57.677L207.719 52.7314L204.106 48.2705Z" fill="#FFC727"/>
<path d="M191.065 56.8844L182.991 56.6641L183.289 62.4027L190.47 62.5899L191.065 56.8844Z" fill="#FFC727"/>
<path d="M175.765 53.7565L170.202 47.8857L166.358 52.1484L171.304 57.3693L175.765 53.7565Z" fill="#FFC727"/>
<path d="M167.152 40.7153L167.372 32.6416L161.645 32.939L161.446 40.1205L167.152 40.7153Z" fill="#FFC727"/>
<path d="M170.28 25.4153L176.151 19.8529L171.888 16.0088L166.667 20.9654L170.28 25.4153Z" fill="#FFC727"/>
<path d="M192.409 31.9032L185.514 29.8545L180.304 34.8L182 41.7833L188.884 43.832L194.116 38.8865L192.409 31.9032ZM187.133 39.1178C186.681 39.1066 186.243 38.9615 185.874 38.7009C185.505 38.4403 185.222 38.0759 185.06 37.654C184.898 37.232 184.866 36.7716 184.966 36.3312C185.067 35.8907 185.296 35.49 185.625 35.18C185.953 34.8699 186.366 34.6645 186.812 34.5898C187.258 34.5151 187.715 34.5744 188.127 34.7603C188.539 34.9462 188.886 35.2502 189.125 35.6338C189.364 36.0174 189.483 36.4633 189.468 36.9148C189.448 37.5157 189.191 38.0843 188.754 38.4969C188.316 38.9095 187.734 39.1326 187.133 39.1178Z" fill="#FFC727"/>
<path d="M255.819 19.7763V14.0156H385.913V35.9897" stroke="#263238" stroke-width="0.75" stroke-miterlimit="10" stroke-dasharray="2 2"/>
<path d="M384.261 35.5156L385.913 38.3684L387.554 35.5156H384.261Z" fill="#263238"/>
<path d="M678.89 369.093C679.964 373.022 680.675 377.041 681.016 381.099C680.906 381.298 680.928 382.046 681.016 381.837C681.016 382.498 682.04 382.377 682.04 381.727C682.04 381.309 682.04 380.879 682.04 380.471C684.387 377.553 687.801 375.713 690.544 373.18C692.762 371.195 694.377 368.626 695.203 365.767C697.494 357.902 695.346 349.564 698.1 341.711C700.468 334.948 704.709 329.066 708.299 322.931C712.088 316.455 714.908 309.637 715.172 302.003C715.393 296.188 714.699 288.444 710.271 284.083C705.579 279.468 699.763 282.926 696.161 287.046C685.741 299.007 680.917 314.119 678.967 329.573C677.866 338.131 676.765 346.734 677.04 355.369C677.2 359.994 677.82 364.591 678.89 369.093Z" fill="#4A4B5C"/>
<path d="M680.962 384.238C680.39 376.167 680.486 368.062 681.248 360.006C681.248 360.006 681.248 360.006 681.248 359.918C681.116 353.375 680.598 346.844 680.852 340.29C681.173 333.197 682.139 326.148 683.737 319.23C683.737 319.153 683.881 319.23 683.87 319.23C682.587 326.028 681.825 332.914 681.59 339.827C681.457 343.528 681.479 347.229 681.678 350.919C681.744 352.131 681.854 353.342 681.931 354.554C684.657 336.167 691.302 318.579 701.416 302.984C701.559 302.774 701.933 302.984 701.801 303.215C694.571 315.067 689.221 327.968 685.94 341.458C690.952 332.172 698.519 324.528 704.136 315.606C704.136 315.606 704.247 315.606 704.224 315.661C699.18 325.575 690.842 333.428 685.5 343.198C684.574 347.196 683.814 351.217 683.297 355.314C682.542 360.846 682.13 366.419 682.063 372.001C685.114 366.296 688.275 360.843 690.776 354.807C690.842 354.653 691.073 354.752 691.018 354.917C688.892 361.185 686.039 367.937 682.041 373.279C682.041 377.255 682.14 381.22 682.372 385.186C682.999 395.76 684.806 406.201 685.676 416.742C685.676 416.807 685.65 416.868 685.605 416.914C685.56 416.959 685.498 416.985 685.434 416.985C685.369 416.985 685.308 416.959 685.262 416.914C685.217 416.868 685.191 416.807 685.191 416.742C683.043 406.017 681.63 395.157 680.962 384.238Z" fill="#263238"/>
<path d="M692.208 302.609C692.208 302.532 692.351 302.609 692.318 302.609C690.39 307.952 689.3 313.371 687.912 318.845C687.903 318.898 687.874 318.945 687.831 318.975C687.787 319.006 687.733 319.019 687.681 319.01C687.628 319.001 687.581 318.972 687.55 318.929C687.519 318.885 687.507 318.831 687.515 318.779C688.066 313.316 690.06 307.775 692.208 302.609Z" fill="#263238"/>
<path d="M643.137 325.046C644.416 328.178 645.888 331.227 647.543 334.177C651.024 340.5 654.658 346.293 655.253 353.64C655.37 356.934 655.839 360.205 656.652 363.399C657.575 366.117 658.884 368.688 660.54 371.032C664.318 376.539 669.032 381.254 672.524 386.959C676.19 392.897 678.906 399.371 680.576 406.147C680.653 406.521 681.237 406.422 681.148 406.047C681.148 406.047 681.148 405.992 681.148 405.97C681.154 405.945 681.154 405.919 681.148 405.893C681.699 390.109 680.444 374.215 675.641 359.103C673.515 352.458 670.961 345.957 667.997 339.64C665.573 334.057 662.065 329.01 657.676 324.793C654.735 322.149 648.369 317.138 644.195 319.792C642.201 321.07 642.344 323.085 643.137 325.046Z" fill="#4A4B5C"/>
<path d="M658.987 360.81C661.768 365.402 664.832 369.817 668.162 374.028C669.682 376.021 671.235 377.993 672.766 379.998C673.482 380.934 674.286 381.881 674.969 382.894C674.551 381.231 674.154 379.59 673.725 377.916C671.687 369.941 669.737 361.901 666.697 354.234C663.597 346.811 659.937 339.635 655.749 332.767C655.639 332.58 655.936 332.448 656.046 332.624C659.35 338.131 662.765 343.583 665.563 349.366C667.11 352.585 668.46 355.896 669.605 359.279C668.319 352.089 666.523 345 664.23 338.065C664.23 337.999 664.296 337.955 664.318 338.065C667.325 345.069 669.21 352.503 669.902 360.094C670.585 362.143 671.217 364.21 671.797 366.295C674.286 375.107 676.467 384.04 678.494 392.984C678.527 387.104 678.018 381.235 676.974 375.449C676.974 375.305 677.139 375.283 677.172 375.449C678.714 381.484 679.231 387.735 678.703 393.942C679.463 397.346 680.212 400.76 680.906 404.164C682.448 411.433 684.354 418.835 685.312 426.193C685.303 426.225 685.284 426.254 685.257 426.275C685.23 426.295 685.197 426.306 685.163 426.306C685.129 426.306 685.097 426.295 685.07 426.275C685.043 426.254 685.023 426.225 685.014 426.193C683.913 422.217 683.285 418.086 682.393 414.077C681.501 410.067 680.598 406.003 679.65 401.961C678.285 396.086 676.864 390.212 675.388 384.337C674.407 382.19 672.524 380.284 671.103 378.489C669.55 376.517 667.997 374.545 666.488 372.541C663.65 368.831 661.113 364.901 658.899 360.788C658.811 360.788 658.932 360.733 658.987 360.81Z" fill="#263238"/>
<path d="M658.315 354.07C661.79 358.5 664.798 363.276 667.292 368.323C667.292 368.389 667.226 368.455 667.182 368.389C664.164 363.664 661.19 358.894 658.183 354.158C658.128 354.081 658.26 353.993 658.315 354.07Z" fill="#263238"/>
<path d="M725.472 340.059C723.434 343.583 721.066 347.769 721.98 352.043C722.531 354.719 724.492 356.889 724.844 359.621C725.637 365.646 719.634 369.622 715.283 372.475C704.456 379.579 689.597 385.913 687.626 400.43C687.549 400.947 686.667 400.815 686.733 400.309C686.733 400.309 686.733 400.309 686.733 400.221C686.733 400.132 686.733 400.221 686.733 400.132C685.306 392.804 685.374 385.262 686.932 377.96C688.551 370.481 691.811 363.762 695.666 357.186C702.187 346.062 709.093 334.673 718.951 326.158C721.683 323.801 727.267 319.55 729.437 324.881C731.607 330.212 727.983 335.719 725.472 340.059Z" fill="#4A4B5C"/>
<path d="M715.558 363.586C708.376 371.362 696.965 375.702 690.775 384.426C694.228 371.169 700.756 358.912 709.83 348.65C710.061 348.386 709.687 348 709.434 348.254C702.82 354.68 697.528 362.34 693.859 370.8C695.572 364.896 697.817 359.16 700.567 353.662C700.666 353.452 700.369 353.265 700.247 353.474C696.856 359.478 694.436 365.98 693.077 372.739C684.937 392.455 684.177 415.586 685.884 436.37C685.896 436.424 685.926 436.473 685.969 436.508C686.012 436.542 686.066 436.561 686.121 436.561C686.177 436.561 686.23 436.542 686.273 436.508C686.316 436.473 686.346 436.424 686.358 436.37C685.884 419.992 686.149 403.327 690.081 387.333C690.158 386.992 690.246 386.661 690.334 386.331C697.064 376.958 708.431 372.618 715.745 363.707C715.756 363.63 715.635 363.498 715.558 363.586Z" fill="#263238"/>
<path d="M717.222 356.911C713.455 360.37 709.743 363.906 705.965 367.364C705.965 367.364 705.965 367.463 705.965 367.43C710.242 364.553 714.091 361.086 717.398 357.132C717.408 357.105 717.41 357.077 717.406 357.049C717.401 357.021 717.389 356.994 717.372 356.972C717.354 356.95 717.331 356.933 717.305 356.922C717.278 356.912 717.25 356.908 717.222 356.911Z" fill="#263238"/>
<path d="M717.827 341.92C714.491 347.392 710.716 352.582 706.537 357.44C706.531 357.446 706.527 357.454 706.524 357.462C706.521 357.471 706.52 357.479 706.521 357.488C706.521 357.497 706.523 357.505 706.527 357.513C706.531 357.521 706.536 357.528 706.543 357.534C706.549 357.539 706.557 357.544 706.565 357.547C706.573 357.55 706.582 357.551 706.591 357.55C706.599 357.55 706.608 357.547 706.616 357.544C706.624 357.54 706.631 357.535 706.636 357.528C711.32 353.081 715.177 347.838 718.026 342.042C718.092 341.909 717.904 341.788 717.827 341.92Z" fill="#263238"/>
<path d="M700.843 451.031H667.821L672.271 406.598H695.765L700.843 451.031Z" fill="#455A64"/>
<path d="M696.591 413.823H671.544L672.271 406.598H695.765L696.591 413.823Z" fill="#263238"/>
<path d="M699.807 401.675H668.856V408.768H699.807V401.675Z" fill="#455A64"/>
</g>
<defs>
<filter id="filter0_d_2697_1823" x="0.0146484" y="11.0967" width="748.481" height="459.935" filterUnits="userSpaceOnUse" color-interpolation-filters="sRGB">
<feFlood flood-opacity="0" result="BackgroundImageFix"/>
<feColorMatrix in="SourceAlpha" type="matrix" values="0 0 0 0 0 0 0 0 0 0 0 0 0 0 0 0 0 0 127 0" result="hardAlpha"/>
<feOffset dx="4" dy="12"/>
<feGaussianBlur stdDeviation="4"/>
<feComposite in2="hardAlpha" operator="out"/>
<feColorMatrix type="matrix" values="0 0 0 0 0 0 0 0 0 0 0 0 0 0 0 0 0 0 0.25 0"/>
<feBlend mode="normal" in2="BackgroundImageFix" result="effect1_dropShadow_2697_1823"/>
<feBlend mode="normal" in="SourceGraphic" in2="effect1_dropShadow_2697_1823" result="shape"/>
</filter>
</defs>
</svg>
